<?xml version="1.0" standalone="no"?>
<!DOCTYPE svg PUBLIC "-//W3C//DTD SVG 1.1//EN" "http://www.w3.org/Graphics/SVG/1.1/DTD/svg11.dtd" >
<svg>
<metadata>
Created by FontForge 20120731 at Sat Nov 28 13:11:16 2015
 By ,,,
</metadata>
<defs>
<font id="SkodaPro-Italic" horiz-adv-x="775" >
  <font-face 
    font-family="Skoda Pro"
    font-weight="400"
    font-style="italic"
    font-stretch="normal"
    units-per-em="2048"
    panose-1="2 0 0 0 0 0 0 0 0 0"
    ascent="1638"
    descent="-410"
    x-height="1071"
    cap-height="1475"
    bbox="-785.909 -473 2413.79 1925"
    underline-thickness="102"
    underline-position="-103"
    slope="-10"
    unicode-range="U+0020-FB02"
  />
<missing-glyph horiz-adv-x="0" 
 />
    <glyph glyph-name=".notdef" horiz-adv-x="0" 
 />
    <glyph glyph-name=".null" horiz-adv-x="0" 
 />
    <glyph glyph-name="nonmarkingreturn" horiz-adv-x="508" 
 />
    <glyph glyph-name="space" unicode=" " horiz-adv-x="508" 
 />
    <glyph glyph-name="C" unicode="C" horiz-adv-x="1159" 
d="M623 -22q-141 0 -245 35.5t-165.5 116.5t-77 213.5t20.5 326.5l23 135q37 201 101.5 334t156 212.5t209 112.5t258.5 33q91 0 173.5 -8.5t138.5 -22.5q14 -4 9 -17l-29 -77q-5 -13 -19 -10q-64 13 -140.5 18.5t-149.5 5.5q-114 0 -209 -27t-169 -93t-127 -176t-84 -275
l-27 -155q-31 -166 -19 -276t61.5 -175.5t134 -92.5t199.5 -27q93 0 169.5 7.5t139.5 18.5q14 1 14 -12l-1 -77q0 -14 -14 -17q-63 -14 -150 -22.5t-182 -8.5z" />
    <glyph glyph-name="D" unicode="D" horiz-adv-x="1408" 
d="M466 -16q-39 0 -83 1t-90 2.5t-92.5 4.5t-88.5 7q-14 1 -11 15l267 1447q2 14 17 15q44 3 93 4.5t96 3t89.5 2t72.5 0.5q96 0 182.5 -10t157 -37t123.5 -75.5t82.5 -125.5t33 -186t-23.5 -257l-21 -113q-29 -154 -70 -265.5t-95.5 -189t-121 -125t-146.5 -74
t-172.5 -35.5t-198.5 -9zM732 1379q-26 0 -61.5 -0.5t-72.5 -1.5t-72 -2.5t-60 -3.5l-236 -1270q29 -3 64 -5t70.5 -3.5t70 -2t63.5 -0.5q90 0 167.5 9.5t143 33.5t119 66.5t96.5 107.5t75.5 156.5t55.5 214.5l22 119q22 122 23.5 213t-18 155.5t-58 106t-95.5 65.5
t-131.5 33t-165.5 9z" />
    <glyph glyph-name="E" unicode="E" horiz-adv-x="1185" 
d="M113 0q-14 0 -11 14l266 1447q3 14 17 14h822q13 0 12 -14l-16 -85q-1 -14 -16 -14h-722l-93 -502h626q14 0 11 -14l-15 -84q-3 -14 -17 -14h-626l-116 -636h721q14 0 11 -14l-16 -84q-3 -14 -17 -14h-821z" />
    <glyph glyph-name="F" unicode="F" horiz-adv-x="1113" 
d="M113 0q-14 0 -11 14l266 1447q3 14 17 14h832q13 0 12 -14l-16 -85q-1 -14 -16 -14h-732l-93 -502h585q14 0 11 -14l-16 -84q-3 -14 -17 -14h-584l-135 -734q-3 -14 -17 -14h-86z" />
    <glyph glyph-name="G" unicode="G" horiz-adv-x="1272" 
d="M1139 767q14 0 11 -14l-131 -712q-3 -14 -16 -18q-105 -28 -201.5 -36.5t-187.5 -8.5q-144 0 -246.5 34.5t-161 115.5t-71.5 213.5t24 328.5l23 135q37 199 99 332t151.5 213t208.5 113.5t270 33.5q90 0 174.5 -8.5t140.5 -24.5q13 -4 8 -17l-27 -75q-5 -13 -19 -10
q-65 12 -142 17.5t-151 5.5q-120 0 -216.5 -27t-170 -92.5t-124.5 -175.5t-82 -275l-27 -155q-31 -166 -22.5 -275.5t55 -175t128.5 -92.5t198 -27q88 0 157 6t128 17l100 544l-318 4q-14 0 -11 14l14 78q3 14 17 14h418z" />
    <glyph glyph-name="H" unicode="H" horiz-adv-x="1427" 
d="M113 0q-14 0 -11 14l266 1447q3 14 17 14h86q14 0 11 -14l-110 -601h769l110 601q3 14 17 14h86q14 0 11 -14l-267 -1447q-3 -14 -17 -14h-86q-14 0 -11 14l135 734h-768l-135 -734q-3 -14 -17 -14h-86z" />
    <glyph glyph-name="I" unicode="I" horiz-adv-x="545" 
d="M113 0q-14 0 -11 14l266 1447q3 14 17 14h86q14 0 11 -14l-266 -1447q-3 -14 -17 -14h-86z" />
    <glyph glyph-name="J" unicode="J" horiz-adv-x="545" 
d="M-76 -268q-26 0 -56.5 4t-53.5 10q-14 4 -9 17l28 77q5 13 18 10q20 -5 41 -6t41 -1q31 0 57.5 5t47.5 22t36.5 49t25.5 87l269 1455q3 14 17 14h85q14 0 11 -14l-269 -1461q-15 -80 -40 -132t-61 -82t-83 -42t-105 -12z" />
    <glyph glyph-name="K" unicode="K" horiz-adv-x="1166" 
d="M907 0q-14 0 -21 12l-433 744l-120 -102l-117 -640q-3 -14 -17 -14h-86q-14 0 -11 14l267 1447q3 14 17 14h85q14 0 11 -14l-118 -641l755 646q10 9 25 9h143q6 0 7 -2.5t-4 -6.5l-745 -633l485 -821q7 -12 -7 -12h-116z" />
    <glyph glyph-name="L" unicode="L" horiz-adv-x="1023" 
d="M113 0q-14 0 -11 14l266 1447q3 14 17 14h86q14 0 11 -14l-248 -1352h664q14 0 11 -14l-16 -81q-3 -14 -17 -14h-763z" />
    <glyph glyph-name="M" unicode="M" horiz-adv-x="1648" 
d="M113 0q-14 0 -11 14l266 1447q3 14 17 14h91q14 0 19 -13l278 -732q7 -19 14.5 -38.5t12.5 -35t8.5 -26l3.5 -10.5l7.5 10.5t19.5 26t26.5 35.5t29.5 40l548 732q8 11 22 11h110q14 0 11 -14l-267 -1447q-3 -14 -17 -14h-86q-14 0 -11 14l220 1192l12 72q-2 -1 -19 -24
t-37 -51l-529 -707q-8 -11 -22 -11h-69q-14 0 -19 13l-260 698q-12 34 -20 58t-10 24l-18 -89l-218 -1175q-3 -14 -17 -14h-86z" />
    <glyph glyph-name="N" unicode="N" horiz-adv-x="1426" 
d="M113 0q-14 0 -11 14l266 1447q3 14 17 14h97q14 0 19 -13l465 -1151q23 -55 35 -86.5t14 -31.5l235 1268q3 14 17 14h85q14 0 11 -14l-266 -1447q-3 -14 -17 -14h-102q-14 0 -19 13l-457 1143q-23 54 -36.5 89.5t-14.5 35.5l-235 -1267q-3 -14 -17 -14h-86z" />
    <glyph glyph-name="O" unicode="O" horiz-adv-x="1432" 
d="M596 -22q-135 0 -232.5 35t-153.5 116t-69 213.5t20 327.5l23 135q36 205 97.5 338.5t148.5 212t198.5 110t248.5 31.5q136 0 233 -34.5t152.5 -115.5t68 -213.5t-20.5 -328.5l-23 -135q-35 -203 -95.5 -336t-147.5 -212.5t-199 -111.5t-249 -32zM855 1380
q-108 0 -196 -26.5t-156.5 -91.5t-118 -173.5t-80.5 -273.5l-28 -155q-30 -167 -21 -276t53 -173.5t122.5 -90.5t186.5 -26q105 0 193 27.5t157.5 93t119.5 174.5t80 273l28 153q30 165 21.5 274t-53 173.5t-122.5 91t-186 26.5z" />
    <glyph glyph-name="P" unicode="P" horiz-adv-x="1271" 
d="M676 1385q-17 0 -45.5 -1t-59.5 -2t-59 -3t-44 -3l-135 -724q15 -2 43 -3t58.5 -2t59.5 -1.5t46 -0.5q148 0 250.5 13.5t170.5 51t106.5 104.5t58.5 174l11 53q19 107 6 174.5t-67 105t-152 51t-248 13.5zM112 0q-14 0 -11 14l269 1449q2 14 17 15q35 3 78 5l86 4t81 3
t64 1q164 0 281 -17t186.5 -65t91.5 -133.5t-3 -223.5l-14 -74q-18 -97 -45.5 -167t-68 -119t-96.5 -79t-129.5 -46.5t-168 -22t-211.5 -5.5q-21 0 -53.5 0.5t-64 1.5t-57 2t-32.5 2l-97 -531q-3 -14 -17 -14h-86z" />
    <glyph glyph-name="Q" unicode="Q" horiz-adv-x="1434" 
d="M594 -22q-135 0 -232 36t-153 117.5t-69 213.5t20 325l23 135q36 206 97.5 340t148.5 212t198.5 109t248.5 31q136 0 233 -35.5t153 -116.5t68.5 -213.5t-21.5 -326.5l-23 -135q-31 -179 -82 -303.5t-121.5 -205t-160.5 -122t-199 -54.5l156 -361q6 -13 -8 -13h-116
q-14 0 -19 13zM854 1380q-108 0 -196 -26.5t-156.5 -91.5t-118 -173.5t-80.5 -273.5l-28 -155q-30 -167 -21 -276t53 -173.5t122.5 -90.5t186.5 -26q105 0 193 27.5t157.5 93t119.5 174.5t80 273l28 153q30 165 21.5 274t-52.5 173.5t-122 91t-187 26.5z" />
    <glyph glyph-name="R" unicode="R" horiz-adv-x="1349" 
d="M1014 0q-14 0 -20 13l-245 555q-38 -2 -79 -2h-86q-65 0 -126 1t-139 6l-103 -559q-3 -14 -17 -14h-86q-14 0 -11 14l267 1446q2 14 17 15q97 8 186 9.5t179 1.5q162 0 274 -14.5t177.5 -59t85.5 -126.5t-3 -216l-16 -91q-19 -108 -53.5 -180.5t-84.5 -118.5
t-116.5 -69.5t-149.5 -33.5q6 -11 10.5 -21.5t9.5 -19.5l242 -523q6 -13 -8 -13h-105zM735 1379h-73t-76 -1t-68.5 -2.5t-50.5 -4.5l-127 -691q31 -3 68 -4.5t73 -2.5t68 -1h55q90 0 162 3.5t129 15t100 33.5t74.5 58.5t53 89.5t35.5 128l11 59q21 114 5 178.5t-70.5 96
t-146.5 38.5t-222 7z" />
    <glyph glyph-name="S" unicode="S" horiz-adv-x="1165" 
d="M383 -22q-47 0 -94.5 2.5t-93.5 6.5t-87 10t-74 14q-14 3 -8 16l36 76q4 8 8 10t12 1q93 -15 168.5 -20.5t149.5 -5.5q149 0 246 21t154 65t80 112t23 163q0 48 -15.5 81.5t-50.5 61t-91.5 54.5t-137.5 61l-123 53q-71 30 -123.5 62t-87.5 69.5t-52 83.5t-17 105
q0 112 29.5 191t100.5 129.5t189.5 73.5t296.5 23q88 0 171 -7.5t143 -21.5q15 -3 9 -16l-32 -75q-6 -13 -20 -10q-29 5 -64.5 9t-74 6.5t-77 3.5t-71.5 1q-146 0 -239 -16t-147 -51t-74.5 -91t-20.5 -136q0 -52 18 -88t53.5 -63.5t87.5 -51.5t120 -51l145 -59
q78 -32 130.5 -64t84 -69t45 -80.5t13.5 -97.5q0 -135 -33 -228.5t-108 -152t-197 -84.5t-300 -26z" />
    <glyph glyph-name="T" unicode="T" horiz-adv-x="1163" 
d="M415 0q-14 0 -11 14l250 1348h-486q-14 0 -11 14l15 85q3 14 17 14h1087q14 0 11 -14l-16 -85q-3 -14 -17 -14h-486l-249 -1348q-3 -14 -17 -14h-87z" />
    <glyph glyph-name="U" unicode="U" horiz-adv-x="1445" 
d="M597 -22q-124 0 -215.5 30t-146.5 93.5t-72 162t9 234.5l179 963q3 14 17 14h86q14 0 11 -14l-173 -934q-21 -111 -16.5 -193t42 -136.5t111 -81.5t189.5 -27q118 0 203 26.5t143.5 81t94 137t56.5 193.5l174 934q3 14 17 14h83q14 0 11 -14l-179 -963
q-29 -154 -82 -254.5t-130.5 -159.5t-180.5 -82.5t-231 -23.5z" />
    <glyph glyph-name="V" unicode="V" horiz-adv-x="1265" 
d="M524 108h2l733 1355q7 12 21 12h98q14 0 7 -12l-790 -1451q-7 -12 -21 -12h-132q-15 0 -16 14l-253 1447q-1 14 12 14h93q15 0 16 -14z" />
    <glyph glyph-name="W" unicode="W" horiz-adv-x="1831" 
d="M305 0q-14 0 -14 14l-49 1447q0 14 14 14h97q14 0 14 -14l18 -1127l4 -233l10 22t24.5 56t32.5 74.5t35 77.5l518 1131q6 13 20 13h91q14 0 15 -14l98 -1123q0 -3 2 -22t4.5 -45.5t5 -56t5 -54.5t4 -42l1.5 -17l89 241l435 1120q5 13 19 13h101q13 0 9 -13l-585 -1449
q-5 -13 -19 -13h-129q-14 0 -15 14l-110 1173q-2 20 -3 40t-1.5 35.5t-1 25.5l-0.5 10q0 -1 -4 -11t-10.5 -25.5t-15 -35t-17.5 -39.5l-545 -1174q-4 -8 -8 -10.5t-12 -2.5h-127z" />
    <glyph glyph-name="X" unicode="X" horiz-adv-x="1233" 
d="M951 0q-14 0 -20 13l-302 641l-541 -643q-5 -6 -10 -8.5t-13 -2.5h-121q-14 0 -5 11l625 725l-356 726q-6 13 8 13h106q8 0 12 -2.5t8 -10.5l302 -641l542 643q5 6 10 8.5t13 2.5h121q14 0 5 -11l-625 -726l355 -725q6 -13 -8 -13h-106z" />
    <glyph glyph-name="Y" unicode="Y" horiz-adv-x="1131" 
d="M401 0q-14 0 -11 14l91 501l-315 947q-4 13 10 13h92q14 0 18 -13l270 -810l571 812q8 11 22 11h104q14 0 6 -11l-664 -948l-92 -502q-3 -14 -17 -14h-85z" />
    <glyph glyph-name="Z" unicode="Z" horiz-adv-x="1154" 
d="M-15 0q-14 0 -11 14l15 78q2 8 4.5 13.5t7.5 11.5l1058 1249h-805q-13 0 -12 14l15 81q1 14 16 14h927q13 0 12 -14l-15 -78q-1 -8 -3.5 -13.5t-7.5 -11.5l-1057 -1250h822q14 0 11 -14l-15 -80q-3 -14 -17 -14h-945z" />
    <glyph glyph-name="Aacute" unicode="&#xc1;" horiz-adv-x="1272" 
d="M-71 0q-15 0 -7 12l791 1451q7 12 21 12h131q15 0 16 -14l258 -1447q1 -14 -12 -14h-94q-15 0 -16 14l-72 407h-675l-221 -409q-7 -12 -21 -12h-99zM779 1362l-450 -831h597zM676 1606q-14 0 -3 9l227 186q10 9 25 9h142q6 0 7 -2.5t-4 -5.5l-262 -188q-11 -8 -25 -8
h-107z" />
    <glyph glyph-name="Abreve" unicode="&#x102;" horiz-adv-x="1272" 
d="M-71 0q-15 0 -7 12l791 1451q7 12 21 12h131q15 0 16 -14l258 -1447q1 -14 -12 -14h-94q-15 0 -16 14l-72 407h-675l-221 -409q-7 -12 -21 -12h-99zM779 1362l-450 -831h597zM814 1586q-118 0 -174.5 56t-48.5 157q0 14 15 14h62q14 0 13 -14q0 -39 12 -64t31.5 -40
t45 -21t52.5 -6q30 0 58 6.5t53 21.5t45 40.5t33 63.5q4 13 18 13h69q14 0 10 -13q-17 -54 -40.5 -94t-58 -66.5t-82.5 -40t-113 -13.5z" />
    <glyph glyph-name="Acircumflex" unicode="&#xc2;" horiz-adv-x="1272" 
d="M-71 0q-15 0 -7 12l791 1451q7 12 21 12h131q15 0 16 -14l258 -1447q1 -14 -12 -14h-94q-15 0 -16 14l-72 407h-675l-221 -409q-7 -12 -21 -12h-99zM779 1362l-450 -831h597zM1105 1616q10 -10 -4 -10h-95q-8 0 -13 2.5t-10 7.5l-110 122h-20l-159 -123q-10 -9 -25 -9
h-115q-6 0 -7 2.5t4 5.5l253 188q11 8 25 8h83q8 0 13 -2.5t11 -7.5z" />
    <glyph glyph-name="Adieresis" unicode="&#xc4;" horiz-adv-x="1272" 
d="M-71 0q-15 0 -7 12l791 1451q7 12 21 12h131q15 0 16 -14l258 -1447q1 -14 -12 -14h-94q-15 0 -16 14l-72 407h-675l-221 -409q-7 -12 -21 -12h-99zM779 1362l-450 -831h597zM637 1606q-14 0 -11 14l35 194q3 14 17 17l94 18q14 3 11 -11l-40 -218q-3 -14 -17 -14h-89z
M929 1606q-13 0 -12 14l36 194q1 14 16 17l94 18q14 3 11 -11l-39 -218q-3 -14 -17 -14h-89z" />
    <glyph glyph-name="Agrave" unicode="&#xc0;" horiz-adv-x="1272" 
d="M-71 0q-15 0 -7 12l791 1451q7 12 21 12h131q15 0 16 -14l258 -1447q1 -14 -12 -14h-94q-15 0 -16 14l-72 407h-675l-221 -409q-7 -12 -21 -12h-99zM779 1362l-450 -831h597zM879 1606q-9 0 -13.5 2t-9.5 7l-198 183q-5 5 -3.5 8.5t9.5 3.5h131q8 0 12.5 -1.5t9.5 -7.5
l164 -183q10 -12 -6 -12h-96z" />
    <glyph glyph-name="Amacron" unicode="&#x100;" horiz-adv-x="1272" 
d="M-71 0q-15 0 -7 12l791 1451q7 12 21 12h131q15 0 16 -14l258 -1447q1 -14 -12 -14h-94q-15 0 -16 14l-72 407h-675l-221 -409q-7 -12 -21 -12h-99zM779 1362l-450 -831h597zM590 1647q-14 0 -11 14l12 66q3 14 17 14h470q13 0 12 -14l-13 -66q-1 -14 -16 -14h-471z" />
    <glyph glyph-name="Aogonek" unicode="&#x104;" horiz-adv-x="1274" 
d="M-71 0q-15 0 -7 12l791 1451q7 12 21 12h131q15 0 16 -14l258 -1447q2 -9 0 -13t-8 -7q-54 -27 -101.5 -61.5t-82.5 -71t-55 -73t-20 -67.5q0 -27 19.5 -38.5t75.5 -11.5q23 0 50.5 1.5t53.5 4.5q14 1 13 -12l-5 -49q-1 -13 -15 -17q-23 -5 -55.5 -8t-70.5 -3
q-49 0 -81 7.5t-51 22t-27 34.5t-8 45q0 46 20 90t54 84.5t78.5 76.5t93.5 66l-72 407h-675l-221 -409q-7 -12 -21 -12h-99zM779 1362l-450 -831h597z" />
    <glyph glyph-name="Aring" unicode="&#xc5;" horiz-adv-x="1264" 
d="M-75 0q-15 0 -7 12l773 1418q-38 20 -52.5 57t-6.5 85l1 7q11 69 64.5 112t144.5 43q44 0 75.5 -12.5t50 -34.5t25 -52.5t0.5 -65.5q-8 -50 -36 -86t-74 -55l252 -1414q1 -14 -12 -14h-94q-15 0 -16 14l-72 407h-675l-221 -409q-7 -12 -21 -12h-99zM775 1362l-450 -831
h597zM828 1657q-48 0 -78 -24.5t-34 -57.5l-1 -8q-2 -16 1.5 -30.5t13 -26t26.5 -18t41 -6.5q48 0 78 25.5t35 60.5q4 35 -14 60t-68 25z" />
    <glyph glyph-name="Atilde" unicode="&#xc3;" horiz-adv-x="1272" 
d="M-71 0q-15 0 -7 12l791 1451q7 12 21 12h131q15 0 16 -14l258 -1447q1 -14 -12 -14h-94q-15 0 -16 14l-72 407h-675l-221 -409q-7 -12 -21 -12h-99zM779 1362l-450 -831h597zM513 1606q-15 0 -12 14q11 73 34 116.5t51 65.5t57.5 28.5t53.5 6.5q27 0 48 -5t39 -14.5
t36 -23.5t39 -33q25 -23 42 -37.5t30.5 -22.5t25 -11t26.5 -3q19 0 35.5 5t30 19t24 39t16.5 66q3 14 16 14h65q15 0 12 -14q-12 -74 -35 -117.5t-51.5 -65.5t-58 -28t-54.5 -6q-27 0 -47 4.5t-38 13.5t-35.5 23t-38.5 34q-24 23 -41 37.5t-30.5 23t-26 11.5t-26.5 3
q-19 0 -35.5 -5t-30 -19t-24 -39.5t-16.5 -65.5q-3 -14 -16 -14h-65z" />
    <glyph glyph-name="AE" unicode="&#xc6;" horiz-adv-x="1834" 
d="M769 0q-14 0 -11 14l75 411h-535l-284 -413q-8 -12 -22 -12h-97q-14 0 -6 12l995 1451q8 12 22 12h946q13 0 12 -14l-16 -85q-1 -14 -16 -14h-711l-93 -502h626q14 0 11 -14l-15 -84q-3 -14 -17 -14h-626l-118 -636h711q14 0 11 -14l-15 -84q-3 -14 -17 -14h-810z
M944 1362l-571 -829h480l154 829h-63z" />
    <glyph glyph-name="Cacute" unicode="&#x106;" horiz-adv-x="1159" 
d="M623 -22q-141 0 -245 35.5t-165.5 116.5t-77 213.5t20.5 326.5l23 135q37 201 101.5 334t156 212.5t209 112.5t258.5 33q91 0 173.5 -8.5t138.5 -22.5q14 -4 9 -17l-29 -77q-5 -13 -19 -10q-64 13 -140.5 18.5t-149.5 5.5q-114 0 -209 -27t-169 -93t-127 -176t-84 -275
l-27 -155q-31 -166 -19 -276t61.5 -175.5t134 -92.5t199.5 -27q93 0 169.5 7.5t139.5 18.5q14 1 14 -12l-1 -77q0 -14 -14 -17q-63 -14 -150 -22.5t-182 -8.5zM777 1606q-14 0 -3 9l227 186q10 9 25 9h142q6 0 7 -2.5t-4 -5.5l-262 -188q-11 -8 -25 -8h-107z" />
    <glyph glyph-name="Ccaron" unicode="&#x10c;" horiz-adv-x="1159" 
d="M623 -22q-141 0 -245 35.5t-165.5 116.5t-77 213.5t20.5 326.5l23 135q37 201 101.5 334t156 212.5t209 112.5t258.5 33q91 0 173.5 -8.5t138.5 -22.5q14 -4 9 -17l-29 -77q-5 -13 -19 -10q-64 13 -140.5 18.5t-149.5 5.5q-114 0 -209 -27t-169 -93t-127 -176t-84 -275
l-27 -155q-31 -166 -19 -276t61.5 -175.5t134 -92.5t199.5 -27q93 0 169.5 7.5t139.5 18.5q14 1 14 -12l-1 -77q0 -14 -14 -17q-63 -14 -150 -22.5t-182 -8.5zM633 1800q-10 10 4 10h95q8 0 13 -2.5t10 -7.5l110 -122h20l159 123q10 9 25 9h115q6 0 7 -2.5t-4 -5.5
l-253 -188q-11 -8 -25 -8h-83q-8 0 -13 2.5t-11 7.5z" />
    <glyph glyph-name="Ccedilla" unicode="&#xc7;" horiz-adv-x="1160" 
d="M623 -22q-141 0 -245 35.5t-165.5 116.5t-77 213.5t20.5 326.5l23 135q37 201 101.5 334t156 212.5t209 112.5t258.5 33q91 0 173.5 -8.5t138.5 -22.5q14 -4 9 -17l-29 -77q-5 -13 -19 -10q-64 13 -140.5 18.5t-149.5 5.5q-114 0 -209 -27t-169 -93t-127 -176t-84 -275
l-27 -155q-31 -166 -19 -276t61.5 -175.5t134 -92.5t199.5 -27q93 0 169.5 7.5t139.5 18.5q14 1 14 -12l-1 -77q0 -14 -14 -17q-63 -14 -150 -22.5t-182 -8.5zM354 -389q-14 0 -6 11l189 265q8 11 22 11h92q13 0 6 -12l-181 -263q-8 -12 -22 -12h-100z" />
    <glyph glyph-name="Dcaron" unicode="&#x10e;" horiz-adv-x="1408" 
d="M466 -16q-39 0 -83 1t-90 2.5t-92.5 4.5t-88.5 7q-14 1 -11 15l267 1447q2 14 17 15q44 3 93 4.5t96 3t89.5 2t72.5 0.5q96 0 182.5 -10t157 -37t123.5 -75.5t82.5 -125.5t33 -186t-23.5 -257l-21 -113q-29 -154 -70 -265.5t-95.5 -189t-121 -125t-146.5 -74
t-172.5 -35.5t-198.5 -9zM732 1379q-26 0 -61.5 -0.5t-72.5 -1.5t-72 -2.5t-60 -3.5l-236 -1270q29 -3 64 -5t70.5 -3.5t70 -2t63.5 -0.5q90 0 167.5 9.5t143 33.5t119 66.5t96.5 107.5t75.5 156.5t55.5 214.5l22 119q22 122 23.5 213t-18 155.5t-58 106t-95.5 65.5
t-131.5 33t-165.5 9zM585 1800q-10 10 4 10h95q8 0 13 -2.5t10 -7.5l110 -122h20l159 123q10 9 25 9h115q6 0 7 -2.5t-4 -5.5l-253 -188q-11 -8 -25 -8h-83q-8 0 -13 2.5t-11 7.5z" />
    <glyph glyph-name="Dcroat" unicode="&#x110;" horiz-adv-x="1414" 
d="M473 -16q-39 0 -83 1t-90 2.5t-92.5 4.5t-88.5 7q-14 1 -11 15l133 724h-173q-14 0 -11 14l15 80q3 14 17 14h172l114 615q2 14 17 15q44 3 93 4.5t96 3t89.5 2t72.5 0.5q96 0 182.5 -10t157 -37t123.5 -75.5t82.5 -125.5t33 -186t-23.5 -257l-21 -113
q-29 -154 -70 -265.5t-95.5 -189t-121 -125t-146.5 -74t-172.5 -35.5t-198.5 -9zM739 1379q-26 0 -61.5 -0.5t-72.5 -1.5t-72 -2.5t-60 -3.5l-98 -525h277q14 0 11 -14l-15 -80q-3 -14 -17 -14h-276l-118 -637q29 -3 64 -5t70.5 -3.5t70 -2t63.5 -0.5q90 0 167.5 9.5
t143 33.5t119 66.5t96.5 107.5t75.5 156.5t55.5 214.5l22 119q22 122 23.5 213t-18 155.5t-58 106t-95.5 65.5t-131.5 33t-165.5 9z" />
    <glyph glyph-name="Eth" unicode="&#xd0;" horiz-adv-x="1414" 
d="M473 -16q-39 0 -83 1t-90 2.5t-92.5 4.5t-88.5 7q-14 1 -11 15l133 724h-173q-14 0 -11 14l15 80q3 14 17 14h172l114 615q2 14 17 15q44 3 93 4.5t96 3t89.5 2t72.5 0.5q96 0 182.5 -10t157 -37t123.5 -75.5t82.5 -125.5t33 -186t-23.5 -257l-21 -113
q-29 -154 -70 -265.5t-95.5 -189t-121 -125t-146.5 -74t-172.5 -35.5t-198.5 -9zM739 1379q-26 0 -61.5 -0.5t-72.5 -1.5t-72 -2.5t-60 -3.5l-98 -525h277q14 0 11 -14l-15 -80q-3 -14 -17 -14h-276l-118 -637q29 -3 64 -5t70.5 -3.5t70 -2t63.5 -0.5q90 0 167.5 9.5
t143 33.5t119 66.5t96.5 107.5t75.5 156.5t55.5 214.5l22 119q22 122 23.5 213t-18 155.5t-58 106t-95.5 65.5t-131.5 33t-165.5 9z" />
    <glyph glyph-name="Eacute" unicode="&#xc9;" horiz-adv-x="1185" 
d="M113 0q-14 0 -11 14l266 1447q3 14 17 14h822q13 0 12 -14l-16 -85q-1 -14 -16 -14h-722l-93 -502h626q14 0 11 -14l-15 -84q-3 -14 -17 -14h-626l-116 -636h721q14 0 11 -14l-16 -84q-3 -14 -17 -14h-821zM686 1606q-14 0 -3 9l227 186q10 9 25 9h142q6 0 7 -2.5
t-4 -5.5l-262 -188q-11 -8 -25 -8h-107z" />
    <glyph glyph-name="Ecaron" unicode="&#x11a;" horiz-adv-x="1185" 
d="M113 0q-14 0 -11 14l266 1447q3 14 17 14h822q13 0 12 -14l-16 -85q-1 -14 -16 -14h-722l-93 -502h626q14 0 11 -14l-15 -84q-3 -14 -17 -14h-626l-116 -636h721q14 0 11 -14l-16 -84q-3 -14 -17 -14h-821zM576 1800q-10 10 4 10h95q8 0 13 -2.5t10 -7.5l110 -122h20
l159 123q10 9 25 9h115q6 0 7 -2.5t-4 -5.5l-253 -188q-11 -8 -25 -8h-83q-8 0 -13 2.5t-11 7.5z" />
    <glyph glyph-name="Ecircumflex" unicode="&#xca;" horiz-adv-x="1185" 
d="M1077 1616q10 -10 -4 -10h-95q-8 0 -13 2.5t-10 7.5l-110 122h-20l-159 -123q-10 -9 -25 -9h-115q-6 0 -7 2.5t4 5.5l253 188q11 8 25 8h83q8 0 13 -2.5t11 -7.5zM113 0q-14 0 -11 14l266 1447q3 14 17 14h822q13 0 12 -14l-16 -85q-1 -14 -16 -14h-722l-93 -502h626
q14 0 11 -14l-15 -84q-3 -14 -17 -14h-626l-116 -636h721q14 0 11 -14l-16 -84q-3 -14 -17 -14h-821z" />
    <glyph glyph-name="Edieresis" unicode="&#xcb;" horiz-adv-x="1185" 
d="M113 0q-14 0 -11 14l266 1447q3 14 17 14h822q13 0 12 -14l-16 -85q-1 -14 -16 -14h-722l-93 -502h626q14 0 11 -14l-15 -84q-3 -14 -17 -14h-626l-116 -636h721q14 0 11 -14l-16 -84q-3 -14 -17 -14h-821zM609 1606q-14 0 -11 14l35 194q3 14 17 17l94 18q14 3 11 -11
l-40 -218q-3 -14 -17 -14h-89zM901 1606q-13 0 -12 14l36 194q1 14 16 17l94 18q14 3 11 -11l-39 -218q-3 -14 -17 -14h-89z" />
    <glyph glyph-name="Edotaccent" unicode="&#x116;" horiz-adv-x="1185" 
d="M753 1606q-13 0 -12 14l36 194q1 14 16 17l98 18q14 3 11 -11l-39 -218q-3 -14 -17 -14h-93zM113 0q-14 0 -11 14l266 1447q3 14 17 14h822q13 0 12 -14l-16 -85q-1 -14 -16 -14h-722l-93 -502h626q14 0 11 -14l-15 -84q-3 -14 -17 -14h-626l-116 -636h721q14 0 11 -14
l-16 -84q-3 -14 -17 -14h-821z" />
    <glyph glyph-name="Egrave" unicode="&#xc8;" horiz-adv-x="1185" 
d="M832 1606q-9 0 -13.5 2t-9.5 7l-198 183q-5 5 -3.5 8.5t9.5 3.5h131q8 0 12.5 -1.5t9.5 -7.5l164 -183q10 -12 -6 -12h-96zM113 0q-14 0 -11 14l266 1447q3 14 17 14h822q13 0 12 -14l-16 -85q-1 -14 -16 -14h-722l-93 -502h626q14 0 11 -14l-15 -84q-3 -14 -17 -14h-626
l-116 -636h721q14 0 11 -14l-16 -84q-3 -14 -17 -14h-821z" />
    <glyph glyph-name="Emacron" unicode="&#x112;" horiz-adv-x="1185" 
d="M113 0q-14 0 -11 14l266 1447q3 14 17 14h822q13 0 12 -14l-16 -85q-1 -14 -16 -14h-722l-93 -502h626q14 0 11 -14l-15 -84q-3 -14 -17 -14h-626l-116 -636h721q14 0 11 -14l-16 -84q-3 -14 -17 -14h-821zM574 1647q-14 0 -11 14l12 66q3 14 17 14h470q13 0 12 -14
l-13 -66q-1 -14 -16 -14h-471z" />
    <glyph glyph-name="Eogonek" unicode="&#x118;" horiz-adv-x="1185" 
d="M871 0q-36 -25 -71 -60.5t-63 -74.5t-45 -77t-17 -68q0 -26 19.5 -37.5t76.5 -11.5q22 0 49.5 1.5t54.5 4.5q14 1 13 -12l-6 -49q-1 -13 -15 -17q-47 -11 -127 -11q-48 0 -80 7.5t-51.5 22t-27.5 34.5t-8 45q0 39 17.5 82.5t45.5 84.5t62 77t67 59h-652q-14 0 -11 14
l266 1447q3 14 17 14h822q13 0 12 -14l-16 -85q-1 -14 -16 -14h-722l-93 -502h626q14 0 11 -14l-15 -84q-3 -14 -17 -14h-626l-116 -636h721q14 0 11 -14l-16 -84q-3 -14 -17 -14h-63z" />
    <glyph glyph-name="Gbreve" unicode="&#x11e;" horiz-adv-x="1272" 
d="M1139 767q14 0 11 -14l-131 -712q-3 -14 -16 -18q-105 -28 -201.5 -36.5t-187.5 -8.5q-144 0 -246.5 34.5t-161 115.5t-71.5 213.5t24 328.5l23 135q37 199 99 332t151.5 213t208.5 113.5t270 33.5q90 0 174.5 -8.5t140.5 -24.5q13 -4 8 -17l-27 -75q-5 -13 -19 -10
q-65 12 -142 17.5t-151 5.5q-120 0 -216.5 -27t-170 -92.5t-124.5 -175.5t-82 -275l-27 -155q-31 -166 -22.5 -275.5t55 -175t128.5 -92.5t198 -27q88 0 157 6t128 17l100 544l-318 4q-14 0 -11 14l14 78q3 14 17 14h418zM880 1586q-118 0 -174.5 56t-48.5 157q0 14 15 14
h62q14 0 13 -14q0 -39 12 -64t31.5 -40t45 -21t52.5 -6q30 0 58 6.5t53 21.5t45 40.5t33 63.5q4 13 18 13h69q14 0 10 -13q-17 -54 -40.5 -94t-58 -66.5t-82.5 -40t-113 -13.5z" />
    <glyph glyph-name="Gcommaaccent" unicode="&#x122;" horiz-adv-x="1272" 
d="M408 -434q-14 0 -8 13l125 274q4 8 8 11t12 4l107 19q15 2 7 -10l-151 -299q-7 -12 -21 -12h-79zM1139 767q14 0 11 -14l-131 -712q-3 -14 -16 -18q-105 -28 -201.5 -36.5t-187.5 -8.5q-144 0 -246.5 34.5t-161 115.5t-71.5 213.5t24 328.5l23 135q37 199 99 332
t151.5 213t208.5 113.5t270 33.5q90 0 174.5 -8.5t140.5 -24.5q13 -4 8 -17l-27 -75q-5 -13 -19 -10q-65 12 -142 17.5t-151 5.5q-120 0 -216.5 -27t-170 -92.5t-124.5 -175.5t-82 -275l-27 -155q-31 -166 -22.5 -275.5t55 -175t128.5 -92.5t198 -27q88 0 157 6t128 17
l100 544l-318 4q-14 0 -11 14l14 78q3 14 17 14h418z" />
    <glyph glyph-name="Iacute" unicode="&#xcd;" horiz-adv-x="545" 
d="M113 0q-14 0 -11 14l266 1447q3 14 17 14h86q14 0 11 -14l-266 -1447q-3 -14 -17 -14h-86zM270 1606q-14 0 -3 9l227 186q10 9 25 9h142q6 0 7 -2.5t-4 -5.5l-262 -188q-11 -8 -25 -8h-107z" />
    <glyph glyph-name="Ibreve" unicode="&#x12c;" horiz-adv-x="546" 
d="M114 0q-14 0 -11 14l266 1447q3 14 17 14h86q14 0 11 -14l-266 -1447q-3 -14 -17 -14h-86zM447 1586q-118 0 -174.5 56t-48.5 157q0 14 15 14h62q14 0 13 -14q0 -39 12 -64t31.5 -40t45 -21t52.5 -6q30 0 58 6.5t53 21.5t45 40.5t33 63.5q4 13 18 13h69q14 0 10 -13
q-17 -54 -40.5 -94t-58 -66.5t-82.5 -40t-113 -13.5z" />
    <glyph glyph-name="Icircumflex" unicode="&#xce;" horiz-adv-x="545" 
d="M113 0q-14 0 -11 14l266 1447q3 14 17 14h86q14 0 11 -14l-266 -1447q-3 -14 -17 -14h-86zM740 1616q10 -10 -4 -10h-95q-8 0 -13 2.5t-10 7.5l-110 122h-20l-159 -123q-10 -9 -25 -9h-115q-6 0 -7 2.5t4 5.5l253 188q11 8 25 8h83q8 0 13 -2.5t11 -7.5z" />
    <glyph glyph-name="Idieresis" unicode="&#xcf;" horiz-adv-x="545" 
d="M113 0q-14 0 -11 14l266 1447q3 14 17 14h86q14 0 11 -14l-266 -1447q-3 -14 -17 -14h-86zM263 1606q-14 0 -11 14l35 194q3 14 17 17l94 18q14 3 11 -11l-40 -218q-3 -14 -17 -14h-89zM555 1606q-13 0 -12 14l36 194q1 14 16 17l94 18q14 3 11 -11l-39 -218
q-3 -14 -17 -14h-89z" />
    <glyph glyph-name="Idotaccent" unicode="&#x130;" horiz-adv-x="545" 
d="M113 0q-14 0 -11 14l266 1447q3 14 17 14h86q14 0 11 -14l-266 -1447q-3 -14 -17 -14h-86zM406 1606q-13 0 -12 14l36 194q1 14 16 17l98 18q14 3 11 -11l-39 -218q-3 -14 -17 -14h-93z" />
    <glyph glyph-name="Igrave" unicode="&#xcc;" horiz-adv-x="545" 
d="M113 0q-14 0 -11 14l266 1447q3 14 17 14h86q14 0 11 -14l-266 -1447q-3 -14 -17 -14h-86zM517 1606q-9 0 -13.5 2t-9.5 7l-198 183q-5 5 -3.5 8.5t9.5 3.5h131q8 0 12.5 -1.5t9.5 -7.5l164 -183q10 -12 -6 -12h-96z" />
    <glyph glyph-name="Imacron" unicode="&#x12a;" horiz-adv-x="545" 
d="M273 1653q-14 0 -11 14l12 65q3 14 17 14h354q14 0 11 -14l-12 -65q-3 -14 -17 -14h-354zM113 0q-14 0 -11 14l266 1447q3 14 17 14h86q14 0 11 -14l-266 -1447q-3 -14 -17 -14h-86z" />
    <glyph glyph-name="Iogonek" unicode="&#x12e;" horiz-adv-x="546" 
d="M92 -329q23 0 50.5 1.5t53.5 4.5q14 1 13 -12l-5 -49q-1 -13 -15 -17q-47 -11 -127 -11q-47 0 -79 7.5t-51 22t-27 34.5t-8 46q0 41 17.5 85t46.5 86t66 79t76 65l266 1448q3 14 17 14h86q14 0 11 -14l-265 -1443q-2 -9 -7.5 -15t-12.5 -10q-38 -24 -74.5 -57.5
t-64.5 -70.5t-45 -74.5t-17 -69.5q0 -27 19.5 -38.5t75.5 -11.5z" />
    <glyph glyph-name="IJ" unicode="&#x132;" horiz-adv-x="1069" 
d="M113 0q-14 0 -11 14l266 1447q3 14 17 14h86q14 0 11 -14l-266 -1447q-3 -14 -17 -14h-86zM448 -268q-26 0 -56.5 4t-53.5 10q-14 4 -9 17l28 77q5 13 18 10q20 -5 41 -6t41 -1q31 0 57.5 5t47.5 22t36.5 49t25.5 87l269 1455q3 14 17 14h85q14 0 11 -14l-269 -1461
q-15 -80 -40 -132t-61 -82t-83 -42t-105 -12z" />
    <glyph glyph-name="Kcommaaccent" unicode="&#x136;" horiz-adv-x="1159" 
d="M302 -434q-14 0 -8 13l125 274q4 8 8 11t12 4l107 19q15 2 7 -10l-151 -299q-7 -12 -21 -12h-79zM905 0q-14 0 -21 12l-433 744l-120 -102l-117 -640q-3 -14 -17 -14h-86q-14 0 -11 14l267 1447q3 14 17 14h85q14 0 11 -14l-118 -641l755 646q10 9 25 9h143q6 0 7 -2.5
t-4 -6.5l-745 -633l485 -821q7 -12 -7 -12h-116z" />
    <glyph glyph-name="Lacute" unicode="&#x139;" horiz-adv-x="1023" 
d="M433 1606q-14 0 -3 9l227 186q10 9 25 9h142q6 0 7 -2.5t-4 -5.5l-262 -188q-11 -8 -25 -8h-107zM113 0q-14 0 -11 14l266 1447q3 14 17 14h86q14 0 11 -14l-248 -1352h664q14 0 11 -14l-16 -81q-3 -14 -17 -14h-763z" />
    <glyph glyph-name="Lcaron" unicode="&#x13d;" horiz-adv-x="1025" 
d="M585 1155q-14 0 -11 14l67 359q3 14 17 17l92 18q14 3 11 -11l-93 -383q-3 -14 -17 -14h-66zM113 0q-14 0 -11 14l266 1447q3 14 17 14h86q14 0 11 -14l-248 -1352h664q14 0 11 -14l-16 -81q-3 -14 -17 -14h-763z" />
    <glyph glyph-name="Lslash" unicode="&#x141;" horiz-adv-x="1033" 
d="M122 0q-14 0 -11 14l105 574l-178 -105q-12 -7 -10 7l18 99q1 14 14 21l180 106l137 745q3 14 17 14h86q14 0 11 -14l-123 -670l427 252q12 7 10 -7l-18 -100q-1 -14 -14 -21l-429 -252l-101 -554h664q14 0 11 -14l-16 -81q-3 -14 -17 -14h-763z" />
    <glyph glyph-name="Lcommaaccent" unicode="&#x13b;" horiz-adv-x="1022" 
d="M281 -434q-14 0 -8 13l125 274q4 8 8 11t12 4l107 19q15 2 7 -10l-151 -299q-7 -12 -21 -12h-79zM113 0q-14 0 -11 14l266 1447q3 14 17 14h86q14 0 11 -14l-248 -1352h664q14 0 11 -14l-16 -81q-3 -14 -17 -14h-763z" />
    <glyph glyph-name="Nacute" unicode="&#x143;" horiz-adv-x="1430" 
d="M802 1606q-14 0 -3 9l227 186q10 9 25 9h142q6 0 7 -2.5t-4 -5.5l-262 -188q-11 -8 -25 -8h-107zM113 0q-14 0 -11 14l266 1447q3 14 17 14h97q14 0 19 -13l465 -1151q23 -55 35 -86.5t14 -31.5l235 1268q3 14 17 14h85q14 0 11 -14l-266 -1447q-3 -14 -17 -14h-102
q-14 0 -19 13l-457 1143q-23 54 -36.5 89.5t-14.5 35.5l-235 -1267q-3 -14 -17 -14h-86z" />
    <glyph glyph-name="Ncaron" unicode="&#x147;" horiz-adv-x="1430" 
d="M113 0q-14 0 -11 14l266 1447q3 14 17 14h97q14 0 19 -13l465 -1151q23 -55 35 -86.5t14 -31.5l235 1268q3 14 17 14h85q14 0 11 -14l-266 -1447q-3 -14 -17 -14h-102q-14 0 -19 13l-457 1143q-23 54 -36.5 89.5t-14.5 35.5l-235 -1267q-3 -14 -17 -14h-86zM665 1800
q-10 10 4 10h95q8 0 13 -2.5t10 -7.5l110 -122h20l159 123q10 9 25 9h115q6 0 7 -2.5t-4 -5.5l-253 -188q-11 -8 -25 -8h-83q-8 0 -13 2.5t-11 7.5z" />
    <glyph glyph-name="Ntilde" unicode="&#xd1;" horiz-adv-x="1430" 
d="M589 1606q-15 0 -12 14q11 73 34 116.5t51 65.5t57.5 28.5t53.5 6.5q27 0 48 -5t39 -14.5t36 -23.5t39 -33q25 -23 42 -37.5t30.5 -22.5t25 -11t26.5 -3q19 0 35.5 5t30 19t24 39t16.5 66q3 14 16 14h65q15 0 12 -14q-12 -74 -35 -117.5t-51.5 -65.5t-58 -28t-54.5 -6
q-27 0 -47 4.5t-38 13.5t-35.5 23t-38.5 34q-24 23 -41 37.5t-30.5 23t-26 11.5t-26.5 3q-19 0 -35.5 -5t-30 -19t-24 -39.5t-16.5 -65.5q-3 -14 -16 -14h-65zM113 0q-14 0 -11 14l266 1447q3 14 17 14h97q14 0 19 -13l465 -1151q23 -55 35 -86.5t14 -31.5l235 1268
q3 14 17 14h85q14 0 11 -14l-266 -1447q-3 -14 -17 -14h-102q-14 0 -19 13l-457 1143q-23 54 -36.5 89.5t-14.5 35.5l-235 -1267q-3 -14 -17 -14h-86z" />
    <glyph glyph-name="Ncommaaccent" unicode="&#x145;" horiz-adv-x="1430" 
d="M407 -434q-14 0 -8 13l125 274q4 8 8 11t12 4l107 19q15 2 7 -10l-151 -299q-7 -12 -21 -12h-79zM113 0q-14 0 -11 14l266 1447q3 14 17 14h97q14 0 19 -13l465 -1151q23 -55 35 -86.5t14 -31.5l235 1268q3 14 17 14h85q14 0 11 -14l-266 -1447q-3 -14 -17 -14h-102
q-14 0 -19 13l-457 1143q-23 54 -36.5 89.5t-14.5 35.5l-235 -1267q-3 -14 -17 -14h-86z" />
    <glyph glyph-name="Oacute" unicode="&#xd3;" horiz-adv-x="1432" 
d="M753 1606q-14 0 -3 9l227 186q10 9 25 9h142q6 0 7 -2.5t-4 -5.5l-262 -188q-11 -8 -25 -8h-107zM596 -22q-135 0 -232.5 35t-153.5 116t-69 213.5t20 327.5l23 135q36 205 97.5 338.5t148.5 212t198.5 110t248.5 31.5q136 0 233 -34.5t152.5 -115.5t68 -213.5
t-20.5 -328.5l-23 -135q-35 -203 -95.5 -336t-147.5 -212.5t-199 -111.5t-249 -32zM855 1380q-108 0 -196 -26.5t-156.5 -91.5t-118 -173.5t-80.5 -273.5l-28 -155q-30 -167 -21 -276t53 -173.5t122.5 -90.5t186.5 -26q105 0 193 27.5t157.5 93t119.5 174.5t80 273l28 153
q30 165 21.5 274t-53 173.5t-122.5 91t-186 26.5z" />
    <glyph glyph-name="Ocircumflex" unicode="&#xd4;" horiz-adv-x="1432" 
d="M1173 1616q10 -10 -4 -10h-95q-8 0 -13 2.5t-10 7.5l-110 122h-20l-159 -123q-10 -9 -25 -9h-115q-6 0 -7 2.5t4 5.5l253 188q11 8 25 8h83q8 0 13 -2.5t11 -7.5zM596 -22q-135 0 -232.5 35t-153.5 116t-69 213.5t20 327.5l23 135q36 205 97.5 338.5t148.5 212t198.5 110
t248.5 31.5q136 0 233 -34.5t152.5 -115.5t68 -213.5t-20.5 -328.5l-23 -135q-35 -203 -95.5 -336t-147.5 -212.5t-199 -111.5t-249 -32zM855 1380q-108 0 -196 -26.5t-156.5 -91.5t-118 -173.5t-80.5 -273.5l-28 -155q-30 -167 -21 -276t53 -173.5t122.5 -90.5t186.5 -26
q105 0 193 27.5t157.5 93t119.5 174.5t80 273l28 153q30 165 21.5 274t-53 173.5t-122.5 91t-186 26.5z" />
    <glyph glyph-name="Odieresis" unicode="&#xd6;" horiz-adv-x="1432" 
d="M596 -22q-135 0 -232.5 35t-153.5 116t-69 213.5t20 327.5l23 135q36 205 97.5 338.5t148.5 212t198.5 110t248.5 31.5q136 0 233 -34.5t152.5 -115.5t68 -213.5t-20.5 -328.5l-23 -135q-35 -203 -95.5 -336t-147.5 -212.5t-199 -111.5t-249 -32zM855 1380
q-108 0 -196 -26.5t-156.5 -91.5t-118 -173.5t-80.5 -273.5l-28 -155q-30 -167 -21 -276t53 -173.5t122.5 -90.5t186.5 -26q105 0 193 27.5t157.5 93t119.5 174.5t80 273l28 153q30 165 21.5 274t-53 173.5t-122.5 91t-186 26.5zM705 1606q-14 0 -11 14l35 194q3 14 17 17
l94 18q14 3 11 -11l-40 -218q-3 -14 -17 -14h-89zM997 1606q-13 0 -12 14l36 194q1 14 16 17l94 18q14 3 11 -11l-39 -218q-3 -14 -17 -14h-89z" />
    <glyph glyph-name="Ograve" unicode="&#xd2;" horiz-adv-x="1432" 
d="M908 1606q-9 0 -13.5 2t-9.5 7l-198 183q-5 5 -3.5 8.5t9.5 3.5h131q8 0 12.5 -1.5t9.5 -7.5l164 -183q10 -12 -6 -12h-96zM596 -22q-135 0 -232.5 35t-153.5 116t-69 213.5t20 327.5l23 135q36 205 97.5 338.5t148.5 212t198.5 110t248.5 31.5q136 0 233 -34.5
t152.5 -115.5t68 -213.5t-20.5 -328.5l-23 -135q-35 -203 -95.5 -336t-147.5 -212.5t-199 -111.5t-249 -32zM855 1380q-108 0 -196 -26.5t-156.5 -91.5t-118 -173.5t-80.5 -273.5l-28 -155q-30 -167 -21 -276t53 -173.5t122.5 -90.5t186.5 -26q105 0 193 27.5t157.5 93
t119.5 174.5t80 273l28 153q30 165 21.5 274t-53 173.5t-122.5 91t-186 26.5z" />
    <glyph glyph-name="Ohungarumlaut" unicode="&#x150;" horiz-adv-x="1432" 
d="M628 1606q-14 0 -4 10l187 184q9 10 24 10h136q14 0 3 -9l-227 -186q-10 -9 -25 -9h-94zM937 1606q-14 0 -4 10l187 184q9 10 24 10h135q14 0 3 -9l-227 -186q-10 -9 -25 -9h-93zM596 -22q-135 0 -232.5 35t-153.5 116t-69 213.5t20 327.5l23 135q36 205 97.5 338.5
t148.5 212t198.5 110t248.5 31.5q136 0 233 -34.5t152.5 -115.5t68 -213.5t-20.5 -328.5l-23 -135q-35 -203 -95.5 -336t-147.5 -212.5t-199 -111.5t-249 -32zM855 1380q-108 0 -196 -26.5t-156.5 -91.5t-118 -173.5t-80.5 -273.5l-28 -155q-30 -167 -21 -276t53 -173.5
t122.5 -90.5t186.5 -26q105 0 193 27.5t157.5 93t119.5 174.5t80 273l28 153q30 165 21.5 274t-53 173.5t-122.5 91t-186 26.5z" />
    <glyph glyph-name="Omacron" unicode="&#x14c;" horiz-adv-x="1432" 
d="M596 -22q-135 0 -232.5 35t-153.5 116t-69 213.5t20 327.5l23 135q36 205 97.5 338.5t148.5 212t198.5 110t248.5 31.5q136 0 233 -34.5t152.5 -115.5t68 -213.5t-20.5 -328.5l-23 -135q-35 -203 -95.5 -336t-147.5 -212.5t-199 -111.5t-249 -32zM855 1380
q-108 0 -196 -26.5t-156.5 -91.5t-118 -173.5t-80.5 -273.5l-28 -155q-30 -167 -21 -276t53 -173.5t122.5 -90.5t186.5 -26q105 0 193 27.5t157.5 93t119.5 174.5t80 273l28 153q30 165 21.5 274t-53 173.5t-122.5 91t-186 26.5zM670 1647q-14 0 -11 14l12 66q3 14 17 14
h470q13 0 12 -14l-13 -66q-1 -14 -16 -14h-471z" />
    <glyph glyph-name="Otilde" unicode="&#xd5;" horiz-adv-x="1432" 
d="M596 -22q-135 0 -232.5 35t-153.5 116t-69 213.5t20 327.5l23 135q36 205 97.5 338.5t148.5 212t198.5 110t248.5 31.5q136 0 233 -34.5t152.5 -115.5t68 -213.5t-20.5 -328.5l-23 -135q-35 -203 -95.5 -336t-147.5 -212.5t-199 -111.5t-249 -32zM855 1380
q-108 0 -196 -26.5t-156.5 -91.5t-118 -173.5t-80.5 -273.5l-28 -155q-30 -167 -21 -276t53 -173.5t122.5 -90.5t186.5 -26q105 0 193 27.5t157.5 93t119.5 174.5t80 273l28 153q30 165 21.5 274t-53 173.5t-122.5 91t-186 26.5zM589 1606q-15 0 -12 14q11 73 34 116.5
t51 65.5t57.5 28.5t53.5 6.5q27 0 48 -5t39 -14.5t36 -23.5t39 -33q25 -23 42 -37.5t30.5 -22.5t25 -11t26.5 -3q19 0 35.5 5t30 19t24 39t16.5 66q3 14 16 14h65q15 0 12 -14q-12 -74 -35 -117.5t-51.5 -65.5t-58 -28t-54.5 -6q-27 0 -47 4.5t-38 13.5t-35.5 23t-38.5 34
q-24 23 -41 37.5t-30.5 23t-26 11.5t-26.5 3q-19 0 -35.5 -5t-30 -19t-24 -39.5t-16.5 -65.5q-3 -14 -16 -14h-65z" />
    <glyph glyph-name="Oslash" unicode="&#xd8;" horiz-adv-x="1387" 
d="M164 210q-29 82 -29 197t29 272l22 126q36 197 96.5 329.5t144.5 213t191 115t236 34.5q119 0 207 -29.5t143 -95.5l84 93q5 5 10 7.5t13 2.5h113q13 0 5 -10l-170 -190q30 -82 31.5 -200t-28.5 -279l-23 -126q-36 -198 -96 -330.5t-143 -213t-189.5 -114.5t-236.5 -34
q-122 0 -212.5 30.5t-145.5 102.5l-91 -101q-5 -5 -10 -7.5t-13 -2.5h-112q-13 0 -5 10zM1150 815q21 115 23.5 202t-11.5 151l-859 -959q42 -63 115.5 -89t176.5 -26q102 0 185 26.5t148.5 91.5t113.5 174.5t79 275.5zM833 1380q-102 0 -185.5 -26.5t-149.5 -91.5
t-114 -173.5t-79 -273.5l-29 -155q-21 -111 -24.5 -195t9.5 -147l856 956q-43 58 -114 82t-170 24z" />
    <glyph glyph-name="OE" unicode="&#x152;" horiz-adv-x="2092" 
d="M596 -22q-135 0 -232.5 35t-153.5 116t-69 213.5t20 327.5l23 135q36 205 97.5 338.5t148.5 212t198.5 110t248.5 31.5q110 0 192 -22h1045q14 0 11 -14l-14 -82q-3 -14 -17 -14h-845q59 -74 77 -197.5t-8 -307.5h587q14 0 11 -14l-15 -82q-3 -14 -17 -14h-584l-13 -80
q-36 -211 -100.5 -347t-156.5 -214h832q14 0 11 -14l-15 -81q-3 -14 -17 -14h-1034q-95 -22 -211 -22zM855 1380q-108 0 -196 -26.5t-156.5 -91.5t-118 -173.5t-80.5 -273.5l-28 -155q-30 -167 -21 -276t53 -173.5t122.5 -90.5t186.5 -26q105 0 193 27.5t157.5 93
t119.5 174.5t80 273l28 153q30 165 21.5 274t-53 173.5t-122.5 91t-186 26.5z" />
    <glyph glyph-name="Racute" unicode="&#x154;" horiz-adv-x="1349" 
d="M1014 0q-14 0 -20 13l-245 555q-38 -2 -79 -2h-86q-65 0 -126 1t-139 6l-103 -559q-3 -14 -17 -14h-86q-14 0 -11 14l267 1446q2 14 17 15q97 8 186 9.5t179 1.5q162 0 274 -14.5t177.5 -59t85.5 -126.5t-3 -216l-16 -91q-19 -108 -53.5 -180.5t-84.5 -118.5
t-116.5 -69.5t-149.5 -33.5q6 -11 10.5 -21.5t9.5 -19.5l242 -523q6 -13 -8 -13h-105zM735 1379h-73t-76 -1t-68.5 -2.5t-50.5 -4.5l-127 -691q31 -3 68 -4.5t73 -2.5t68 -1h55q90 0 162 3.5t129 15t100 33.5t74.5 58.5t53 89.5t35.5 128l11 59q21 114 5 178.5t-70.5 96
t-146.5 38.5t-222 7zM704 1606q-14 0 -3 9l227 186q10 9 25 9h142q6 0 7 -2.5t-4 -5.5l-262 -188q-11 -8 -25 -8h-107z" />
    <glyph glyph-name="Rcaron" unicode="&#x158;" horiz-adv-x="1349" 
d="M1014 0q-14 0 -20 13l-245 555q-38 -2 -79 -2h-86q-65 0 -126 1t-139 6l-103 -559q-3 -14 -17 -14h-86q-14 0 -11 14l267 1446q2 14 17 15q97 8 186 9.5t179 1.5q162 0 274 -14.5t177.5 -59t85.5 -126.5t-3 -216l-16 -91q-19 -108 -53.5 -180.5t-84.5 -118.5
t-116.5 -69.5t-149.5 -33.5q6 -11 10.5 -21.5t9.5 -19.5l242 -523q6 -13 -8 -13h-105zM735 1379h-73t-76 -1t-68.5 -2.5t-50.5 -4.5l-127 -691q31 -3 68 -4.5t73 -2.5t68 -1h55q90 0 162 3.5t129 15t100 33.5t74.5 58.5t53 89.5t35.5 128l11 59q21 114 5 178.5t-70.5 96
t-146.5 38.5t-222 7zM586 1800q-10 10 4 10h95q8 0 13 -2.5t10 -7.5l110 -122h20l159 123q10 9 25 9h115q6 0 7 -2.5t-4 -5.5l-253 -188q-11 -8 -25 -8h-83q-8 0 -13 2.5t-11 7.5z" />
    <glyph glyph-name="Rcommaaccent" unicode="&#x156;" horiz-adv-x="1346" 
d="M365 -434q-14 0 -8 13l125 274q4 8 8 11t12 4l107 19q15 2 7 -10l-151 -299q-7 -12 -21 -12h-79zM1014 0q-14 0 -20 13l-245 555q-38 -2 -79 -2h-86q-65 0 -126 1t-139 6l-103 -559q-3 -14 -17 -14h-86q-14 0 -11 14l267 1446q2 14 17 15q97 8 186 9.5t179 1.5
q162 0 274 -14.5t177.5 -59t85.5 -126.5t-3 -216l-16 -91q-19 -108 -53.5 -180.5t-84.5 -118.5t-116.5 -69.5t-149.5 -33.5q6 -11 10.5 -21.5t9.5 -19.5l242 -523q6 -13 -8 -13h-105zM735 1379h-73t-76 -1t-68.5 -2.5t-50.5 -4.5l-127 -691q31 -3 68 -4.5t73 -2.5t68 -1h55
q90 0 162 3.5t129 15t100 33.5t74.5 58.5t53 89.5t35.5 128l11 59q21 114 5 178.5t-70.5 96t-146.5 38.5t-222 7z" />
    <glyph glyph-name="Sacute" unicode="&#x15a;" horiz-adv-x="1165" 
d="M383 -22q-47 0 -94.5 2.5t-93.5 6.5t-87 10t-74 14q-14 3 -8 16l36 76q4 8 8 10t12 1q93 -15 168.5 -20.5t149.5 -5.5q149 0 246 21t154 65t80 112t23 163q0 48 -15.5 81.5t-50.5 61t-91.5 54.5t-137.5 61l-123 53q-71 30 -123.5 62t-87.5 69.5t-52 83.5t-17 105
q0 112 29.5 191t100.5 129.5t189.5 73.5t296.5 23q88 0 171 -7.5t143 -21.5q15 -3 9 -16l-32 -75q-6 -13 -20 -10q-29 5 -64.5 9t-74 6.5t-77 3.5t-71.5 1q-146 0 -239 -16t-147 -51t-74.5 -91t-20.5 -136q0 -52 18 -88t53.5 -63.5t87.5 -51.5t120 -51l145 -59
q78 -32 130.5 -64t84 -69t45 -80.5t13.5 -97.5q0 -135 -33 -228.5t-108 -152t-197 -84.5t-300 -26zM679 1606q-14 0 -3 9l227 186q10 9 25 9h142q6 0 7 -2.5t-4 -5.5l-262 -188q-11 -8 -25 -8h-107z" />
    <glyph glyph-name="Scaron" unicode="&#x160;" horiz-adv-x="1165" 
d="M383 -22q-47 0 -94.5 2.5t-93.5 6.5t-87 10t-74 14q-14 3 -8 16l36 76q4 8 8 10t12 1q93 -15 168.5 -20.5t149.5 -5.5q149 0 246 21t154 65t80 112t23 163q0 48 -15.5 81.5t-50.5 61t-91.5 54.5t-137.5 61l-123 53q-71 30 -123.5 62t-87.5 69.5t-52 83.5t-17 105
q0 112 29.5 191t100.5 129.5t189.5 73.5t296.5 23q88 0 171 -7.5t143 -21.5q15 -3 9 -16l-32 -75q-6 -13 -20 -10q-29 5 -64.5 9t-74 6.5t-77 3.5t-71.5 1q-146 0 -239 -16t-147 -51t-74.5 -91t-20.5 -136q0 -52 18 -88t53.5 -63.5t87.5 -51.5t120 -51l145 -59
q78 -32 130.5 -64t84 -69t45 -80.5t13.5 -97.5q0 -135 -33 -228.5t-108 -152t-197 -84.5t-300 -26zM537 1800q-10 10 4 10h95q8 0 13 -2.5t10 -7.5l110 -122h20l159 123q10 9 25 9h115q6 0 7 -2.5t-4 -5.5l-253 -188q-11 -8 -25 -8h-83q-8 0 -13 2.5t-11 7.5z" />
    <glyph glyph-name="uni015E" unicode="&#x15e;" horiz-adv-x="1165" 
d="M383 -22q-47 0 -94.5 2.5t-93.5 6.5t-87 10t-74 14q-14 3 -8 16l36 76q4 8 8 10t12 1q93 -15 168.5 -20.5t149.5 -5.5q149 0 246 21t154 65t80 112t23 163q0 48 -15.5 81.5t-50.5 61t-91.5 54.5t-137.5 61l-123 53q-71 30 -123.5 62t-87.5 69.5t-52 83.5t-17 105
q0 112 29.5 191t100.5 129.5t189.5 73.5t296.5 23q88 0 171 -7.5t143 -21.5q15 -3 9 -16l-32 -75q-6 -13 -20 -10q-29 5 -64.5 9t-74 6.5t-77 3.5t-71.5 1q-146 0 -239 -16t-147 -51t-74.5 -91t-20.5 -136q0 -52 18 -88t53.5 -63.5t87.5 -51.5t120 -51l145 -59
q78 -32 130.5 -64t84 -69t45 -80.5t13.5 -97.5q0 -135 -33 -228.5t-108 -152t-197 -84.5t-300 -26zM252 -389q-14 0 -6 11l189 265q8 11 22 11h92q13 0 6 -12l-181 -263q-8 -12 -22 -12h-100z" />
    <glyph glyph-name="Tcaron" unicode="&#x164;" horiz-adv-x="1163" 
d="M415 0q-14 0 -11 14l250 1348h-486q-14 0 -11 14l15 85q3 14 17 14h1087q14 0 11 -14l-16 -85q-3 -14 -17 -14h-486l-249 -1348q-3 -14 -17 -14h-87zM524 1800q-10 10 4 10h95q8 0 13 -2.5t10 -7.5l110 -122h20l159 123q10 9 25 9h115q6 0 7 -2.5t-4 -5.5l-253 -188
q-11 -8 -25 -8h-83q-8 0 -13 2.5t-11 7.5z" />
    <glyph glyph-name="uni0162" unicode="&#x162;" horiz-adv-x="1163" 
d="M259 -434q-14 0 -8 13l125 274q4 8 8 11t12 4l107 19q15 2 7 -10l-151 -299q-7 -12 -21 -12h-79zM415 0q-14 0 -11 14l250 1348h-486q-14 0 -11 14l15 85q3 14 17 14h1087q14 0 11 -14l-16 -85q-3 -14 -17 -14h-486l-249 -1348q-3 -14 -17 -14h-87z" />
    <glyph glyph-name="uni0166" unicode="&#x166;" horiz-adv-x="1163" 
d="M416 0q-14 0 -11 14l128 694h-184q-14 0 -11 14l15 80q3 14 17 14h183l102 546h-486q-14 0 -11 14l15 85q3 14 17 14h1087q14 0 11 -14l-16 -85q-3 -14 -17 -14h-486l-101 -546h184q14 0 11 -14l-15 -80q-3 -14 -17 -14h-183l-128 -694q-3 -14 -17 -14h-87z" />
    <glyph glyph-name="Thorn" unicode="&#xde;" horiz-adv-x="1273" 
d="M113 0q-14 0 -11 14l230 1242l37 205q3 14 17 14h86q14 0 11 -14l-36 -198q59 2 116 4t92 2q164 0 281.5 -16.5t187 -64t91.5 -133.5t-4 -226l-14 -74q-17 -95 -44.5 -164.5t-68.5 -118.5t-96.5 -79.5t-129.5 -47.5t-168.5 -23t-211.5 -6q-21 0 -53.5 1t-64 2t-56.5 2
t-32 2l-56 -309q-1 -14 -16 -14h-87zM636 1162q-18 0 -46.5 -0.5t-59.5 -2t-59 -3t-44 -2.5l-135 -724q16 -2 43.5 -3t58.5 -2.5t59.5 -2t46.5 -0.5q148 0 250.5 13.5t170 51t106.5 104.5t59 174l10 53q19 107 6 174.5t-66.5 105t-151.5 51t-248 13.5z" />
    <glyph glyph-name="Uacute" unicode="&#xda;" horiz-adv-x="1445" 
d="M597 -22q-124 0 -215.5 30t-146.5 93.5t-72 162t9 234.5l179 963q3 14 17 14h86q14 0 11 -14l-173 -934q-21 -111 -16.5 -193t42 -136.5t111 -81.5t189.5 -27q118 0 203 26.5t143.5 81t94 137t56.5 193.5l174 934q3 14 17 14h83q14 0 11 -14l-179 -963
q-29 -154 -82 -254.5t-130.5 -159.5t-180.5 -82.5t-231 -23.5zM803 1606q-14 0 -3 9l227 186q10 9 25 9h142q6 0 7 -2.5t-4 -5.5l-262 -188q-11 -8 -25 -8h-107z" />
    <glyph glyph-name="Ucircumflex" unicode="&#xdb;" horiz-adv-x="1445" 
d="M1178 1616q10 -10 -4 -10h-95q-8 0 -13 2.5t-10 7.5l-110 122h-20l-159 -123q-10 -9 -25 -9h-115q-6 0 -7 2.5t4 5.5l253 188q11 8 25 8h83q8 0 13 -2.5t11 -7.5zM597 -22q-124 0 -215.5 30t-146.5 93.5t-72 162t9 234.5l179 963q3 14 17 14h86q14 0 11 -14l-173 -934
q-21 -111 -16.5 -193t42 -136.5t111 -81.5t189.5 -27q118 0 203 26.5t143.5 81t94 137t56.5 193.5l174 934q3 14 17 14h83q14 0 11 -14l-179 -963q-29 -154 -82 -254.5t-130.5 -159.5t-180.5 -82.5t-231 -23.5z" />
    <glyph glyph-name="Udieresis" unicode="&#xdc;" horiz-adv-x="1445" 
d="M597 -22q-124 0 -215.5 30t-146.5 93.5t-72 162t9 234.5l179 963q3 14 17 14h86q14 0 11 -14l-173 -934q-21 -111 -16.5 -193t42 -136.5t111 -81.5t189.5 -27q118 0 203 26.5t143.5 81t94 137t56.5 193.5l174 934q3 14 17 14h83q14 0 11 -14l-179 -963
q-29 -154 -82 -254.5t-130.5 -159.5t-180.5 -82.5t-231 -23.5zM710 1606q-14 0 -11 14l35 194q3 14 17 17l94 18q14 3 11 -11l-40 -218q-3 -14 -17 -14h-89zM1002 1606q-13 0 -12 14l36 194q1 14 16 17l94 18q14 3 11 -11l-39 -218q-3 -14 -17 -14h-89z" />
    <glyph glyph-name="Ugrave" unicode="&#xd9;" horiz-adv-x="1445" 
d="M926 1606q-9 0 -13.5 2t-9.5 7l-198 183q-5 5 -3.5 8.5t9.5 3.5h131q8 0 12.5 -1.5t9.5 -7.5l164 -183q10 -12 -6 -12h-96zM597 -22q-124 0 -215.5 30t-146.5 93.5t-72 162t9 234.5l179 963q3 14 17 14h86q14 0 11 -14l-173 -934q-21 -111 -16.5 -193t42 -136.5
t111 -81.5t189.5 -27q118 0 203 26.5t143.5 81t94 137t56.5 193.5l174 934q3 14 17 14h83q14 0 11 -14l-179 -963q-29 -154 -82 -254.5t-130.5 -159.5t-180.5 -82.5t-231 -23.5z" />
    <glyph glyph-name="Uhungarumlaut" unicode="&#x170;" horiz-adv-x="1445" 
d="M656 1606q-14 0 -4 10l187 184q9 10 24 10h136q14 0 3 -9l-227 -186q-10 -9 -25 -9h-94zM965 1606q-14 0 -4 10l187 184q9 10 24 10h135q14 0 3 -9l-227 -186q-10 -9 -25 -9h-93zM597 -22q-124 0 -215.5 30t-146.5 93.5t-72 162t9 234.5l179 963q3 14 17 14h86
q14 0 11 -14l-173 -934q-21 -111 -16.5 -193t42 -136.5t111 -81.5t189.5 -27q118 0 203 26.5t143.5 81t94 137t56.5 193.5l174 934q3 14 17 14h83q14 0 11 -14l-179 -963q-29 -154 -82 -254.5t-130.5 -159.5t-180.5 -82.5t-231 -23.5z" />
    <glyph glyph-name="Umacron" unicode="&#x16a;" horiz-adv-x="1445" 
d="M597 -22q-124 0 -215.5 30t-146.5 93.5t-72 162t9 234.5l179 963q3 14 17 14h86q14 0 11 -14l-173 -934q-21 -111 -16.5 -193t42 -136.5t111 -81.5t189.5 -27q118 0 203 26.5t143.5 81t94 137t56.5 193.5l174 934q3 14 17 14h83q14 0 11 -14l-179 -963
q-29 -154 -82 -254.5t-130.5 -159.5t-180.5 -82.5t-231 -23.5zM675 1647q-14 0 -11 14l12 66q3 14 17 14h470q13 0 12 -14l-13 -66q-1 -14 -16 -14h-471z" />
    <glyph glyph-name="Uring" unicode="&#x16e;" horiz-adv-x="1445" 
d="M935 1790q-48 0 -78 -24.5t-34 -57.5l-1 -8q-2 -16 1.5 -30.5t13 -26t26.5 -18t41 -6.5q48 0 78 25.5t35 60.5q4 35 -14 60t-68 25zM890 1543q-45 0 -76 12.5t-49.5 34t-24.5 51t-1 64.5l1 7q11 69 64.5 112t144.5 43q44 0 75.5 -12.5t50 -34.5t25 -52.5t0.5 -65.5
q-11 -72 -65 -115.5t-145 -43.5zM597 -22q-124 0 -215.5 30t-146.5 93.5t-72 162t9 234.5l179 963q3 14 17 14h86q14 0 11 -14l-173 -934q-21 -111 -16.5 -193t42 -136.5t111 -81.5t189.5 -27q118 0 203 26.5t143.5 81t94 137t56.5 193.5l174 934q3 14 17 14h83q14 0 11 -14
l-179 -963q-29 -154 -82 -254.5t-130.5 -159.5t-180.5 -82.5t-231 -23.5z" />
    <glyph glyph-name="Utilde" unicode="&#x168;" horiz-adv-x="1445" 
d="M597 -22q-124 0 -215.5 30t-146.5 93.5t-72 162t9 234.5l179 963q3 14 17 14h86q14 0 11 -14l-173 -934q-21 -111 -16.5 -193t42 -136.5t111 -81.5t189.5 -27q118 0 203 26.5t143.5 81t94 137t56.5 193.5l174 934q3 14 17 14h83q14 0 11 -14l-179 -963
q-29 -154 -82 -254.5t-130.5 -159.5t-180.5 -82.5t-231 -23.5zM594 1606q-15 0 -12 14q11 73 34 116.5t51 65.5t57.5 28.5t53.5 6.5q27 0 48 -5t39 -14.5t36 -23.5t39 -33q25 -23 42 -37.5t30.5 -22.5t25 -11t26.5 -3q19 0 35.5 5t30 19t24 39t16.5 66q3 14 16 14h65
q15 0 12 -14q-12 -74 -35 -117.5t-51.5 -65.5t-58 -28t-54.5 -6q-27 0 -47 4.5t-38 13.5t-35.5 23t-38.5 34q-24 23 -41 37.5t-30.5 23t-26 11.5t-26.5 3q-19 0 -35.5 -5t-30 -19t-24 -39.5t-16.5 -65.5q-3 -14 -16 -14h-65z" />
    <glyph glyph-name="Uogonek" unicode="&#x172;" horiz-adv-x="1446" 
d="M597 -22q-124 0 -215.5 30t-146.5 93.5t-72 162t9 234.5l179 963q3 14 17 14h86q14 0 11 -14l-173 -934q-21 -111 -16.5 -193t42 -136.5t111 -81.5t189.5 -27q118 0 203 26.5t143.5 81t94 137t56.5 193.5l174 934q3 14 17 14h83q14 0 11 -14l-179 -963
q-21 -110 -54 -192.5t-78.5 -141.5t-104 -96.5t-129.5 -58.5q-72 -33 -117.5 -72t-72 -78t-36.5 -75.5t-10 -63.5q0 -26 20 -37.5t77 -11.5q23 0 50.5 1.5t53.5 4.5q14 1 13 -12l-6 -49q-1 -13 -15 -17q-23 -5 -56 -8t-72 -3q-48 0 -79.5 7.5t-51 22t-27.5 34.5t-8 45
q0 33 8.5 70.5t26.5 75.5t46 73t67 64q-17 -1 -34.5 -1.5t-34.5 -0.5z" />
    <glyph glyph-name="uni01D3" unicode="&#x1d3;" horiz-adv-x="1445" 
d="M670 1914q-8 11 6 11h92q14 0 22 -12l103 -162h21l162 164q11 10 24 10h110q14 0 4 -10l-253 -235q-9 -10 -24 -10h-82q-14 0 -22 11zM597 -22q-124 0 -215.5 30t-146.5 93.5t-72 162t9 234.5l179 963q3 14 17 14h86q14 0 11 -14l-173 -934q-21 -111 -16.5 -193
t42 -136.5t111 -81.5t189.5 -27q118 0 203 26.5t143.5 81t94 137t56.5 193.5l174 934q3 14 17 14h83q14 0 11 -14l-179 -963q-29 -154 -82 -254.5t-130.5 -159.5t-180.5 -82.5t-231 -23.5z" />
    <glyph glyph-name="Yacute" unicode="&#xdd;" horiz-adv-x="1131" 
d="M401 0q-14 0 -11 14l91 501l-315 947q-4 13 10 13h92q14 0 18 -13l270 -810l571 812q8 11 22 11h104q14 0 6 -11l-664 -948l-92 -502q-3 -14 -17 -14h-85zM628 1606q-14 0 -3 9l227 186q10 9 25 9h142q6 0 7 -2.5t-4 -5.5l-262 -188q-11 -8 -25 -8h-107z" />
    <glyph glyph-name="Ydieresis" unicode="&#x178;" horiz-adv-x="1131" 
d="M401 0q-14 0 -11 14l91 501l-315 947q-4 13 10 13h92q14 0 18 -13l270 -810l571 812q8 11 22 11h104q14 0 6 -11l-664 -948l-92 -502q-3 -14 -17 -14h-85zM543 1606q-14 0 -11 14l35 194q3 14 17 17l94 18q14 3 11 -11l-40 -218q-3 -14 -17 -14h-89zM835 1606
q-13 0 -12 14l36 194q1 14 16 17l94 18q14 3 11 -11l-39 -218q-3 -14 -17 -14h-89z" />
    <glyph glyph-name="Zacute" unicode="&#x179;" horiz-adv-x="1154" 
d="M-15 0q-14 0 -11 14l15 78q2 8 4.5 13.5t7.5 11.5l1058 1249h-805q-13 0 -12 14l15 81q1 14 16 14h927q13 0 12 -14l-15 -78q-1 -8 -3.5 -13.5t-7.5 -11.5l-1057 -1250h822q14 0 11 -14l-15 -80q-3 -14 -17 -14h-945zM633 1606q-14 0 -3 9l227 186q10 9 25 9h142
q6 0 7 -2.5t-4 -5.5l-262 -188q-11 -8 -25 -8h-107z" />
    <glyph glyph-name="Zcaron" unicode="&#x17d;" horiz-adv-x="1154" 
d="M-15 0q-14 0 -11 14l15 78q2 8 4.5 13.5t7.5 11.5l1058 1249h-805q-13 0 -12 14l15 81q1 14 16 14h927q13 0 12 -14l-15 -78q-1 -8 -3.5 -13.5t-7.5 -11.5l-1057 -1250h822q14 0 11 -14l-15 -80q-3 -14 -17 -14h-945zM521 1800q-10 10 4 10h95q8 0 13 -2.5t10 -7.5
l110 -122h20l159 123q10 9 25 9h115q6 0 7 -2.5t-4 -5.5l-253 -188q-11 -8 -25 -8h-83q-8 0 -13 2.5t-11 7.5z" />
    <glyph glyph-name="Zdotaccent" unicode="&#x17b;" horiz-adv-x="1154" 
d="M706 1606q-13 0 -12 14l36 194q1 14 16 17l98 18q14 3 11 -11l-39 -218q-3 -14 -17 -14h-93zM-15 0q-14 0 -11 14l15 78q2 8 4.5 13.5t7.5 11.5l1058 1249h-805q-13 0 -12 14l15 81q1 14 16 14h927q13 0 12 -14l-15 -78q-1 -8 -3.5 -13.5t-7.5 -11.5l-1057 -1250h822
q14 0 11 -14l-15 -80q-3 -14 -17 -14h-945z" />
    <glyph glyph-name="a" unicode="a" horiz-adv-x="1167" 
d="M940 976q-52 6 -112 9.5t-135 3.5q-114 0 -190 -19.5t-126.5 -66.5t-81 -127.5t-54.5 -201.5l-14 -74q-23 -122 -22 -203t34 -129t103.5 -68t188.5 -20q67 0 132 3.5t111 8.5zM513 -22q-141 0 -230.5 26.5t-135.5 86t-52.5 154.5t19.5 232l21 116q19 99 43 175
t57.5 131.5t77 92.5t101.5 59t131.5 31.5t166.5 9.5q38 0 81.5 -1.5t88.5 -4t88.5 -6t82.5 -7.5q14 -3 11 -16l-193 -1043q-2 -14 -17 -15q-94 -10 -179 -15.5t-162 -5.5z" />
    <glyph glyph-name="b" unicode="b" horiz-adv-x="1166" 
d="M608 989q-27 0 -59.5 -1.5t-66 -4t-65.5 -6.5t-59 -9l-163 -871q57 -8 119 -12.5t127 -4.5q77 0 136 8.5t104.5 28t79 51.5t58.5 78.5t43 109t33 143.5l14 76q22 120 21.5 199.5t-33.5 127t-102.5 67.5t-186.5 20zM420 -22q-78 0 -162 6t-174 23q-14 3 -11 17l289 1564
q3 14 17 17l87 18q14 3 11 -11l-101 -544q56 9 124.5 16.5t133.5 7.5q138 0 225 -27.5t131.5 -87.5t49.5 -154.5t-20 -229.5l-21 -117q-18 -97 -42.5 -172t-58 -130.5t-78 -93t-102.5 -60t-132 -32.5t-166 -10z" />
    <glyph glyph-name="c" unicode="c" horiz-adv-x="960" 
d="M512 -22q-137 0 -226 24.5t-135.5 83t-54 157t19.5 247.5l15 92q17 95 40.5 169.5t57.5 131.5t79 96.5t104.5 64.5t135.5 36.5t172 11.5q65 0 123 -6t105 -14q15 -3 9 -16l-27 -71q-3 -8 -7 -10t-12 -1q-48 8 -103 11t-106 3q-115 0 -193 -20.5t-130.5 -69.5
t-84.5 -130.5t-54 -202.5l-12 -61q-23 -124 -21 -205.5t36.5 -130t105 -68t185.5 -19.5q57 0 114 4t105 12q14 3 13 -11l-2 -70q-1 -15 -15 -17q-24 -5 -53.5 -9t-60.5 -6.5t-63 -4t-60 -1.5z" />
    <glyph glyph-name="d" unicode="d" horiz-adv-x="1165" 
d="M693 989q-115 0 -191.5 -20t-127 -67.5t-81 -127.5t-52.5 -200l-15 -74q-23 -122 -22 -203t34 -129t103.5 -68t188.5 -20q62 0 124.5 4.5t119.5 12.5l163 868q-25 6 -56.5 10.5t-64 7.5t-64.5 4.5t-59 1.5zM512 -22q-141 0 -230.5 26t-135.5 85t-52.5 154.5t19.5 233.5
l21 116q27 144 68 239.5t108 153.5t164.5 82t236.5 24q63 0 127 -7.5t117 -18.5l96 522q3 14 17 17l88 18q14 3 11 -11l-294 -1588q-3 -15 -17 -16q-94 -15 -180.5 -22.5t-163.5 -7.5z" />
    <glyph glyph-name="e" unicode="e" horiz-adv-x="1145" 
d="M485 -22q-126 0 -209.5 28.5t-128 91.5t-51.5 163t19 243l13 78q24 132 66 228.5t108 159t158.5 92.5t217.5 30q100 0 172.5 -23t119 -67.5t68.5 -109t22 -148.5q0 -45 -5.5 -83t-13 -68.5t-15.5 -52t-13 -33.5q-5 -13 -19 -13l-773 -1q-20 -115 -17 -194t35.5 -128
t97.5 -70.5t169 -21.5q84 0 169.5 3.5t178.5 12.5q14 1 14 -13l-1 -68q0 -14 -14 -15q-87 -10 -176 -15.5t-192 -5.5zM935 595q18 102 14.5 176.5t-35 123t-93.5 72t-162 23.5q-97 0 -167 -23.5t-119.5 -72.5t-81 -124.5t-52.5 -180.5z" />
    <glyph glyph-name="f" unicode="f" horiz-adv-x="688" 
d="M115 979q-14 1 -11 15l11 63q3 14 17 14h206l24 127q22 119 47 201t68 132.5t111.5 72.5t176.5 22q48 0 93.5 -4t80.5 -9q15 -2 9 -15l-28 -72q-3 -8 -7 -10t-12 -1q-16 1 -35 2.5t-39 2t-38.5 1t-33.5 0.5q-68 0 -113.5 -12t-75 -39t-46.5 -70.5t-29 -105.5l-41 -223
h277q13 0 9 -13l-30 -76q-5 -13 -19 -13h-256l-207 -1122q-19 -102 -47 -165t-69 -97.5t-99 -46t-137 -11.5q-33 0 -72.5 3t-70.5 11q-13 4 -8 17l26 71q5 13 19 10q26 -5 58 -8t60 -3q56 0 94 9t63.5 33.5t42 67t29.5 109.5l207 1122z" />
    <glyph glyph-name="g" unicode="g" horiz-adv-x="1169" 
d="M293 -473q-27 0 -61 1t-70 3.5t-71 6.5t-63 9q-14 3 -10 16l24 70q4 13 18 10q52 -9 117 -12.5t128 -3.5q100 0 175 13.5t129 53t90 112t58 189.5q-21 -3 -50 -5.5t-61 -4.5t-65.5 -3.5t-64.5 -1.5q-144 0 -234 27.5t-135.5 87t-51.5 154t20 228.5l21 116q19 99 43 175
t57.5 131.5t77 92.5t101.5 59t131.5 31.5t166.5 9.5q38 0 81.5 -1.5t88.5 -4t88.5 -6t82.5 -7.5q14 -3 11 -16l-195 -1054q-28 -151 -75 -244t-116.5 -144.5t-165 -69.5t-220.5 -18zM694 989q-114 0 -190 -19.5t-126 -66.5t-81 -127.5t-55 -201.5l-14 -74q-23 -122 -22 -203
t34 -129t103.5 -68t188.5 -20q67 0 132 3.5t111 8.5l166 884q-52 6 -112 9.5t-135 3.5z" />
    <glyph glyph-name="h" unicode="h" horiz-adv-x="1199" 
d="M818 0q-14 0 -11 14l114 613q19 105 20.5 174t-21 109.5t-73 56.5t-135.5 16q-40 0 -86 -5.5t-93.5 -16.5t-95.5 -28t-91 -40l-162 -879q-3 -14 -17 -14h-83q-14 0 -11 14l291 1574q3 14 17 17l87 18q14 3 11 -11l-114 -619q45 24 95.5 42t102 31t101 19.5t93.5 6.5
q108 0 173 -25.5t95 -80t30 -140.5t-22 -207l-115 -625q-3 -14 -17 -14h-83z" />
    <glyph glyph-name="i" unicode="i" horiz-adv-x="478" 
d="M83 0q-14 0 -11 14l192 1043q3 14 17 14h83q14 0 11 -14l-193 -1043q-3 -14 -17 -14h-82zM310 1252q-14 0 -11 14l46 258q3 14 17 17l98 18q14 3 11 -11l-52 -282q-3 -14 -17 -14h-92z" />
    <glyph glyph-name="j" unicode="j" horiz-adv-x="478" 
d="M-200 -473q-33 0 -72.5 3t-70.5 11q-13 4 -8 17l26 71q5 13 19 10q26 -5 57.5 -8t60.5 -3q56 0 94.5 9.5t64 34t42 67t28.5 108.5l223 1210q3 14 17 14h83q14 0 11 -14l-223 -1210q-19 -99 -46.5 -161t-69 -97.5t-99.5 -48.5t-137 -13zM310 1252q-14 0 -11 14l46 258
q3 14 17 17l98 18q14 3 11 -11l-51 -282q-3 -14 -17 -14h-93z" />
    <glyph glyph-name="k" unicode="k" horiz-adv-x="1050" 
d="M782 0q-15 0 -20 12l-321 614l-166 -115l-91 -497q-3 -14 -17 -14h-83q-14 0 -11 14l291 1574q3 14 17 17l87 18q14 3 11 -11l-178 -963l595 414q11 8 25 8h148q6 0 6.5 -2.5t-4.5 -5.5l-536 -372l366 -679q7 -12 -7 -12h-112z" />
    <glyph glyph-name="l" unicode="l" horiz-adv-x="490" 
d="M89 0q-14 0 -11 14l291 1574q3 14 17 17l87 18q14 3 11 -11l-296 -1598q-3 -14 -17 -14h-82z" />
    <glyph glyph-name="m" unicode="m" horiz-adv-x="1731" 
d="M83 0q-14 0 -11 14l196 1062q3 14 17 14h60q14 0 14 -14l1 -83q70 44 156 71.5t171 27.5q89 0 148 -21.5t91 -70.5q94 45 187.5 68.5t175.5 23.5q100 0 165 -22.5t98.5 -71t37.5 -125t-16 -184.5l-124 -675q-3 -14 -17 -14h-82q-14 0 -11 14l118 641q19 103 18 167.5
t-25.5 100.5t-73.5 48.5t-125 12.5q-68 0 -140 -16t-154 -54q16 -94 -14 -254l-120 -646q-3 -14 -17 -14h-80q-14 0 -11 14l117 636q19 103 17.5 168t-24.5 102t-68 50.5t-114 13.5q-65 0 -143 -19.5t-156 -71.5l-163 -879q-3 -14 -17 -14h-82z" />
    <glyph glyph-name="n" unicode="n" horiz-adv-x="1198" 
d="M83 0q-14 0 -11 14l196 1062q3 14 17 14h60q14 0 14 -14l2 -85q45 24 96 43t102.5 31.5t102 19.5t94.5 7q108 0 173 -26t95 -81t29.5 -140.5t-22.5 -205.5l-114 -625q-3 -14 -17 -14h-83q-14 0 -11 14l113 613q19 105 20.5 174t-21 109.5t-72.5 56.5t-135 16
q-40 0 -86 -5.5t-93.5 -16.5t-95.5 -28t-91 -40l-163 -879q-3 -14 -17 -14h-82z" />
    <glyph glyph-name="o" unicode="o" horiz-adv-x="1181" 
d="M659 990q-99 0 -170 -24t-120.5 -75.5t-81 -131t-52.5 -190.5l-12 -69q-20 -111 -18.5 -190.5t31.5 -130.5t92 -75.5t162 -24.5q99 0 170 24t120.5 75.5t81 131.5t52.5 192l12 67q21 110 19 189.5t-32 131t-92 76t-162 24.5zM471 -22q-122 0 -202.5 30.5t-123.5 93.5
t-50.5 159.5t17.5 228.5l15 87q26 138 69.5 236t110 160t158 90.5t213.5 28.5q123 0 204 -30.5t124 -93.5t49.5 -160.5t-18.5 -230.5l-15 -87q-25 -138 -68.5 -235.5t-109.5 -159t-158 -89.5t-215 -28z" />
    <glyph glyph-name="p" unicode="p" horiz-adv-x="1166" 
d="M608 989q-63 0 -127.5 -4t-122.5 -12l-161 -870q25 -6 55 -10t61.5 -7t63.5 -4.5t60 -1.5q117 0 194.5 20t128.5 68t81.5 128.5t52.5 200.5l14 75q23 121 22 201.5t-34 128.5t-103 67.5t-185 19.5zM-2 -451q-14 0 -11 14l275 1484q3 15 17 16q95 17 182 23t165 6
q138 0 226.5 -25t134.5 -83.5t52.5 -154t-19.5 -236.5l-19 -113q-26 -143 -67 -239t-108 -154.5t-165.5 -83.5t-239.5 -25q-62 0 -127 7t-116 18l-80 -440q-3 -14 -17 -14h-83z" />
    <glyph glyph-name="q" unicode="q" horiz-adv-x="1166" 
d="M695 989q-116 0 -193 -19.5t-127.5 -67.5t-81 -128.5t-52.5 -201.5l-15 -75q-23 -120 -22 -200.5t34 -128.5t103 -68t187 -20q28 0 60 1.5t65 4.5t64.5 7t58.5 10l161 870q-55 8 -116.5 12t-125.5 4zM687 -451q-14 0 -11 14l82 440q-55 -11 -122.5 -18t-127.5 -7
q-142 0 -230.5 27t-132.5 87t-49.5 155t19.5 231l19 115q27 147 69 243.5t109.5 153.5t165.5 79.5t237 22.5q78 0 163.5 -6.5t172.5 -22.5q14 -1 11 -16l-275 -1484q-3 -14 -17 -14h-83z" />
    <glyph glyph-name="r" unicode="r" horiz-adv-x="710" 
d="M83 0q-14 0 -11 14l196 1062q3 14 17 14h60q14 0 14 -14l1 -69q34 21 73 37t80.5 26.5t84 16t81.5 5.5q20 0 36 -1t28 -3q14 -3 10 -16l-24 -84q-4 -13 -18 -12q-14 2 -27 2.5t-30 0.5q-77 0 -151 -15t-156 -58l-165 -892q-3 -14 -17 -14h-82z" />
    <glyph glyph-name="s" unicode="s" horiz-adv-x="977" 
d="M321 -22q-27 0 -65 1.5t-79 5t-82 9.5t-75 15q-13 4 -8 17l26 71q5 13 19 10q72 -17 138 -22t139 -5q118 0 190.5 11.5t112.5 38.5t54 70.5t14 107.5q0 31 -10 53.5t-33 42t-60 37.5t-92 41l-171 67q-46 19 -82 38.5t-61 44.5t-38 58t-13 79q0 89 23.5 150.5t79 100
t146.5 55.5t226 17q78 0 150.5 -6.5t123.5 -14.5q15 -2 9 -15l-28 -71q-3 -8 -7 -10t-12 -1q-50 7 -107 11t-139 4q-93 0 -159.5 -8t-110 -30t-64 -62t-20.5 -104q0 -26 8.5 -46.5t29.5 -38.5t57 -35.5t90 -38.5l144 -55q60 -23 104 -45.5t73 -49.5t43.5 -61.5t14.5 -82.5
q0 -98 -24.5 -165.5t-82 -109.5t-153.5 -60.5t-239 -18.5z" />
    <glyph glyph-name="t" unicode="t" horiz-adv-x="743" 
d="M354 -22q-58 0 -99 9.5t-64 39t-27 83.5t13 143l133 718l-208 11q-13 1 -12 15l11 60q1 14 16 14h211l37 199q3 14 17 17l88 18q14 3 11 -11l-43 -223h334q13 0 9 -13l-29 -74q-5 -13 -19 -13h-313l-132 -715q-11 -58 -10 -92.5t14 -53t38.5 -24t63.5 -5.5q35 0 75 4
t69 10q14 3 14 -11l-3 -67q0 -14 -14 -17q-35 -8 -84 -15t-97 -7z" />
    <glyph glyph-name="u" unicode="u" horiz-adv-x="1196" 
d="M495 -22q-134 0 -215.5 25t-121 79t-43 139t19.5 206l117 630q3 14 17 14h82q14 0 11 -14l-115 -626q-20 -106 -17 -174t33.5 -107t92 -53.5t158.5 -14.5q36 0 75.5 2.5t79 6.5t76 9.5t66.5 12.5l175 944q3 14 17 14h83q14 0 11 -14l-186 -1013q-3 -14 -17 -17
q-38 -9 -84 -18t-97.5 -15.5t-107 -11t-110.5 -4.5z" />
    <glyph glyph-name="v" unicode="v" horiz-adv-x="991" 
d="M309 0q-15 0 -16 14l-185 1043q-1 14 12 14h88q15 0 16 -14l163 -946l515 948q7 12 21 12h95q14 0 7 -12l-572 -1047q-7 -12 -21 -12h-123z" />
    <glyph glyph-name="w" unicode="w" horiz-adv-x="1637" 
d="M264 0q-14 0 -15 14l-100 1043q-1 14 13 14h87q14 0 15 -14l77 -863q0 -11 0.5 -26.5t1.5 -29.5t1.5 -23.5t1.5 -9.5q2 1 14 27.5t30 61.5l449 865q5 12 20 12h87q15 0 16 -14l125 -865q5 -33 7.5 -60t4.5 -27q1 0 5.5 10t10.5 24t12.5 28.5t12.5 25.5l394 865
q6 13 20 13h94q14 0 8 -13l-489 -1045q-4 -8 -8 -10.5t-12 -2.5h-114q-15 0 -16 14l-130 826q-3 13 -4.5 26.5t-3 24.5t-2 18t-1.5 7t-4 -7.5t-8.5 -18.5t-11.5 -24.5t-13 -25.5l-440 -828q-7 -12 -21 -12h-114z" />
    <glyph glyph-name="x" unicode="x" horiz-adv-x="1037" 
d="M751 0q-14 0 -21 12l-237 451l-405 -453q-5 -5 -10 -7.5t-13 -2.5h-112q-13 0 -5 10l484 531l-279 518q-8 12 7 12h95q15 0 20 -12l237 -453l406 455q5 5 10 7.5t13 2.5h112q13 0 5 -10l-486 -531l282 -518q7 -12 -7 -12h-96z" />
    <glyph glyph-name="y" unicode="y" horiz-adv-x="954" 
d="M-64 -473q-25 0 -56 3.5t-57 10.5q-13 4 -8 17l26 72q3 7 7 9.5t12 0.5q21 -5 46.5 -8t46.5 -3q40 0 71.5 4t60 17.5t55 38.5t55 66t62 101t75.5 144q-1 0 -6 2.5t-11.5 12t-13.5 28t-13 49.5l-180 965q-3 14 11 14h90q15 0 16 -14l144 -805q4 -23 7.5 -46t6.5 -41
t5.5 -29.5t3.5 -11.5l465 934q6 13 20 13h98q14 0 8 -12l-582 -1141q-44 -85 -80.5 -147t-70 -105.5t-66.5 -70.5t-70 -42t-80.5 -20.5t-97.5 -5.5z" />
    <glyph glyph-name="z" unicode="z" horiz-adv-x="989" 
d="M782 104q15 0 12 -13l-15 -80q-2 -11 -17 -11h-771q-13 0 -10 17l13 66q2 13 6.5 19t10.5 12l805 853h-647q-12 0 -9 14l16 78q3 12 16 12h776q8 0 9.5 -3t-0.5 -11l-14 -70q-2 -10 -6 -16t-10 -12l-805 -855h640z" />
    <glyph glyph-name="aacute" unicode="&#xe1;" horiz-adv-x="1167" 
d="M940 976q-52 6 -112 9.5t-135 3.5q-114 0 -190 -19.5t-126.5 -66.5t-81 -127.5t-54.5 -201.5l-14 -74q-23 -122 -22 -203t34 -129t103.5 -68t188.5 -20q67 0 132 3.5t111 8.5zM513 -22q-141 0 -230.5 26.5t-135.5 86t-52.5 154.5t19.5 232l21 116q19 99 43 175
t57.5 131.5t77 92.5t101.5 59t131.5 31.5t166.5 9.5q38 0 81.5 -1.5t88.5 -4t88.5 -6t82.5 -7.5q14 -3 11 -16l-193 -1043q-2 -14 -17 -15q-94 -10 -179 -15.5t-162 -5.5zM607 1262q-14 0 -4 10l234 239q11 10 24 10h134q6 0 7.5 -2.5t-3.5 -6.5l-268 -241q-9 -9 -24 -9
h-100z" />
    <glyph glyph-name="abreve" unicode="&#x103;" horiz-adv-x="1167" 
d="M940 976q-52 6 -112 9.5t-135 3.5q-114 0 -190 -19.5t-126.5 -66.5t-81 -127.5t-54.5 -201.5l-14 -74q-23 -122 -22 -203t34 -129t103.5 -68t188.5 -20q67 0 132 3.5t111 8.5zM513 -22q-141 0 -230.5 26.5t-135.5 86t-52.5 154.5t19.5 232l21 116q19 99 43 175
t57.5 131.5t77 92.5t101.5 59t131.5 31.5t166.5 9.5q38 0 81.5 -1.5t88.5 -4t88.5 -6t82.5 -7.5q14 -3 11 -16l-193 -1043q-2 -14 -17 -15q-94 -10 -179 -15.5t-162 -5.5zM722 1266q-61 0 -103.5 17t-68.5 48.5t-36.5 76t-7.5 99.5q1 14 15 14h68q13 0 13 -14q-3 -44 5 -73
t25 -46.5t41.5 -25t54.5 -7.5q31 0 59.5 7.5t54 25t46 47t35.5 73.5q4 13 18 13h70q14 0 11 -14q-13 -54 -35.5 -98t-58 -76t-86 -49.5t-120.5 -17.5z" />
    <glyph glyph-name="acircumflex" unicode="&#xe2;" horiz-adv-x="1167" 
d="M940 976q-52 6 -112 9.5t-135 3.5q-114 0 -190 -19.5t-126.5 -66.5t-81 -127.5t-54.5 -201.5l-14 -74q-23 -122 -22 -203t34 -129t103.5 -68t188.5 -20q67 0 132 3.5t111 8.5zM513 -22q-141 0 -230.5 26.5t-135.5 86t-52.5 154.5t19.5 232l21 116q19 99 43 175
t57.5 131.5t77 92.5t101.5 59t131.5 31.5t166.5 9.5q38 0 81.5 -1.5t88.5 -4t88.5 -6t82.5 -7.5q14 -3 11 -16l-193 -1043q-2 -14 -17 -15q-94 -10 -179 -15.5t-162 -5.5zM751 1440l-162 -164q-11 -10 -24 -10h-110q-14 0 -4 10l253 235q11 10 24 10h82q14 0 22 -11
l163 -233q8 -11 -6 -11h-92q-14 0 -22 12l-103 162h-21z" />
    <glyph glyph-name="adieresis" unicode="&#xe4;" horiz-adv-x="1167" 
d="M940 976q-52 6 -112 9.5t-135 3.5q-114 0 -190 -19.5t-126.5 -66.5t-81 -127.5t-54.5 -201.5l-14 -74q-23 -122 -22 -203t34 -129t103.5 -68t188.5 -20q67 0 132 3.5t111 8.5zM513 -22q-141 0 -230.5 26.5t-135.5 86t-52.5 154.5t19.5 232l21 116q19 99 43 175
t57.5 131.5t77 92.5t101.5 59t131.5 31.5t166.5 9.5q38 0 81.5 -1.5t88.5 -4t88.5 -6t82.5 -7.5q14 -3 11 -16l-193 -1043q-2 -14 -17 -15q-94 -10 -179 -15.5t-162 -5.5zM527 1252q-14 0 -11 14l47 258q3 14 17 17l95 18q14 3 11 -11l-52 -282q-3 -14 -17 -14h-90z
M820 1252q-14 0 -11 14l47 258q3 14 17 17l96 18q14 3 11 -11l-52 -282q-3 -14 -17 -14h-91z" />
    <glyph glyph-name="agrave" unicode="&#xe0;" horiz-adv-x="1167" 
d="M940 976q-52 6 -112 9.5t-135 3.5q-114 0 -190 -19.5t-126.5 -66.5t-81 -127.5t-54.5 -201.5l-14 -74q-23 -122 -22 -203t34 -129t103.5 -68t188.5 -20q67 0 132 3.5t111 8.5zM513 -22q-141 0 -230.5 26.5t-135.5 86t-52.5 154.5t19.5 232l21 116q19 99 43 175
t57.5 131.5t77 92.5t101.5 59t131.5 31.5t166.5 9.5q38 0 81.5 -1.5t88.5 -4t88.5 -6t82.5 -7.5q14 -3 11 -16l-193 -1043q-2 -14 -17 -15q-94 -10 -179 -15.5t-162 -5.5zM732 1262q-14 0 -22 11l-173 237q-8 11 6 11h122q14 0 21 -12l142 -235q6 -12 -7 -12h-89z" />
    <glyph glyph-name="amacron" unicode="&#x101;" horiz-adv-x="1167" 
d="M940 976q-52 6 -112 9.5t-135 3.5q-114 0 -190 -19.5t-126.5 -66.5t-81 -127.5t-54.5 -201.5l-14 -74q-23 -122 -22 -203t34 -129t103.5 -68t188.5 -20q67 0 132 3.5t111 8.5zM513 -22q-141 0 -230.5 26.5t-135.5 86t-52.5 154.5t19.5 232l21 116q19 99 43 175
t57.5 131.5t77 92.5t101.5 59t131.5 31.5t166.5 9.5q38 0 81.5 -1.5t88.5 -4t88.5 -6t82.5 -7.5q14 -3 11 -16l-193 -1043q-2 -14 -17 -15q-94 -10 -179 -15.5t-162 -5.5zM505 1336q-14 0 -11 14l13 68q3 14 17 14h470q14 0 11 -14l-13 -68q-3 -14 -17 -14h-470z" />
    <glyph glyph-name="aogonek" unicode="&#x105;" horiz-adv-x="1167" 
d="M513 -22q-141 0 -230.5 26.5t-135.5 86t-52.5 154.5t19.5 232l21 116q19 99 43 175t57.5 131.5t77 92.5t101.5 59t131.5 31.5t166.5 9.5q38 0 81.5 -1.5t88.5 -4t88.5 -6t82.5 -7.5q14 -3 11 -16l-192 -1039q-3 -14 -19 -21q-44 -19 -89.5 -52.5t-82.5 -72.5t-60.5 -78.5
t-23.5 -70.5q0 -29 19.5 -40.5t67.5 -11.5q20 0 43.5 0.5t46.5 4.5q15 3 13 -11l-5 -49q-1 -13 -14 -17q-47 -11 -115 -11q-47 0 -77.5 8.5t-49.5 23.5t-26.5 35t-7.5 42q0 39 19 80.5t49 80t66.5 72t71.5 55.5q-49 -3 -95 -5t-90 -2zM940 976q-52 6 -112 9.5t-135 3.5
q-114 0 -190 -19.5t-126.5 -66.5t-81 -127.5t-54.5 -201.5l-14 -74q-23 -122 -22 -203t34 -129t103.5 -68t188.5 -20q67 0 132 3.5t111 8.5z" />
    <glyph glyph-name="aring" unicode="&#xe5;" horiz-adv-x="1167" 
d="M940 976q-52 6 -112 9.5t-135 3.5q-114 0 -190 -19.5t-126.5 -66.5t-81 -127.5t-54.5 -201.5l-14 -74q-23 -122 -22 -203t34 -129t103.5 -68t188.5 -20q67 0 132 3.5t111 8.5zM513 -22q-141 0 -230.5 26.5t-135.5 86t-52.5 154.5t19.5 232l21 116q19 99 43 175
t57.5 131.5t77 92.5t101.5 59t131.5 31.5t166.5 9.5q38 0 81.5 -1.5t88.5 -4t88.5 -6t82.5 -7.5q14 -3 11 -16l-193 -1043q-2 -14 -17 -15q-94 -10 -179 -15.5t-162 -5.5zM746 1501q-75 0 -106.5 -30t-31.5 -96q0 -42 25.5 -59t75.5 -17q77 0 107 31t30 98q0 40 -24 56.5
t-76 16.5zM693 1224q-170 0 -170 139q0 102 59 158t177 56q84 0 127 -35.5t43 -105.5q0 -100 -61 -156t-175 -56z" />
    <glyph glyph-name="atilde" unicode="&#xe3;" horiz-adv-x="1167" 
d="M940 976q-52 6 -112 9.5t-135 3.5q-114 0 -190 -19.5t-126.5 -66.5t-81 -127.5t-54.5 -201.5l-14 -74q-23 -122 -22 -203t34 -129t103.5 -68t188.5 -20q67 0 132 3.5t111 8.5zM513 -22q-141 0 -230.5 26.5t-135.5 86t-52.5 154.5t19.5 232l21 116q19 99 43 175
t57.5 131.5t77 92.5t101.5 59t131.5 31.5t166.5 9.5q38 0 81.5 -1.5t88.5 -4t88.5 -6t82.5 -7.5q14 -3 11 -16l-193 -1043q-2 -14 -17 -15q-94 -10 -179 -15.5t-162 -5.5zM589 1438q-18 0 -33.5 -5t-28 -21t-23.5 -46t-21 -81q-3 -14 -17 -14h-60q-15 0 -12 14
q12 79 32.5 127t47.5 73.5t57.5 33.5t61.5 8q22 0 40.5 -4.5t37.5 -14.5t39 -27t44 -42q21 -23 38 -38.5t31.5 -25.5t28.5 -14.5t29 -4.5q18 0 33 5t27.5 21t23.5 46.5t21 81.5q3 14 17 14h61q15 0 12 -14q-12 -80 -33 -128t-47.5 -73.5t-57.5 -33.5t-62 -8q-22 0 -40.5 4.5
t-37 14.5t-38.5 27t-44 42q-21 22 -38 38t-31.5 26t-28.5 14.5t-29 4.5z" />
    <glyph glyph-name="ae" unicode="&#xe6;" horiz-adv-x="1884" 
d="M1224 -22q-128 0 -210.5 28.5t-127.5 92.5l-15 -85q-2 -14 -17 -15q-94 -10 -179 -15.5t-162 -5.5q-141 0 -230.5 26.5t-135.5 86t-52.5 154.5t19.5 232l21 116q19 99 43 175t57.5 131.5t77 92.5t101.5 59t131.5 31.5t166.5 9.5q38 0 81.5 -1.5t88.5 -4t88.5 -6
t82.5 -7.5q14 -3 11 -16l-15 -80q66 59 156 87t212 28q100 0 172.5 -23t119 -67.5t68.5 -109t22 -148.5q0 -45 -5.5 -83t-13 -68.5t-15.5 -52t-13 -33.5q-5 -13 -19 -13l-773 -1q-20 -115 -17 -194t35.5 -128t97.5 -70.5t169 -21.5q84 0 169.5 3.5t178.5 12.5q14 1 14 -13
l-1 -68q0 -14 -14 -15q-87 -10 -176 -15.5t-192 -5.5zM940 976q-52 6 -112 9.5t-135 3.5q-114 0 -190 -19.5t-126.5 -66.5t-81 -127.5t-54.5 -201.5l-14 -74q-23 -122 -22 -203t34 -129t103.5 -68t188.5 -20q67 0 132 3.5t111 8.5zM1674 595q18 102 14.5 176.5t-35 123
t-93.5 72t-162 23.5q-97 0 -167 -23.5t-119.5 -72.5t-81 -124.5t-52.5 -180.5z" />
    <glyph glyph-name="cacute" unicode="&#x107;" horiz-adv-x="960" 
d="M551 1262q-14 0 -4 10l234 239q11 10 24 10h134q6 0 7.5 -2.5t-3.5 -6.5l-268 -241q-9 -9 -24 -9h-100zM512 -22q-137 0 -226 24.5t-135.5 83t-54 157t19.5 247.5l15 92q17 95 40.5 169.5t57.5 131.5t79 96.5t104.5 64.5t135.5 36.5t172 11.5q65 0 123 -6t105 -14
q15 -3 9 -16l-27 -71q-3 -8 -7 -10t-12 -1q-48 8 -103 11t-106 3q-115 0 -193 -20.5t-130.5 -69.5t-84.5 -130.5t-54 -202.5l-12 -61q-23 -124 -21 -205.5t36.5 -130t105 -68t185.5 -19.5q57 0 114 4t105 12q14 3 13 -11l-2 -70q-1 -15 -15 -17q-24 -5 -53.5 -9t-60.5 -6.5
t-63 -4t-60 -1.5z" />
    <glyph glyph-name="ccaron" unicode="&#x10d;" horiz-adv-x="960" 
d="M440 1510q-8 11 6 11h92q14 0 22 -12l103 -162h21l162 164q11 10 24 10h110q14 0 4 -10l-253 -235q-9 -10 -24 -10h-82q-14 0 -22 11zM512 -22q-137 0 -226 24.5t-135.5 83t-54 157t19.5 247.5l15 92q17 95 40.5 169.5t57.5 131.5t79 96.5t104.5 64.5t135.5 36.5
t172 11.5q65 0 123 -6t105 -14q15 -3 9 -16l-27 -71q-3 -8 -7 -10t-12 -1q-48 8 -103 11t-106 3q-115 0 -193 -20.5t-130.5 -69.5t-84.5 -130.5t-54 -202.5l-12 -61q-23 -124 -21 -205.5t36.5 -130t105 -68t185.5 -19.5q57 0 114 4t105 12q14 3 13 -11l-2 -70
q-1 -15 -15 -17q-24 -5 -53.5 -9t-60.5 -6.5t-63 -4t-60 -1.5z" />
    <glyph glyph-name="ccedilla" unicode="&#xe7;" horiz-adv-x="958" 
d="M512 -22q-137 0 -226 24.5t-135.5 83t-54 157t19.5 247.5l15 92q17 95 40.5 169.5t57.5 131.5t79 96.5t104.5 64.5t135.5 36.5t172 11.5q65 0 123 -6t105 -14q15 -3 9 -16l-27 -71q-3 -8 -7 -10t-12 -1q-48 8 -103 11t-106 3q-115 0 -193 -20.5t-130.5 -69.5
t-84.5 -130.5t-54 -202.5l-12 -61q-23 -124 -21 -205.5t36.5 -130t105 -68t185.5 -19.5q57 0 114 4t105 12q14 3 13 -11l-2 -70q-1 -15 -15 -17q-24 -5 -53.5 -9t-60.5 -6.5t-63 -4t-60 -1.5zM208 -389q-14 0 -6 11l189 265q8 11 22 11h92q13 0 6 -12l-181 -263
q-8 -12 -22 -12h-100z" />
    <glyph glyph-name="dcaron" unicode="&#x10f;" horiz-adv-x="1165" 
d="M693 989q-115 0 -191.5 -20t-127 -67.5t-81 -127.5t-52.5 -200l-15 -74q-23 -122 -22 -203t34 -129t103.5 -68t188.5 -20q62 0 124.5 4.5t119.5 12.5l163 868q-25 6 -56.5 10.5t-64 7.5t-64.5 4.5t-59 1.5zM512 -22q-141 0 -230.5 26t-135.5 85t-52.5 154.5t19.5 233.5
l21 116q27 144 68 239.5t108 153.5t164.5 82t236.5 24q63 0 127 -7.5t117 -18.5l96 522q3 14 17 17l88 18q14 3 11 -11l-294 -1588q-3 -15 -17 -16q-94 -15 -180.5 -22.5t-163.5 -7.5zM1239 1215q-14 0 -11 14l66 359q3 14 17 17l92 17q14 3 11 -11l-92 -382q-3 -14 -17 -14
h-66z" />
    <glyph glyph-name="dcroat" unicode="&#x111;" horiz-adv-x="1165" 
d="M512 -22q-141 0 -230.5 26t-135.5 85t-52.5 154.5t19.5 233.5l21 116q27 144 68 239.5t108 153.5t164.5 82t236.5 24q63 0 127 -7.5t117 -18.5l39 214h-312q-13 0 -12 14l12 63q1 14 16 14h313l40 217q3 14 17 17l88 18q14 3 11 -11l-45 -241h124q13 0 12 -14l-12 -63
q-1 -14 -16 -14h-125l-232 -1256q-3 -15 -17 -16q-94 -15 -180.5 -22.5t-163.5 -7.5zM693 989q-115 0 -191.5 -20t-127 -67.5t-81 -127.5t-52.5 -200l-15 -74q-23 -122 -22 -203t34 -129t103.5 -68t188.5 -20q62 0 124.5 4.5t119.5 12.5l163 868q-25 6 -56.5 10.5t-64 7.5
t-64.5 4.5t-59 1.5z" />
    <glyph glyph-name="eth" unicode="&#xf0;" horiz-adv-x="1180" 
d="M859 1403q71 -60 114.5 -139t61.5 -181.5t11 -230.5t-36 -285l-13 -71q-26 -141 -68.5 -239.5t-106 -160.5t-151.5 -90t-205 -28q-121 0 -200.5 31.5t-122 95.5t-49 161.5t17.5 229.5l14 71q26 140 68 238.5t105.5 161t151 91.5t204.5 29q98 0 171 -26.5t121 -80.5
q-12 124 -57.5 213t-126.5 152l-267 -165q-12 -7 -19 5l-33 55q-7 12 5 19l229 140q-55 29 -121 51t-145 38q-15 3 -9 16l25 63q5 13 19 10q200 -42 331 -117l209 128q5 3 10 2.5t9 -7.5l30 -57q7 -12 -5 -19zM649 986q-96 0 -164.5 -24.5t-117.5 -77t-80 -133.5t-52 -194
l-10 -51q-21 -113 -20 -194t29.5 -132.5t88 -76t155.5 -24.5t165.5 24.5t118.5 76.5t80.5 133.5t51.5 194.5l9 49q21 112 20 193t-29.5 133.5t-88 77.5t-156.5 25z" />
    <glyph glyph-name="eacute" unicode="&#xe9;" horiz-adv-x="1145" 
d="M584 1262q-14 0 -4 10l234 239q11 10 24 10h134q6 0 7.5 -2.5t-3.5 -6.5l-268 -241q-9 -9 -24 -9h-100zM485 -22q-126 0 -209.5 28.5t-128 91.5t-51.5 163t19 243l13 78q24 132 66 228.5t108 159t158.5 92.5t217.5 30q100 0 172.5 -23t119 -67.5t68.5 -109t22 -148.5
q0 -45 -5.5 -83t-13 -68.5t-15.5 -52t-13 -33.5q-5 -13 -19 -13l-773 -1q-20 -115 -17 -194t35.5 -128t97.5 -70.5t169 -21.5q84 0 169.5 3.5t178.5 12.5q14 1 14 -13l-1 -68q0 -14 -14 -15q-87 -10 -176 -15.5t-192 -5.5zM935 595q18 102 14.5 176.5t-35 123t-93.5 72
t-162 23.5q-97 0 -167 -23.5t-119.5 -72.5t-81 -124.5t-52.5 -180.5z" />
    <glyph glyph-name="ecaron" unicode="&#x11b;" horiz-adv-x="1145" 
d="M461 1510q-8 11 6 11h92q14 0 22 -12l103 -162h21l162 164q11 10 24 10h110q14 0 4 -10l-253 -235q-9 -10 -24 -10h-82q-14 0 -22 11zM485 -22q-126 0 -209.5 28.5t-128 91.5t-51.5 163t19 243l13 78q24 132 66 228.5t108 159t158.5 92.5t217.5 30q100 0 172.5 -23
t119 -67.5t68.5 -109t22 -148.5q0 -45 -5.5 -83t-13 -68.5t-15.5 -52t-13 -33.5q-5 -13 -19 -13l-773 -1q-20 -115 -17 -194t35.5 -128t97.5 -70.5t169 -21.5q84 0 169.5 3.5t178.5 12.5q14 1 14 -13l-1 -68q0 -14 -14 -15q-87 -10 -176 -15.5t-192 -5.5zM935 595
q18 102 14.5 176.5t-35 123t-93.5 72t-162 23.5q-97 0 -167 -23.5t-119.5 -72.5t-81 -124.5t-52.5 -180.5z" />
    <glyph glyph-name="ecircumflex" unicode="&#xea;" horiz-adv-x="1145" 
d="M730 1440l-162 -164q-11 -10 -24 -10h-110q-14 0 -4 10l253 235q11 10 24 10h82q14 0 22 -11l163 -233q8 -11 -6 -11h-92q-14 0 -22 12l-103 162h-21zM485 -22q-126 0 -209.5 28.5t-128 91.5t-51.5 163t19 243l13 78q24 132 66 228.5t108 159t158.5 92.5t217.5 30
q100 0 172.5 -23t119 -67.5t68.5 -109t22 -148.5q0 -45 -5.5 -83t-13 -68.5t-15.5 -52t-13 -33.5q-5 -13 -19 -13l-773 -1q-20 -115 -17 -194t35.5 -128t97.5 -70.5t169 -21.5q84 0 169.5 3.5t178.5 12.5q14 1 14 -13l-1 -68q0 -14 -14 -15q-87 -10 -176 -15.5t-192 -5.5z
M935 595q18 102 14.5 176.5t-35 123t-93.5 72t-162 23.5q-97 0 -167 -23.5t-119.5 -72.5t-81 -124.5t-52.5 -180.5z" />
    <glyph glyph-name="edieresis" unicode="&#xeb;" horiz-adv-x="1145" 
d="M492 1252q-14 0 -11 14l47 258q3 14 17 17l95 18q14 3 11 -11l-52 -282q-3 -14 -17 -14h-90zM785 1252q-14 0 -11 14l47 258q3 14 17 17l96 18q14 3 11 -11l-52 -282q-3 -14 -17 -14h-91zM485 -22q-126 0 -209.5 28.5t-128 91.5t-51.5 163t19 243l13 78q24 132 66 228.5
t108 159t158.5 92.5t217.5 30q100 0 172.5 -23t119 -67.5t68.5 -109t22 -148.5q0 -45 -5.5 -83t-13 -68.5t-15.5 -52t-13 -33.5q-5 -13 -19 -13l-773 -1q-20 -115 -17 -194t35.5 -128t97.5 -70.5t169 -21.5q84 0 169.5 3.5t178.5 12.5q14 1 14 -13l-1 -68q0 -14 -14 -15
q-87 -10 -176 -15.5t-192 -5.5zM935 595q18 102 14.5 176.5t-35 123t-93.5 72t-162 23.5q-97 0 -167 -23.5t-119.5 -72.5t-81 -124.5t-52.5 -180.5z" />
    <glyph glyph-name="edotaccent" unicode="&#x117;" horiz-adv-x="1145" 
d="M485 -22q-126 0 -209.5 28.5t-128 91.5t-51.5 163t19 243l13 78q24 132 66 228.5t108 159t158.5 92.5t217.5 30q100 0 172.5 -23t119 -67.5t68.5 -109t22 -148.5q0 -45 -5.5 -83t-13 -68.5t-15.5 -52t-13 -33.5q-5 -13 -19 -13l-773 -1q-20 -115 -17 -194t35.5 -128
t97.5 -70.5t169 -21.5q84 0 169.5 3.5t178.5 12.5q14 1 14 -13l-1 -68q0 -14 -14 -15q-87 -10 -176 -15.5t-192 -5.5zM935 595q18 102 14.5 176.5t-35 123t-93.5 72t-162 23.5q-97 0 -167 -23.5t-119.5 -72.5t-81 -124.5t-52.5 -180.5zM650 1252q-14 0 -11 14l47 258
q3 14 17 17l97 18q14 3 11 -11l-52 -282q-3 -14 -17 -14h-92z" />
    <glyph glyph-name="egrave" unicode="&#xe8;" horiz-adv-x="1145" 
d="M485 -22q-126 0 -209.5 28.5t-128 91.5t-51.5 163t19 243l13 78q24 132 66 228.5t108 159t158.5 92.5t217.5 30q100 0 172.5 -23t119 -67.5t68.5 -109t22 -148.5q0 -45 -5.5 -83t-13 -68.5t-15.5 -52t-13 -33.5q-5 -13 -19 -13l-773 -1q-20 -115 -17 -194t35.5 -128
t97.5 -70.5t169 -21.5q84 0 169.5 3.5t178.5 12.5q14 1 14 -13l-1 -68q0 -14 -14 -15q-87 -10 -176 -15.5t-192 -5.5zM935 595q18 102 14.5 176.5t-35 123t-93.5 72t-162 23.5q-97 0 -167 -23.5t-119.5 -72.5t-81 -124.5t-52.5 -180.5zM720 1262q-14 0 -22 11l-173 237
q-8 11 6 11h122q14 0 21 -12l142 -235q6 -12 -7 -12h-89z" />
    <glyph glyph-name="emacron" unicode="&#x113;" horiz-adv-x="1145" 
d="M485 -22q-126 0 -209.5 28.5t-128 91.5t-51.5 163t19 243l13 78q24 132 66 228.5t108 159t158.5 92.5t217.5 30q100 0 172.5 -23t119 -67.5t68.5 -109t22 -148.5q0 -45 -5.5 -83t-13 -68.5t-15.5 -52t-13 -33.5q-5 -13 -19 -13l-773 -1q-20 -115 -17 -194t35.5 -128
t97.5 -70.5t169 -21.5q84 0 169.5 3.5t178.5 12.5q14 1 14 -13l-1 -68q0 -14 -14 -15q-87 -10 -176 -15.5t-192 -5.5zM935 595q18 102 14.5 176.5t-35 123t-93.5 72t-162 23.5q-97 0 -167 -23.5t-119.5 -72.5t-81 -124.5t-52.5 -180.5zM459 1336q-14 0 -11 14l13 68
q3 14 17 14h470q14 0 11 -14l-13 -68q-3 -14 -17 -14h-470z" />
    <glyph glyph-name="eogonek" unicode="&#x119;" horiz-adv-x="1146" 
d="M485 -22q-126 0 -209.5 28.5t-128 91.5t-51.5 163t19 243l13 78q24 132 66 228.5t108 159t158.5 92.5t217.5 30q100 0 172.5 -23t119 -67.5t68.5 -109t22 -148.5q0 -45 -5.5 -83t-13 -68.5t-15.5 -52t-13 -33.5q-5 -13 -19 -13l-773 -1q-20 -115 -17 -194t35.5 -128
t97.5 -70.5t169 -21.5q84 0 169.5 3.5t178.5 12.5q14 1 14 -13l-1 -68q0 -14 -14 -15l-61 -6q-35 -26 -68 -61t-59 -72.5t-42 -74t-16 -65.5q0 -26 19.5 -37.5t76.5 -11.5q22 0 49.5 1.5t54.5 4.5q14 1 13 -12l-6 -49q-1 -13 -15 -17q-47 -11 -127 -11q-48 0 -80 7.5
t-51.5 22t-27.5 34.5t-8 45q0 36 15 75.5t39 78t54.5 73t61.5 60.5q-90 -6 -190 -6zM935 595q18 102 14.5 176.5t-35 123t-93.5 72t-162 23.5q-97 0 -167 -23.5t-119.5 -72.5t-81 -124.5t-52.5 -180.5z" />
    <glyph glyph-name="gbreve" unicode="&#x11f;" horiz-adv-x="1168" 
d="M293 -473q-27 0 -61 1t-70 3.5t-71 6.5t-63 9q-14 3 -10 16l24 70q4 13 18 10q52 -9 117 -12.5t128 -3.5q100 0 175 13.5t129 53t90 112t58 189.5q-21 -3 -50 -5.5t-61 -4.5t-65.5 -3.5t-64.5 -1.5q-144 0 -234 27.5t-135.5 87t-51.5 154t20 228.5l21 116q19 99 43 175
t57.5 131.5t77 92.5t101.5 59t131.5 31.5t166.5 9.5q38 0 81.5 -1.5t88.5 -4t88.5 -6t82.5 -7.5q14 -3 11 -16l-195 -1054q-28 -151 -75 -244t-116.5 -144.5t-165 -69.5t-220.5 -18zM694 989q-114 0 -190 -19.5t-126 -66.5t-81 -127.5t-55 -201.5l-14 -74q-23 -122 -22 -203
t34 -129t103.5 -68t188.5 -20q67 0 132 3.5t111 8.5l166 884q-52 6 -112 9.5t-135 3.5zM702 1266q-61 0 -103.5 17t-68.5 48.5t-36.5 76t-7.5 99.5q1 14 15 14h68q13 0 13 -14q-3 -44 5 -73t25 -46.5t41.5 -25t54.5 -7.5q31 0 59.5 7.5t54 25t46 47t35.5 73.5q4 13 18 13h70
q14 0 11 -14q-13 -54 -35.5 -98t-58 -76t-86 -49.5t-120.5 -17.5z" />
    <glyph glyph-name="gcommaaccent" unicode="&#x123;" horiz-adv-x="1168" 
d="M640 1260q-15 -2 -7 10l150 282q7 12 21 12h78q14 0 8 -13l-113 -256q-4 -8 -8 -11t-12 -4zM292 -473q-27 0 -61 1t-70 3.5t-71 6.5t-63 9q-14 3 -10 16l24 70q4 13 18 10q52 -9 117 -12.5t128 -3.5q100 0 175 13.5t129 53t90 112t58 189.5q-21 -3 -50 -5.5t-61 -4.5
t-65.5 -3.5t-64.5 -1.5q-144 0 -234 27.5t-135.5 87t-51.5 154t20 228.5l21 116q19 99 43 175t57.5 131.5t77 92.5t101.5 59t131.5 31.5t166.5 9.5q38 0 81.5 -1.5t88.5 -4t88.5 -6t82.5 -7.5q14 -3 11 -16l-195 -1054q-28 -151 -75 -244t-116.5 -144.5t-165 -69.5
t-220.5 -18zM693 989q-114 0 -190 -19.5t-126 -66.5t-81 -127.5t-55 -201.5l-14 -74q-23 -122 -22 -203t34 -129t103.5 -68t188.5 -20q67 0 132 3.5t111 8.5l166 884q-52 6 -112 9.5t-135 3.5z" />
    <glyph glyph-name="iacute" unicode="&#xed;" horiz-adv-x="478" 
d="M192 1262q-14 0 -4 10l234 239q11 10 24 10h134q6 0 7.5 -2.5t-3.5 -6.5l-268 -241q-9 -9 -24 -9h-100zM83 0q-14 0 -11 14l192 1043q3 14 17 14h83q14 0 11 -14l-193 -1043q-3 -14 -17 -14h-82z" />
    <glyph glyph-name="ibreve" unicode="&#x12d;" horiz-adv-x="479" 
d="M84 0q-14 0 -11 14l192 1043q3 14 17 14h83q14 0 11 -14l-193 -1043q-3 -14 -17 -14h-82zM351 1266q-61 0 -103.5 17t-68.5 48.5t-36.5 76t-7.5 99.5q1 14 15 14h68q13 0 13 -14q-3 -44 5 -73t25 -46.5t41.5 -25t54.5 -7.5q31 0 59.5 7.5t54 25t46 47t35.5 73.5
q4 13 18 13h70q14 0 11 -14q-13 -54 -35.5 -98t-58 -76t-86 -49.5t-120.5 -17.5z" />
    <glyph glyph-name="icircumflex" unicode="&#xee;" horiz-adv-x="478" 
d="M381 1440l-162 -164q-11 -10 -24 -10h-110q-14 0 -4 10l253 235q11 10 24 10h82q14 0 22 -11l163 -233q8 -11 -6 -11h-92q-14 0 -22 12l-103 162h-21zM83 0q-14 0 -11 14l192 1043q3 14 17 14h83q14 0 11 -14l-193 -1043q-3 -14 -17 -14h-82z" />
    <glyph glyph-name="idieresis" unicode="&#xef;" horiz-adv-x="478" 
d="M165 1252q-14 0 -11 14l47 258q3 14 17 17l95 18q14 3 11 -11l-52 -282q-3 -14 -17 -14h-90zM458 1252q-14 0 -11 14l47 258q3 14 17 17l96 18q14 3 11 -11l-52 -282q-3 -14 -17 -14h-91zM83 0q-14 0 -11 14l192 1043q3 14 17 14h83q14 0 11 -14l-193 -1043
q-3 -14 -17 -14h-82z" />
    <glyph glyph-name="igrave" unicode="&#xec;" horiz-adv-x="479" 
d="M84 0q-14 0 -11 14l192 1043q3 14 17 14h83q14 0 11 -14l-193 -1043q-3 -14 -17 -14h-82zM399 1262q-14 0 -22 11l-173 237q-8 11 6 11h122q14 0 21 -12l142 -235q6 -12 -7 -12h-89z" />
    <glyph glyph-name="imacron" unicode="&#x12b;" horiz-adv-x="479" 
d="M188 1314q-14 0 -11 14l12 66q3 14 17 14h356q14 0 11 -14l-13 -66q-3 -14 -17 -14h-355zM84 0q-14 0 -11 14l192 1043q3 14 17 14h83q14 0 11 -14l-193 -1043q-3 -14 -17 -14h-82z" />
    <glyph glyph-name="iogonek" unicode="&#x12f;" horiz-adv-x="480" 
d="M67 -329q22 0 48.5 1.5t52.5 4.5q14 1 13 -12l-6 -49q-1 -13 -15 -17q-22 -5 -54.5 -8t-69.5 -3q-48 0 -80.5 7.5t-52 22t-28 34.5t-8.5 46q0 43 18.5 90t48.5 91t67.5 83t75.5 67l189 1028q3 14 17 14h83q14 0 11 -14l-193 -1043q-2 -9 -6 -13.5t-9 -7.5
q-38 -24 -74.5 -57.5t-64.5 -70.5t-45 -74.5t-17 -69.5q0 -14 4.5 -23.5t15.5 -15.5t30.5 -8.5t48.5 -2.5zM312 1252q-14 0 -11 14l46 258q3 14 17 17l98 18q14 3 11 -11l-52 -282q-3 -14 -17 -14h-92z" />
    <glyph glyph-name="dotlessi" unicode="&#x131;" horiz-adv-x="478" 
d="M83 0q-14 0 -11 14l192 1043q3 14 17 14h83q14 0 11 -14l-193 -1043q-3 -14 -17 -14h-82z" />
    <glyph glyph-name="ij" unicode="&#x133;" horiz-adv-x="952" 
d="M83 0q-14 0 -11 14l192 1043q3 14 17 14h83q14 0 11 -14l-193 -1043q-3 -14 -17 -14h-82zM310 1252q-14 0 -11 14l46 258q3 14 17 17l98 18q14 3 11 -11l-52 -282q-3 -14 -17 -14h-92zM274 -473q-33 0 -72.5 3t-70.5 11q-13 4 -8 17l26 71q5 13 19 10q26 -5 57.5 -8
t60.5 -3q56 0 94.5 9.5t64 34t42 67t28.5 108.5l223 1210q3 14 17 14h83q14 0 11 -14l-223 -1210q-19 -99 -46.5 -161t-69 -97.5t-99.5 -48.5t-137 -13zM784 1252q-14 0 -11 14l46 258q3 14 17 17l98 18q14 3 11 -11l-51 -282q-3 -14 -17 -14h-93z" />
    <glyph glyph-name="kcommaaccent" unicode="&#x137;" horiz-adv-x="1051" 
d="M228 -434q-14 0 -8 13l125 274q4 8 8 11t12 4l107 19q15 2 7 -10l-151 -299q-7 -12 -21 -12h-79zM782 0q-15 0 -20 12l-321 614l-166 -115l-91 -497q-3 -14 -17 -14h-83q-14 0 -11 14l291 1574q3 14 17 17l87 18q14 3 11 -11l-178 -963l595 414q11 8 25 8h148
q6 0 6.5 -2.5t-4.5 -5.5l-536 -372l366 -679q7 -12 -7 -12h-112z" />
    <glyph glyph-name="lacute" unicode="&#x13a;" horiz-adv-x="490" 
d="M266 1688q-14 0 -3 9l227 186q10 9 25 9h142q6 0 7 -2.5t-4 -5.5l-262 -188q-11 -8 -25 -8h-107zM89 0q-14 0 -11 14l291 1574q3 14 17 17l87 18q14 3 11 -11l-296 -1598q-3 -14 -17 -14h-82z" />
    <glyph glyph-name="lcaron" unicode="&#x13e;" horiz-adv-x="490" 
d="M89 0q-14 0 -11 14l291 1574q3 14 17 17l87 18q14 3 11 -11l-296 -1598q-3 -14 -17 -14h-82zM543 1215q-14 0 -11 14l66 359q3 14 17 17l92 17q14 3 11 -11l-92 -382q-3 -14 -17 -14h-66z" />
    <glyph glyph-name="lslash" unicode="&#x142;" horiz-adv-x="503" 
d="M98 0q-14 0 -11 14l120 652l-190 -164q-11 -8 -9 5l21 118q1 13 13 23l193 165l143 775q3 14 17 17l87 18q14 3 11 -11l-127 -686l195 168q11 9 9 -5l-22 -118q-1 -13 -13 -23l-197 -169l-141 -765q-3 -14 -17 -14h-82z" />
    <glyph glyph-name="lcommaaccent" unicode="&#x13c;" horiz-adv-x="490" 
d="M-81 -434q-14 0 -8 13l125 274q4 8 8 11t12 4l107 19q15 2 7 -10l-151 -299q-7 -12 -21 -12h-79zM89 0q-14 0 -11 14l291 1574q3 14 17 17l87 18q14 3 11 -11l-296 -1598q-3 -14 -17 -14h-82z" />
    <glyph glyph-name="nacute" unicode="&#x144;" horiz-adv-x="1198" 
d="M624 1262q-14 0 -4 10l234 239q11 10 24 10h134q6 0 7.5 -2.5t-3.5 -6.5l-268 -241q-9 -9 -24 -9h-100zM83 0q-14 0 -11 14l196 1062q3 14 17 14h60q14 0 14 -14l2 -85q45 24 96 43t102.5 31.5t102 19.5t94.5 7q108 0 173 -26t95 -81t29.5 -140.5t-22.5 -205.5l-114 -625
q-3 -14 -17 -14h-83q-14 0 -11 14l113 613q19 105 20.5 174t-21 109.5t-72.5 56.5t-135 16q-40 0 -86 -5.5t-93.5 -16.5t-95.5 -28t-91 -40l-163 -879q-3 -14 -17 -14h-82z" />
    <glyph glyph-name="ncaron" unicode="&#x148;" horiz-adv-x="1198" 
d="M485 1510q-8 11 6 11h92q14 0 22 -12l103 -162h21l162 164q11 10 24 10h110q14 0 4 -10l-253 -235q-9 -10 -24 -10h-82q-14 0 -22 11zM83 0q-14 0 -11 14l196 1062q3 14 17 14h60q14 0 14 -14l2 -85q45 24 96 43t102.5 31.5t102 19.5t94.5 7q108 0 173 -26t95 -81
t29.5 -140.5t-22.5 -205.5l-114 -625q-3 -14 -17 -14h-83q-14 0 -11 14l113 613q19 105 20.5 174t-21 109.5t-72.5 56.5t-135 16q-40 0 -86 -5.5t-93.5 -16.5t-95.5 -28t-91 -40l-163 -879q-3 -14 -17 -14h-82z" />
    <glyph glyph-name="ntilde" unicode="&#xf1;" horiz-adv-x="1198" 
d="M83 0q-14 0 -11 14l196 1062q3 14 17 14h60q14 0 14 -14l2 -85q45 24 96 43t102.5 31.5t102 19.5t94.5 7q108 0 173 -26t95 -81t29.5 -140.5t-22.5 -205.5l-114 -625q-3 -14 -17 -14h-83q-14 0 -11 14l113 613q19 105 20.5 174t-21 109.5t-72.5 56.5t-135 16
q-40 0 -86 -5.5t-93.5 -16.5t-95.5 -28t-91 -40l-163 -879q-3 -14 -17 -14h-82zM586 1438q-18 0 -33.5 -5t-28 -21t-23.5 -46t-21 -81q-3 -14 -17 -14h-60q-15 0 -12 14q12 79 32.5 127t47.5 73.5t57.5 33.5t61.5 8q22 0 40.5 -4.5t37.5 -14.5t39 -27t44 -42
q21 -23 38 -38.5t31.5 -25.5t28.5 -14.5t29 -4.5q18 0 33 5t27.5 21t23.5 46.5t21 81.5q3 14 17 14h61q15 0 12 -14q-12 -80 -33 -128t-47.5 -73.5t-57.5 -33.5t-62 -8q-22 0 -40.5 4.5t-37 14.5t-38.5 27t-44 42q-21 22 -38 38t-31.5 26t-28.5 14.5t-29 4.5z" />
    <glyph glyph-name="ncommaaccent" unicode="&#x146;" horiz-adv-x="1199" 
d="M289 -434q-14 0 -8 13l125 274q4 8 8 11t12 4l107 19q15 2 7 -10l-151 -299q-7 -12 -21 -12h-79zM83 0q-14 0 -11 14l196 1062q3 14 17 14h60q14 0 14 -14l2 -85q45 24 96 43t102.5 31.5t102 19.5t94.5 7q108 0 173 -26t95 -81t29.5 -140.5t-22.5 -205.5l-114 -625
q-3 -14 -17 -14h-83q-14 0 -11 14l113 613q19 105 20.5 174t-21 109.5t-72.5 56.5t-135 16q-40 0 -86 -5.5t-93.5 -16.5t-95.5 -28t-91 -40l-163 -879q-3 -14 -17 -14h-82z" />
    <glyph glyph-name="oacute" unicode="&#xf3;" horiz-adv-x="1181" 
d="M569 1262q-14 0 -4 10l234 239q11 10 24 10h134q6 0 7.5 -2.5t-3.5 -6.5l-268 -241q-9 -9 -24 -9h-100zM659 990q-99 0 -170 -24t-120.5 -75.5t-81 -131t-52.5 -190.5l-12 -69q-20 -111 -18.5 -190.5t31.5 -130.5t92 -75.5t162 -24.5q99 0 170 24t120.5 75.5t81 131.5
t52.5 192l12 67q21 110 19 189.5t-32 131t-92 76t-162 24.5zM471 -22q-122 0 -202.5 30.5t-123.5 93.5t-50.5 159.5t17.5 228.5l15 87q26 138 69.5 236t110 160t158 90.5t213.5 28.5q123 0 204 -30.5t124 -93.5t49.5 -160.5t-18.5 -230.5l-15 -87q-25 -138 -68.5 -235.5
t-109.5 -159t-158 -89.5t-215 -28z" />
    <glyph glyph-name="ocircumflex" unicode="&#xf4;" horiz-adv-x="1181" 
d="M733 1440l-162 -164q-11 -10 -24 -10h-110q-14 0 -4 10l253 235q11 10 24 10h82q14 0 22 -11l163 -233q8 -11 -6 -11h-92q-14 0 -22 12l-103 162h-21zM659 990q-99 0 -170 -24t-120.5 -75.5t-81 -131t-52.5 -190.5l-12 -69q-20 -111 -18.5 -190.5t31.5 -130.5t92 -75.5
t162 -24.5q99 0 170 24t120.5 75.5t81 131.5t52.5 192l12 67q21 110 19 189.5t-32 131t-92 76t-162 24.5zM471 -22q-122 0 -202.5 30.5t-123.5 93.5t-50.5 159.5t17.5 228.5l15 87q26 138 69.5 236t110 160t158 90.5t213.5 28.5q123 0 204 -30.5t124 -93.5t49.5 -160.5
t-18.5 -230.5l-15 -87q-25 -138 -68.5 -235.5t-109.5 -159t-158 -89.5t-215 -28z" />
    <glyph glyph-name="odieresis" unicode="&#xf6;" horiz-adv-x="1181" 
d="M500 1252q-14 0 -11 14l47 258q3 14 17 17l95 18q14 3 11 -11l-52 -282q-3 -14 -17 -14h-90zM793 1252q-14 0 -11 14l47 258q3 14 17 17l96 18q14 3 11 -11l-52 -282q-3 -14 -17 -14h-91zM659 990q-99 0 -170 -24t-120.5 -75.5t-81 -131t-52.5 -190.5l-12 -69
q-20 -111 -18.5 -190.5t31.5 -130.5t92 -75.5t162 -24.5q99 0 170 24t120.5 75.5t81 131.5t52.5 192l12 67q21 110 19 189.5t-32 131t-92 76t-162 24.5zM471 -22q-122 0 -202.5 30.5t-123.5 93.5t-50.5 159.5t17.5 228.5l15 87q26 138 69.5 236t110 160t158 90.5t213.5 28.5
q123 0 204 -30.5t124 -93.5t49.5 -160.5t-18.5 -230.5l-15 -87q-25 -138 -68.5 -235.5t-109.5 -159t-158 -89.5t-215 -28z" />
    <glyph glyph-name="ograve" unicode="&#xf2;" horiz-adv-x="1181" 
d="M659 990q-99 0 -170 -24t-120.5 -75.5t-81 -131t-52.5 -190.5l-12 -69q-20 -111 -18.5 -190.5t31.5 -130.5t92 -75.5t162 -24.5q99 0 170 24t120.5 75.5t81 131.5t52.5 192l12 67q21 110 19 189.5t-32 131t-92 76t-162 24.5zM471 -22q-122 0 -202.5 30.5t-123.5 93.5
t-50.5 159.5t17.5 228.5l15 87q26 138 69.5 236t110 160t158 90.5t213.5 28.5q123 0 204 -30.5t124 -93.5t49.5 -160.5t-18.5 -230.5l-15 -87q-25 -138 -68.5 -235.5t-109.5 -159t-158 -89.5t-215 -28zM720 1262q-14 0 -22 11l-173 237q-8 11 6 11h122q14 0 21 -12l142 -235
q6 -12 -7 -12h-89z" />
    <glyph glyph-name="ohungarumlaut" unicode="&#x151;" horiz-adv-x="1181" 
d="M761 1260q-14 0 -6 11l179 239q8 11 22 11h109q14 0 5 -11l-206 -239q-5 -6 -10 -8.5t-13 -2.5h-80zM502 1260q-14 0 -6 11l178 239q8 11 22 11h106q14 0 5 -11l-203 -239q-5 -6 -10 -8.5t-13 -2.5h-79zM659 990q-99 0 -170 -24t-120.5 -75.5t-81 -131t-52.5 -190.5
l-12 -69q-20 -111 -18.5 -190.5t31.5 -130.5t92 -75.5t162 -24.5q99 0 170 24t120.5 75.5t81 131.5t52.5 192l12 67q21 110 19 189.5t-32 131t-92 76t-162 24.5zM471 -22q-122 0 -202.5 30.5t-123.5 93.5t-50.5 159.5t17.5 228.5l15 87q26 138 69.5 236t110 160t158 90.5
t213.5 28.5q123 0 204 -30.5t124 -93.5t49.5 -160.5t-18.5 -230.5l-15 -87q-25 -138 -68.5 -235.5t-109.5 -159t-158 -89.5t-215 -28z" />
    <glyph glyph-name="omacron" unicode="&#x14d;" horiz-adv-x="1181" 
d="M468 1336q-14 0 -11 14l13 68q3 14 17 14h470q14 0 11 -14l-13 -68q-3 -14 -17 -14h-470zM659 990q-99 0 -170 -24t-120.5 -75.5t-81 -131t-52.5 -190.5l-12 -69q-20 -111 -18.5 -190.5t31.5 -130.5t92 -75.5t162 -24.5q99 0 170 24t120.5 75.5t81 131.5t52.5 192l12 67
q21 110 19 189.5t-32 131t-92 76t-162 24.5zM471 -22q-122 0 -202.5 30.5t-123.5 93.5t-50.5 159.5t17.5 228.5l15 87q26 138 69.5 236t110 160t158 90.5t213.5 28.5q123 0 204 -30.5t124 -93.5t49.5 -160.5t-18.5 -230.5l-15 -87q-25 -138 -68.5 -235.5t-109.5 -159
t-158 -89.5t-215 -28z" />
    <glyph glyph-name="otilde" unicode="&#xf5;" horiz-adv-x="1181" 
d="M659 990q-99 0 -170 -24t-120.5 -75.5t-81 -131t-52.5 -190.5l-12 -69q-20 -111 -18.5 -190.5t31.5 -130.5t92 -75.5t162 -24.5q99 0 170 24t120.5 75.5t81 131.5t52.5 192l12 67q21 110 19 189.5t-32 131t-92 76t-162 24.5zM471 -22q-122 0 -202.5 30.5t-123.5 93.5
t-50.5 159.5t17.5 228.5l15 87q26 138 69.5 236t110 160t158 90.5t213.5 28.5q123 0 204 -30.5t124 -93.5t49.5 -160.5t-18.5 -230.5l-15 -87q-25 -138 -68.5 -235.5t-109.5 -159t-158 -89.5t-215 -28zM570 1438q-18 0 -33.5 -5t-28 -21t-23.5 -46t-21 -81q-3 -14 -17 -14
h-60q-15 0 -12 14q12 79 32.5 127t47.5 73.5t57.5 33.5t61.5 8q22 0 40.5 -4.5t37.5 -14.5t39 -27t44 -42q21 -23 38 -38.5t31.5 -25.5t28.5 -14.5t29 -4.5q18 0 33 5t27.5 21t23.5 46.5t21 81.5q3 14 17 14h61q15 0 12 -14q-12 -80 -33 -128t-47.5 -73.5t-57.5 -33.5
t-62 -8q-22 0 -40.5 4.5t-37 14.5t-38.5 27t-44 42q-21 22 -38 38t-31.5 26t-28.5 14.5t-29 4.5z" />
    <glyph glyph-name="oslash" unicode="&#xf8;" horiz-adv-x="1187" 
d="M123 144q-27 63 -29 148.5t19 198.5l16 85q25 135 69 232.5t110.5 160.5t159 93t214.5 30q106 0 179.5 -22t120.5 -69l60 60q10 10 24 10h104q14 0 4 -10l-140 -140q26 -63 27.5 -148t-18.5 -197l-16 -85q-25 -136 -68.5 -233t-110 -159.5t-158.5 -91.5t-215 -29
q-207 0 -298 87l-56 -55q-9 -10 -24 -10h-105q-14 0 -4 10zM663 990q-100 0 -171 -24.5t-121 -76t-81.5 -132t-51.5 -191.5l-12 -60q-17 -87 -21 -154t8 -117l686 683q-34 37 -91 54.5t-145 17.5zM931 562q15 85 19 151t-7 117l-684 -683q34 -35 91 -51.5t144 -16.5
q100 0 171 24t120.5 75.5t81.5 131.5t53 193z" />
    <glyph glyph-name="oe" unicode="&#x153;" horiz-adv-x="1946" 
d="M471 -22q-122 0 -202.5 30.5t-123.5 93.5t-50.5 159.5t17.5 228.5l15 87q26 138 69.5 236t110 160t158 90.5t213.5 28.5q155 0 243 -47.5t119 -148.5q67 101 173.5 148.5t264.5 47.5q100 0 172.5 -23t119 -67.5t68.5 -109t22 -148.5q0 -45 -5.5 -83t-13 -68.5t-15.5 -52
t-13 -33.5q-5 -13 -19 -13l-772 -1v-3l-9 -43q-15 -102 -7.5 -172.5t41.5 -114t97.5 -62.5t161.5 -19q84 0 169.5 3.5t178.5 12.5q14 1 14 -13l-1 -68q0 -14 -14 -15q-87 -10 -176 -15.5t-192 -5.5q-161 0 -252 46.5t-122 151.5q-68 -104 -175.5 -151t-264.5 -47zM659 990
q-99 0 -170 -24t-120.5 -75.5t-81 -131t-52.5 -190.5l-12 -69q-20 -111 -18.5 -190.5t31.5 -130.5t92 -75.5t162 -24.5q99 0 170 24t120.5 75.5t81 131.5t52.5 192l9 53l5 27q1 5 1.5 10.5t2.5 10.5q16 101 11.5 174t-35.5 120.5t-92 70t-157 22.5zM1735 595
q18 102 14.5 176.5t-35 123t-93.5 72t-162 23.5q-95 0 -164 -22.5t-118 -69t-81.5 -119t-53.5 -171.5l-3 -19z" />
    <glyph glyph-name="racute" unicode="&#x155;" horiz-adv-x="710" 
d="M427 1262q-14 0 -4 10l234 239q11 10 24 10h134q6 0 7.5 -2.5t-3.5 -6.5l-268 -241q-9 -9 -24 -9h-100zM83 0q-14 0 -11 14l196 1062q3 14 17 14h60q14 0 14 -14l1 -69q34 21 73 37t80.5 26.5t84 16t81.5 5.5q20 0 36 -1t28 -3q14 -3 10 -16l-24 -84q-4 -13 -18 -12
q-14 2 -27 2.5t-30 0.5q-77 0 -151 -15t-156 -58l-165 -892q-3 -14 -17 -14h-82z" />
    <glyph glyph-name="rcaron" unicode="&#x159;" horiz-adv-x="710" 
d="M295 1510q-8 11 6 11h92q14 0 22 -12l103 -162h21l162 164q11 10 24 10h110q14 0 4 -10l-253 -235q-9 -10 -24 -10h-82q-14 0 -22 11zM83 0q-14 0 -11 14l196 1062q3 14 17 14h60q14 0 14 -14l1 -69q34 21 73 37t80.5 26.5t84 16t81.5 5.5q20 0 36 -1t28 -3q14 -3 10 -16
l-24 -84q-4 -13 -18 -12q-14 2 -27 2.5t-30 0.5q-77 0 -151 -15t-156 -58l-165 -892q-3 -14 -17 -14h-82z" />
    <glyph glyph-name="rcommaaccent" unicode="&#x157;" horiz-adv-x="710" 
d="M-88 -434q-14 0 -8 13l125 274q4 8 8 11t12 4l107 19q15 2 7 -10l-151 -299q-7 -12 -21 -12h-79zM83 0q-14 0 -11 14l196 1062q3 14 17 14h60q14 0 14 -14l1 -69q34 21 73 37t80.5 26.5t84 16t81.5 5.5q20 0 36 -1t28 -3q14 -3 10 -16l-24 -84q-4 -13 -18 -12
q-14 2 -27 2.5t-30 0.5q-77 0 -151 -15t-156 -58l-165 -892q-3 -14 -17 -14h-82z" />
    <glyph glyph-name="sacute" unicode="&#x15b;" horiz-adv-x="977" 
d="M478 1262q-14 0 -4 10l234 239q11 10 24 10h134q6 0 7.5 -2.5t-3.5 -6.5l-268 -241q-9 -9 -24 -9h-100zM321 -22q-27 0 -65 1.5t-79 5t-82 9.5t-75 15q-13 4 -8 17l26 71q5 13 19 10q72 -17 138 -22t139 -5q118 0 190.5 11.5t112.5 38.5t54 70.5t14 107.5q0 31 -10 53.5
t-33 42t-60 37.5t-92 41l-171 67q-46 19 -82 38.5t-61 44.5t-38 58t-13 79q0 89 23.5 150.5t79 100t146.5 55.5t226 17q78 0 150.5 -6.5t123.5 -14.5q15 -2 9 -15l-28 -71q-3 -8 -7 -10t-12 -1q-50 7 -107 11t-139 4q-93 0 -159.5 -8t-110 -30t-64 -62t-20.5 -104
q0 -26 8.5 -46.5t29.5 -38.5t57 -35.5t90 -38.5l144 -55q60 -23 104 -45.5t73 -49.5t43.5 -61.5t14.5 -82.5q0 -98 -24.5 -165.5t-82 -109.5t-153.5 -60.5t-239 -18.5z" />
    <glyph glyph-name="scaron" unicode="&#x161;" horiz-adv-x="977" 
d="M360 1510q-8 11 6 11h92q14 0 22 -12l103 -162h21l162 164q11 10 24 10h110q14 0 4 -10l-253 -235q-9 -10 -24 -10h-82q-14 0 -22 11zM321 -22q-27 0 -65 1.5t-79 5t-82 9.5t-75 15q-13 4 -8 17l26 71q5 13 19 10q72 -17 138 -22t139 -5q118 0 190.5 11.5t112.5 38.5
t54 70.5t14 107.5q0 31 -10 53.5t-33 42t-60 37.5t-92 41l-171 67q-46 19 -82 38.5t-61 44.5t-38 58t-13 79q0 89 23.5 150.5t79 100t146.5 55.5t226 17q78 0 150.5 -6.5t123.5 -14.5q15 -2 9 -15l-28 -71q-3 -8 -7 -10t-12 -1q-50 7 -107 11t-139 4q-93 0 -159.5 -8
t-110 -30t-64 -62t-20.5 -104q0 -26 8.5 -46.5t29.5 -38.5t57 -35.5t90 -38.5l144 -55q60 -23 104 -45.5t73 -49.5t43.5 -61.5t14.5 -82.5q0 -98 -24.5 -165.5t-82 -109.5t-153.5 -60.5t-239 -18.5z" />
    <glyph glyph-name="uni015F" unicode="&#x15f;" horiz-adv-x="977" 
d="M321 -22q-27 0 -65 1.5t-79 5t-82 9.5t-75 15q-13 4 -8 17l26 71q5 13 19 10q72 -17 138 -22t139 -5q118 0 190.5 11.5t112.5 38.5t54 70.5t14 107.5q0 31 -10 53.5t-33 42t-60 37.5t-92 41l-171 67q-46 19 -82 38.5t-61 44.5t-38 58t-13 79q0 89 23.5 150.5t79 100
t146.5 55.5t226 17q78 0 150.5 -6.5t123.5 -14.5q15 -2 9 -15l-28 -71q-3 -8 -7 -10t-12 -1q-50 7 -107 11t-139 4q-93 0 -159.5 -8t-110 -30t-64 -62t-20.5 -104q0 -26 8.5 -46.5t29.5 -38.5t57 -35.5t90 -38.5l144 -55q60 -23 104 -45.5t73 -49.5t43.5 -61.5t14.5 -82.5
q0 -98 -24.5 -165.5t-82 -109.5t-153.5 -60.5t-239 -18.5zM158 -389q-14 0 -6 11l189 265q8 11 22 11h92q13 0 6 -12l-181 -263q-8 -12 -22 -12h-100z" />
    <glyph glyph-name="germandbls" unicode="&#xdf;" horiz-adv-x="1211" 
d="M84 0q-14 0 -11 14l194 1051q27 147 74 245.5t113 158.5t151.5 85t191.5 25q102 0 174.5 -27.5t116 -78t57 -123t-3.5 -162.5l-3 -18q-11 -54 -30 -103.5t-50.5 -91.5t-77.5 -73.5t-109 -48.5q72 -20 113.5 -63.5t60.5 -99t19 -117.5t-11 -120l-6 -36
q-22 -130 -65.5 -215t-107 -134.5t-147 -69.5t-185.5 -20t-172 21q-13 4 -9 17l24 70q4 13 18 10q32 -8 65.5 -12.5t83.5 -4.5q80 0 143 17.5t109.5 57.5t78 106t49.5 162l9 47q13 68 6.5 128t-36 105t-83.5 71.5t-137 26.5h-129q-14 0 -11 14l15 80q3 14 17 14h129
q82 0 138 24.5t93 63t56.5 85.5t27.5 93l2 16q27 143 -36 213.5t-210 70.5q-83 0 -148.5 -21t-115.5 -69t-85 -126.5t-56 -192.5l-195 -1051q-3 -14 -17 -14h-82z" />
    <glyph glyph-name="tcaron" unicode="&#x165;" horiz-adv-x="743" 
d="M602 1220q-14 0 -11 14l64 354q3 14 17 17l93 17q14 3 11 -11l-92 -377q-3 -14 -17 -14h-65zM354 -22q-58 0 -99 9.5t-64 39t-27 83.5t13 143l133 718l-208 11q-13 1 -12 15l11 60q1 14 16 14h211l37 199q3 14 17 17l88 18q14 3 11 -11l-43 -223h334q13 0 9 -13l-29 -74
q-5 -13 -19 -13h-313l-132 -715q-11 -58 -10 -92.5t14 -53t38.5 -24t63.5 -5.5q35 0 75 4t69 10q14 3 14 -11l-3 -67q0 -14 -14 -17q-35 -8 -84 -15t-97 -7z" />
    <glyph glyph-name="uni0163" unicode="&#x163;" horiz-adv-x="742" 
d="M122 -434q-14 0 -8 13l125 274q4 8 8 11t12 4l107 19q15 2 7 -10l-151 -299q-7 -12 -21 -12h-79zM353 -22q-58 0 -99 9.5t-64 39t-27 83.5t13 143l133 718l-208 11q-13 1 -12 15l11 60q1 14 16 14h211l37 199q3 14 17 17l88 18q14 3 11 -11l-43 -223h334q13 0 9 -13
l-29 -74q-5 -13 -19 -13h-313l-132 -715q-11 -58 -10 -92.5t14 -53t38.5 -24t63.5 -5.5q35 0 75 4t69 10q14 3 14 -11l-3 -67q0 -14 -14 -17q-35 -8 -84 -15t-97 -7z" />
    <glyph glyph-name="uni0167" unicode="&#x167;" horiz-adv-x="754" 
d="M361 -22q-58 0 -99 9.5t-64 39t-27 83.5t13 143l54 294q-6 0 -8 1l-172 11q-13 1 -12 15l11 57q1 14 16 14h183l61 326l-208 11q-13 1 -12 15l11 60q1 14 16 14h211l37 199q3 14 17 17l88 18q14 3 11 -11l-43 -223h334q13 0 9 -13l-29 -74q-5 -13 -19 -13h-313l-61 -326
h294q13 0 9 -13l-28 -72q-5 -13 -19 -13h-274l-53 -291q-11 -58 -10 -92.5t14 -53t38.5 -24t63.5 -5.5q35 0 75 4t69 10q14 3 14 -11l-3 -67q0 -14 -14 -17q-35 -8 -84 -15t-97 -7z" />
    <glyph glyph-name="thorn" unicode="&#xfe;" horiz-adv-x="1167" 
d="M0 -451q-14 0 -11 14l268 1443l10 55l97 527q3 14 17 17l87 18q14 3 11 -11l-99 -535q66 8 128 11.5t120 3.5q138 0 226.5 -25t134.5 -83.5t52.5 -154t-19.5 -236.5l-20 -113q-27 -143 -68 -239t-107.5 -154.5t-165 -83.5t-239.5 -25q-62 0 -126.5 7t-115.5 18l-81 -440
q-3 -14 -17 -14h-82zM609 989q-63 0 -127.5 -4t-122.5 -12l-160 -870q25 -6 55 -10t61.5 -7t63.5 -4.5t60 -1.5q116 0 194 20t129 68t81.5 128.5t52.5 200.5l13 75q23 121 22.5 201.5t-33.5 128.5t-103 67.5t-186 19.5z" />
    <glyph glyph-name="uacute" unicode="&#xfa;" horiz-adv-x="1196" 
d="M612 1262q-14 0 -4 10l234 239q11 10 24 10h134q6 0 7.5 -2.5t-3.5 -6.5l-268 -241q-9 -9 -24 -9h-100zM495 -22q-134 0 -215.5 25t-121 79t-43 139t19.5 206l117 630q3 14 17 14h82q14 0 11 -14l-115 -626q-20 -106 -17 -174t33.5 -107t92 -53.5t158.5 -14.5
q36 0 75.5 2.5t79 6.5t76 9.5t66.5 12.5l175 944q3 14 17 14h83q14 0 11 -14l-186 -1013q-3 -14 -17 -17q-38 -9 -84 -18t-97.5 -15.5t-107 -11t-110.5 -4.5z" />
    <glyph glyph-name="ucircumflex" unicode="&#xfb;" horiz-adv-x="1196" 
d="M734 1440l-162 -164q-11 -10 -24 -10h-110q-14 0 -4 10l253 235q11 10 24 10h82q14 0 22 -11l163 -233q8 -11 -6 -11h-92q-14 0 -22 12l-103 162h-21zM495 -22q-134 0 -215.5 25t-121 79t-43 139t19.5 206l117 630q3 14 17 14h82q14 0 11 -14l-115 -626
q-20 -106 -17 -174t33.5 -107t92 -53.5t158.5 -14.5q36 0 75.5 2.5t79 6.5t76 9.5t66.5 12.5l175 944q3 14 17 14h83q14 0 11 -14l-186 -1013q-3 -14 -17 -17q-38 -9 -84 -18t-97.5 -15.5t-107 -11t-110.5 -4.5z" />
    <glyph glyph-name="udieresis" unicode="&#xfc;" horiz-adv-x="1196" 
d="M521 1252q-14 0 -11 14l47 258q3 14 17 17l95 18q14 3 11 -11l-52 -282q-3 -14 -17 -14h-90zM814 1252q-14 0 -11 14l47 258q3 14 17 17l96 18q14 3 11 -11l-52 -282q-3 -14 -17 -14h-91zM495 -22q-134 0 -215.5 25t-121 79t-43 139t19.5 206l117 630q3 14 17 14h82
q14 0 11 -14l-115 -626q-20 -106 -17 -174t33.5 -107t92 -53.5t158.5 -14.5q36 0 75.5 2.5t79 6.5t76 9.5t66.5 12.5l175 944q3 14 17 14h83q14 0 11 -14l-186 -1013q-3 -14 -17 -17q-38 -9 -84 -18t-97.5 -15.5t-107 -11t-110.5 -4.5z" />
    <glyph glyph-name="ugrave" unicode="&#xf9;" horiz-adv-x="1196" 
d="M495 -22q-134 0 -215.5 25t-121 79t-43 139t19.5 206l117 630q3 14 17 14h82q14 0 11 -14l-115 -626q-20 -106 -17 -174t33.5 -107t92 -53.5t158.5 -14.5q36 0 75.5 2.5t79 6.5t76 9.5t66.5 12.5l175 944q3 14 17 14h83q14 0 11 -14l-186 -1013q-3 -14 -17 -17
q-38 -9 -84 -18t-97.5 -15.5t-107 -11t-110.5 -4.5zM711 1262q-14 0 -22 11l-173 237q-8 11 6 11h122q14 0 21 -12l142 -235q6 -12 -7 -12h-89z" />
    <glyph glyph-name="uhungarumlaut" unicode="&#x171;" horiz-adv-x="1196" 
d="M495 -22q-134 0 -215.5 25t-121 79t-43 139t19.5 206l117 630q3 14 17 14h82q14 0 11 -14l-115 -626q-20 -106 -17 -174t33.5 -107t92 -53.5t158.5 -14.5q36 0 75.5 2.5t79 6.5t76 9.5t66.5 12.5l175 944q3 14 17 14h83q14 0 11 -14l-186 -1013q-3 -14 -17 -17
q-38 -9 -84 -18t-97.5 -15.5t-107 -11t-110.5 -4.5zM751 1260q-14 0 -6 11l179 239q8 11 22 11h109q14 0 5 -11l-206 -239q-5 -6 -10 -8.5t-13 -2.5h-80zM492 1260q-14 0 -6 11l178 239q8 11 22 11h106q14 0 5 -11l-203 -239q-5 -6 -10 -8.5t-13 -2.5h-79z" />
    <glyph glyph-name="umacron" unicode="&#x16b;" horiz-adv-x="1196" 
d="M495 -22q-134 0 -215.5 25t-121 79t-43 139t19.5 206l117 630q3 14 17 14h82q14 0 11 -14l-115 -626q-20 -106 -17 -174t33.5 -107t92 -53.5t158.5 -14.5q36 0 75.5 2.5t79 6.5t76 9.5t66.5 12.5l175 944q3 14 17 14h83q14 0 11 -14l-186 -1013q-3 -14 -17 -17
q-38 -9 -84 -18t-97.5 -15.5t-107 -11t-110.5 -4.5zM487 1336q-14 0 -11 14l13 68q3 14 17 14h470q14 0 11 -14l-13 -68q-3 -14 -17 -14h-470z" />
    <glyph glyph-name="uogonek" unicode="&#x173;" horiz-adv-x="1200" 
d="M495 -22q-134 0 -215.5 25t-121 79t-43 139t19.5 206l117 630q3 14 17 14h82q14 0 11 -14l-115 -626q-20 -106 -17 -174t34 -107t92 -53.5t158 -14.5q36 0 75.5 2.5t79 6.5t76 9.5t66.5 12.5l175 944q3 14 17 14h83q14 0 11 -14l-186 -1014q-2 -7 -4.5 -11t-10.5 -9
q-41 -23 -85.5 -62t-81 -82t-60 -85t-23.5 -72q0 -28 19.5 -40t67.5 -12q43 0 90 6q14 1 13 -12l-5 -49q-1 -13 -15 -17q-22 -5 -51 -7.5t-63 -2.5q-47 0 -77.5 8.5t-48.5 22.5t-25 33.5t-7 40.5q0 39 17.5 81t45 83t63 77.5t71.5 63.5q-58 -8 -120.5 -14t-125.5 -6z" />
    <glyph glyph-name="uring" unicode="&#x16f;" horiz-adv-x="1196" 
d="M761 1501q-75 0 -106.5 -30t-31.5 -96q0 -42 25.5 -59t75.5 -17q77 0 107 31t30 98q0 40 -24 56.5t-76 16.5zM708 1224q-170 0 -170 139q0 102 59 158t177 56q84 0 127 -35.5t43 -105.5q0 -100 -61 -156t-175 -56zM495 -22q-134 0 -215.5 25t-121 79t-43 139t19.5 206
l117 630q3 14 17 14h82q14 0 11 -14l-115 -626q-20 -106 -17 -174t33.5 -107t92 -53.5t158.5 -14.5q36 0 75.5 2.5t79 6.5t76 9.5t66.5 12.5l175 944q3 14 17 14h83q14 0 11 -14l-186 -1013q-3 -14 -17 -17q-38 -9 -84 -18t-97.5 -15.5t-107 -11t-110.5 -4.5z" />
    <glyph glyph-name="utilde" unicode="&#x169;" horiz-adv-x="1196" 
d="M495 -22q-134 0 -215.5 25t-121 79t-43 139t19.5 206l117 630q3 14 17 14h82q14 0 11 -14l-115 -626q-20 -106 -17 -174t33.5 -107t92 -53.5t158.5 -14.5q36 0 75.5 2.5t79 6.5t76 9.5t66.5 12.5l175 944q3 14 17 14h83q14 0 11 -14l-186 -1013q-3 -14 -17 -17
q-38 -9 -84 -18t-97.5 -15.5t-107 -11t-110.5 -4.5zM582 1438q-18 0 -33.5 -5t-28 -21t-23.5 -46t-21 -81q-3 -14 -17 -14h-60q-15 0 -12 14q12 79 32.5 127t47.5 73.5t57.5 33.5t61.5 8q22 0 40.5 -4.5t37.5 -14.5t39 -27t44 -42q21 -23 38 -38.5t31.5 -25.5t28.5 -14.5
t29 -4.5q18 0 33 5t27.5 21t23.5 46.5t21 81.5q3 14 17 14h61q15 0 12 -14q-12 -80 -33 -128t-47.5 -73.5t-57.5 -33.5t-62 -8q-22 0 -40.5 4.5t-37 14.5t-38.5 27t-44 42q-21 22 -38 38t-31.5 26t-28.5 14.5t-29 4.5z" />
    <glyph glyph-name="uni01D4" unicode="&#x1d4;" horiz-adv-x="1196" 
d="M469 1510q-8 11 6 11h92q14 0 22 -12l103 -162h21l162 164q11 10 24 10h110q14 0 4 -10l-253 -235q-9 -10 -24 -10h-82q-14 0 -22 11zM495 -22q-134 0 -215.5 25t-121 79t-43 139t19.5 206l117 630q3 14 17 14h82q14 0 11 -14l-115 -626q-20 -106 -17 -174t33.5 -107
t92 -53.5t158.5 -14.5q36 0 75.5 2.5t79 6.5t76 9.5t66.5 12.5l175 944q3 14 17 14h83q14 0 11 -14l-186 -1013q-3 -14 -17 -17q-38 -9 -84 -18t-97.5 -15.5t-107 -11t-110.5 -4.5z" />
    <glyph glyph-name="yacute" unicode="&#xfd;" horiz-adv-x="954" 
d="M-64 -473q-25 0 -56 3.5t-57 10.5q-13 4 -8 17l26 72q3 7 7 9.5t12 0.5q21 -5 46.5 -8t46.5 -3q40 0 71.5 4t60 17.5t55 38.5t55 66t62 101t75.5 144q-1 0 -6 2.5t-11.5 12t-13.5 28t-13 49.5l-180 965q-3 14 11 14h90q15 0 16 -14l144 -805q4 -23 7.5 -46t6.5 -41
t5.5 -29.5t3.5 -11.5l465 934q6 13 20 13h98q14 0 8 -12l-582 -1141q-44 -85 -80.5 -147t-70 -105.5t-66.5 -70.5t-70 -42t-80.5 -20.5t-97.5 -5.5zM473 1262q-14 0 -4 10l234 239q11 10 24 10h134q6 0 7.5 -2.5t-3.5 -6.5l-268 -241q-9 -9 -24 -9h-100z" />
    <glyph glyph-name="ydieresis" unicode="&#xff;" horiz-adv-x="954" 
d="M-64 -473q-25 0 -56 3.5t-57 10.5q-13 4 -8 17l26 72q3 7 7 9.5t12 0.5q21 -5 46.5 -8t46.5 -3q40 0 71.5 4t60 17.5t55 38.5t55 66t62 101t75.5 144q-1 0 -6 2.5t-11.5 12t-13.5 28t-13 49.5l-180 965q-3 14 11 14h90q15 0 16 -14l144 -805q4 -23 7.5 -46t6.5 -41
t5.5 -29.5t3.5 -11.5l465 934q6 13 20 13h98q14 0 8 -12l-582 -1141q-44 -85 -80.5 -147t-70 -105.5t-66.5 -70.5t-70 -42t-80.5 -20.5t-97.5 -5.5zM378 1252q-14 0 -11 14l47 258q3 14 17 17l95 18q14 3 11 -11l-52 -282q-3 -14 -17 -14h-90zM671 1252q-14 0 -11 14l47 258
q3 14 17 17l96 18q14 3 11 -11l-52 -282q-3 -14 -17 -14h-91z" />
    <glyph glyph-name="zacute" unicode="&#x17a;" horiz-adv-x="989" 
d="M477 1262q-14 0 -4 10l234 239q11 10 24 10h134q6 0 7.5 -2.5t-3.5 -6.5l-268 -241q-9 -9 -24 -9h-100zM782 104q15 0 12 -13l-15 -80q-2 -11 -17 -11h-771q-13 0 -10 17l13 66q2 13 6.5 19t10.5 12l805 853h-647q-12 0 -9 14l16 78q3 12 16 12h776q8 0 9.5 -3t-0.5 -11
l-14 -70q-2 -10 -6 -16t-10 -12l-805 -855h640z" />
    <glyph glyph-name="zcaron" unicode="&#x17e;" horiz-adv-x="989" 
d="M361 1510q-8 11 6 11h92q14 0 22 -12l103 -162h21l162 164q11 10 24 10h110q14 0 4 -10l-253 -235q-9 -10 -24 -10h-82q-14 0 -22 11zM782 104q15 0 12 -13l-15 -80q-2 -11 -17 -11h-771q-13 0 -10 17l13 66q2 13 6.5 19t10.5 12l805 853h-647q-12 0 -9 14l16 78
q3 12 16 12h776q8 0 9.5 -3t-0.5 -11l-14 -70q-2 -10 -6 -16t-10 -12l-805 -855h640z" />
    <glyph glyph-name="zdotaccent" unicode="&#x17c;" horiz-adv-x="989" 
d="M782 104q15 0 12 -13l-15 -80q-2 -11 -17 -11h-771q-13 0 -10 17l13 66q2 13 6.5 19t10.5 12l805 853h-647q-12 0 -9 14l16 78q3 12 16 12h776q8 0 9.5 -3t-0.5 -11l-14 -70q-2 -10 -6 -16t-10 -12l-805 -855h640zM538 1252q-14 0 -11 14l47 258q3 14 17 17l97 18
q14 3 11 -11l-52 -282q-3 -14 -17 -14h-92z" />
    <glyph glyph-name="fl" unicode="&#xfb02;" horiz-adv-x="1185" 
d="M783 0q-14 0 -11 14l291 1574q3 14 17 17l87 18q14 3 11 -11l-296 -1598q-3 -14 -17 -14h-82zM115 979q-14 1 -11 15l11 63q3 14 17 14h206l24 127q22 119 47 201t68 132.5t111.5 72.5t176.5 22q48 0 93.5 -4t80.5 -9q15 -2 9 -15l-28 -72q-3 -8 -7 -10t-12 -1
q-16 1 -35 2.5t-39 2t-38.5 1t-33.5 0.5q-68 0 -113.5 -12t-75 -39t-46.5 -70.5t-29 -105.5l-41 -223h277q13 0 9 -13l-30 -76q-5 -13 -19 -13h-256l-207 -1122q-19 -102 -47 -165t-69 -97.5t-99 -46t-137 -11.5q-33 0 -72.5 3t-70.5 11q-13 4 -8 17l26 71q5 13 19 10
q26 -5 58 -8t60 -3q56 0 94 9t63.5 33.5t42 67t29.5 109.5l207 1122z" />
    <glyph glyph-name="fi" unicode="&#xfb01;" horiz-adv-x="1172" 
d="M777 0q-14 0 -11 14l192 1043q3 14 17 14h83q14 0 11 -14l-193 -1043q-3 -14 -17 -14h-82zM1004 1252q-14 0 -11 14l46 258q3 14 17 17l98 18q14 3 11 -11l-52 -282q-3 -14 -17 -14h-92zM115 979q-14 1 -11 15l11 63q3 14 17 14h206l24 127q22 119 47 201t68 132.5
t111.5 72.5t176.5 22q48 0 93.5 -4t80.5 -9q15 -2 9 -15l-28 -72q-3 -8 -7 -10t-12 -1q-16 1 -35 2.5t-39 2t-38.5 1t-33.5 0.5q-68 0 -113.5 -12t-75 -39t-46.5 -70.5t-29 -105.5l-41 -223h277q13 0 9 -13l-30 -76q-5 -13 -19 -13h-256l-207 -1122q-19 -102 -47 -165
t-69 -97.5t-99 -46t-137 -11.5q-33 0 -72.5 3t-70.5 11q-13 4 -8 17l26 71q5 13 19 10q26 -5 58 -8t60 -3q56 0 94 9t63.5 33.5t42 67t29.5 109.5l207 1122z" />
    <glyph glyph-name="period" unicode="." horiz-adv-x="410" 
d="M47 0q-14 0 -11 14l37 201q3 14 17 17l96 18q14 3 11 -11l-40 -225q-3 -14 -17 -14h-93z" />
    <glyph glyph-name="comma" unicode="," horiz-adv-x="440" 
d="M-60 -233q-13 0 -9 13l160 436q3 8 7 11t12 4l118 20q14 2 8 -11l-200 -460q-4 -8 -8 -10.5t-12 -2.5h-76z" />
    <glyph glyph-name="semicolon" unicode=";" horiz-adv-x="513" 
d="M-25 -233q-13 0 -9 13l160 436q3 8 7 11t12 4l118 20q14 2 8 -11l-200 -460q-4 -8 -8 -10.5t-12 -2.5h-76zM229 676q-14 0 -11 14l37 201q3 14 17 17l96 18q14 3 11 -11l-40 -225q-3 -14 -17 -14h-93z" />
    <glyph glyph-name="colon" unicode=":" horiz-adv-x="480" 
d="M78 0q-14 0 -11 14l37 201q3 14 17 17l96 18q14 3 11 -11l-40 -225q-3 -14 -17 -14h-93zM203 676q-14 0 -11 14l37 201q3 14 17 17l96 18q14 3 11 -11l-40 -225q-3 -14 -17 -14h-93z" />
    <glyph glyph-name="ellipsis" unicode="&#x2026;" horiz-adv-x="1251" 
d="M47 0q-14 0 -11 14l37 201q3 14 17 17l96 18q14 3 11 -11l-40 -225q-3 -14 -17 -14h-93zM467 0q-14 0 -11 14l37 201q3 14 17 17l96 18q14 3 11 -11l-40 -225q-3 -14 -17 -14h-93zM888 0q-14 0 -11 14l37 201q3 14 17 17l96 18q14 3 11 -11l-40 -225q-3 -14 -17 -14h-93z
" />
    <glyph glyph-name="exclam" unicode="!" horiz-adv-x="515" 
d="M187 447q-13 0 -12 14l175 1000q1 14 16 17l98 18q14 3 11 -11l-199 -1024q-3 -14 -17 -14h-72zM93 0q-14 0 -11 14l37 201q3 14 17 17l96 18q14 3 11 -11l-40 -225q-3 -14 -17 -14h-93z" />
    <glyph glyph-name="exclamdown" unicode="&#xa1;" horiz-adv-x="493" 
d="M288 624q13 0 12 -14l-175 -1000q-1 -14 -16 -17l-98 -18q-14 -3 -11 11l199 1024q3 14 17 14h72zM382 1071q14 0 11 -14l-37 -201q-3 -14 -17 -17l-96 -18q-14 -3 -11 11l40 225q3 14 17 14h93z" />
    <glyph glyph-name="question" unicode="?" horiz-adv-x="867" 
d="M324 411q-1 -14 -16 -14h-76q-14 0 -13 14q2 15 4.5 42t7.5 54q9 59 20.5 101.5t34 80t59.5 76t99 91.5l71 60q52 45 92 81.5t69 70.5t47 68.5t26 75.5q17 96 -47 134.5t-204 38.5q-55 0 -112 -4t-129 -14q-14 -1 -14 12l-2 78q0 14 14 17q63 12 136.5 17.5t137.5 5.5
q89 0 158.5 -13.5t114.5 -45t64 -83.5t6 -129q-8 -50 -26 -91.5t-50 -82.5t-79 -86t-114 -102l-80 -70q-56 -48 -88 -81t-50 -63.5t-27 -64.5t-18 -83zM156 0q-14 0 -11 14l38 201q3 14 17 17l95 18q14 3 11 -11l-40 -225q-3 -14 -17 -14h-93z" />
    <glyph glyph-name="questiondown" unicode="&#xbf;" horiz-adv-x="832" 
d="M502 660q1 14 16 14h76q14 0 13 -14q-2 -15 -4.5 -42t-7.5 -54q-6 -39 -13 -70.5t-17 -59t-24.5 -52t-36 -50t-51.5 -54t-71 -63.5l-71 -60q-52 -45 -92 -81.5t-69 -70.5t-47 -68.5t-26 -75.5q-17 -96 47 -134.5t204 -38.5q55 0 112 4t129 14q14 1 14 -12l2 -78
q0 -14 -14 -17q-63 -12 -136.5 -17.5t-137.5 -5.5q-89 0 -158.5 13.5t-114.5 45t-64 83.5t-6 129q8 50 26 91.5t50 82.5t79 86t114 102l80 70q56 48 88 81t50 63.5t27 64.5t18 83zM670 1071q14 0 11 -14l-38 -201q-3 -14 -17 -17l-95 -18q-14 -3 -11 11l40 225q3 14 17 14
h93z" />
    <glyph glyph-name="underscore" unicode="_" horiz-adv-x="917" 
d="M-83 -221q-14 0 -11 14l15 80q3 14 17 14h783q14 0 11 -14l-15 -80q-3 -14 -17 -14h-783z" />
    <glyph glyph-name="hyphen" unicode="-" horiz-adv-x="831" 
d="M173 553q-14 0 -11 14l14 80q3 14 17 14h457q14 0 11 -14l-15 -80q-3 -14 -17 -14h-456z" />
    <glyph glyph-name="endash" unicode="&#x2013;" horiz-adv-x="1121" 
d="M173 553q-14 0 -11 14l14 80q3 14 17 14h747q14 0 11 -14l-14 -80q-3 -14 -17 -14h-747z" />
    <glyph glyph-name="emdash" unicode="&#x2014;" horiz-adv-x="1896" 
d="M173 553q-14 0 -11 14l14 80q3 14 17 14h1523q14 0 11 -14l-15 -80q-3 -14 -17 -14h-1522z" />
    <glyph glyph-name="quoteleft" unicode="&#x2018;" horiz-adv-x="401" 
d="M273 1016q-14 0 -15 14l-31 453q-1 13 13 12l104 -18q14 -1 14 -16l3 -431q0 -14 -14 -14h-74z" />
    <glyph glyph-name="quoteright" unicode="&#x2019;" horiz-adv-x="423" 
d="M191 1016q-16 0 -9 17l153 430q4 13 17 14l122 17q21 3 14 -16l-192 -448q-6 -14 -17 -14h-88z" />
    <glyph glyph-name="quotedblleft" unicode="&#x201c;" horiz-adv-x="667" 
d="M541 1016q-14 0 -15 14l-38 453q-1 13 13 12l107 -18q14 -1 14 -16l7 -431q0 -14 -14 -14h-74zM277 1016q-14 0 -15 14l-38 453q-1 13 13 12l107 -18q14 -1 14 -16l7 -431q0 -14 -14 -14h-74z" />
    <glyph glyph-name="quotedblright" unicode="&#x201d;" horiz-adv-x="691" 
d="M191 1017q-15 0 -10 14l158 433q4 13 17 14l118 17q21 3 14 -16l-192 -448q-6 -14 -19 -14h-86zM459 1017q-15 0 -10 14l158 433q4 13 17 14l118 17q21 3 14 -16l-192 -448q-6 -14 -19 -14h-86z" />
    <glyph glyph-name="quotesinglbase" unicode="&#x201a;" horiz-adv-x="440" 
d="M-62 -227q-17 0 -12 14l154 433q4 13 17 14l122 17q21 3 14 -16l-192 -448q-6 -14 -17 -14h-86z" />
    <glyph glyph-name="quotedblbase" unicode="&#x201e;" horiz-adv-x="714" 
d="M-57 -227q-15 0 -10 14l158 433q4 13 17 14l118 17q21 3 14 -16l-192 -448q-6 -14 -19 -14h-86zM211 -227q-15 0 -10 14l158 433q4 13 17 14l118 17q21 3 14 -16l-192 -448q-6 -14 -19 -14h-86z" />
    <glyph glyph-name="guilsinglleft" unicode="&#x2039;" horiz-adv-x="691" 
d="M369 219q-8 0 -13 2.5t-10 8.5l-285 369q-9 10 2 20l425 374q10 9 25 9h122q6 0 7 -2.5t-4 -6.5l-444 -396l287 -367q9 -11 -5 -11h-107z" />
    <glyph glyph-name="guilsinglright" unicode="&#x203a;" horiz-adv-x="694" 
d="M318 1001q8 0 13 -2.5t10 -8.5l285 -369q9 -10 -2 -20l-425 -374q-10 -9 -25 -9h-122q-6 0 -7 2.5t4 6.5l444 396l-287 367q-9 11 5 11h107z" />
    <glyph glyph-name="guillemotleft" unicode="&#xab;" horiz-adv-x="1137" 
d="M369 219q-8 0 -13 2.5t-10 8.5l-285 369q-9 10 2 20l425 374q10 9 25 9h122q6 0 7 -2.5t-4 -6.5l-444 -396l287 -367q9 -11 -5 -11h-107zM815 219q-8 0 -13 2.5t-10 8.5l-285 369q-9 10 2 20l425 374q10 9 25 9h122q6 0 7 -2.5t-4 -6.5l-444 -396l287 -367q9 -11 -5 -11
h-107z" />
    <glyph glyph-name="guillemotright" unicode="&#xbb;" horiz-adv-x="1141" 
d="M319 1001q8 0 13 -2.5t10 -8.5l285 -369q9 -10 -2 -20l-425 -374q-10 -9 -25 -9h-122q-6 0 -7 2.5t4 6.5l444 396l-287 367q-9 11 5 11h107zM766 1001q8 0 13 -2.5t10 -8.5l285 -369q9 -10 -2 -20l-425 -374q-10 -9 -25 -9h-122q-6 0 -7 2.5t4 6.5l444 396l-287 367
q-9 11 5 11h107z" />
    <glyph glyph-name="parenleft" unicode="(" horiz-adv-x="557" 
d="M227 517q-12 -70 -20 -146.5t-10.5 -156t1 -159t15 -155.5t30.5 -146t47 -130q6 -13 -8 -13h-88q-15 0 -20 13q-43 88 -65.5 200t-28.5 231t2.5 238.5t28.5 222.5l10 62q19 109 54.5 228t85 236t112.5 225.5t138 196.5q5 6 10 8.5t13 2.5h92q13 0 5 -11
q-76 -90 -140.5 -202t-115 -231t-86 -238.5t-54.5 -224.5l-8 -51v0z" />
    <glyph glyph-name="parenright" unicode=")" horiz-adv-x="561" 
d="M304 568q12 70 20 146.5t10.5 156t-1 159t-15 155.5t-30.5 146t-47 130q-6 13 8 13h88q15 0 20 -13q43 -88 65.5 -200t28.5 -231t-2.5 -238.5t-28.5 -222.5l-10 -62q-20 -109 -55 -228t-84.5 -236t-112.5 -225.5t-138 -196.5q-5 -6 -10 -8.5t-13 -2.5h-92q-13 0 -5 11
q76 90 140.5 202t115 231t86 238.5t54.5 224.5l8 51v0z" />
    <glyph glyph-name="bracketleft" unicode="[" horiz-adv-x="603" 
d="M16 -389q-14 0 -11 14l355 1917q3 14 17 14h384q14 0 11 -14l-14 -81q-3 -14 -17 -14h-285l-319 -1727h284q14 0 11 -14l-14 -81q-3 -14 -17 -14h-385z" />
    <glyph glyph-name="bracketright" unicode="]" horiz-adv-x="578" 
d="M548 1556q14 0 11 -14l-355 -1917q-3 -14 -17 -14h-384q-14 0 -11 14l14 81q3 14 17 14h285l319 1727h-284q-14 0 -11 14l14 81q3 14 17 14h385z" />
    <glyph glyph-name="braceleft" unicode="{" horiz-adv-x="631" 
d="M260 -389q-62 0 -103.5 9.5t-63.5 37.5t-25 78.5t12 131.5l66 353q11 60 14.5 100t-3.5 68.5t-25 48.5t-49 41q-12 8 -9 22l15 84q3 13 15 20q40 21 66 41t43 48.5t28.5 69t22.5 100.5l66 353q16 90 38 141.5t54 77.5t77 32.5t107 6.5h137q13 0 12 -14l-15 -82
q-1 -14 -16 -14h-136q-36 0 -60 -5t-39.5 -20.5t-25 -44.5t-18.5 -76l-67 -355q-13 -69 -27 -118t-35 -85t-51 -62t-74 -50l-3 -12q36 -24 56 -52.5t27.5 -66t4 -85.5t-15.5 -111l-67 -356q-8 -47 -8.5 -76t9 -44.5t31 -20.5t58.5 -5h135q14 0 11 -14l-15 -81
q-3 -14 -17 -14h-137v0z" />
    <glyph glyph-name="braceright" unicode="}" horiz-adv-x="613" 
d="M323 1474q62 0 103.5 -9.5t63.5 -37.5t25 -78.5t-12 -131.5l-66 -353q-11 -60 -14.5 -100t3 -68.5t24.5 -48.5t50 -41q12 -8 9 -22l-15 -84q-3 -13 -15 -20q-40 -21 -66 -41t-43 -48.5t-28.5 -69t-22.5 -100.5l-66 -353q-17 -90 -38.5 -141.5t-53.5 -77.5t-77 -32.5
t-107 -6.5h-137q-13 0 -12 14l15 82q1 14 16 14h136q36 0 60 5t39.5 20.5t25 44.5t18.5 76l67 355q13 69 27 118t35 85t51 62t74 50l3 12q-36 24 -56 52.5t-27.5 66t-4 85.5t15.5 111l67 356q8 47 8.5 76t-9 44.5t-31 20.5t-58.5 5h-135q-14 0 -11 14l15 81q3 14 17 14h137
v0z" />
    <glyph glyph-name="ampersand" unicode="&#x26;" horiz-adv-x="1375" 
d="M1076 0q-14 0 -22 12l-118 184q-117 -99 -262 -158.5t-320 -59.5q-31 0 -67 3t-72 13.5t-69.5 30.5t-59.5 53t-41.5 81t-15.5 116q0 55 9.5 101.5t32 90t59 86t90 89.5t125 101.5t165.5 120.5q-33 52 -58.5 98t-43 88t-27 81.5t-9.5 78.5q0 82 27 137.5t75.5 88.5t116 47
t147.5 14q60 0 110 -13t87 -39.5t57.5 -67.5t20.5 -96q0 -66 -19 -114.5t-62 -95t-111 -98t-165 -123.5l307 -483q75 80 136 173.5t106 196.5q5 13 19 13h80q13 0 9 -13q-54 -126 -126 -243.5t-166 -217.5l168 -264q7 -12 -6 -12h-107zM148 304q0 -75 22 -119t56 -66.5
t74.5 -29t76.5 -6.5q138 0 265 54.5t237 148.5l-317 496q-106 -77 -184 -138.5t-129 -117t-76 -109t-25 -113.5zM721 1402q-49 0 -92.5 -9t-76.5 -30t-52 -56.5t-19 -87.5q0 -35 9.5 -70t26.5 -70.5t39 -72t48 -75.5q81 58 138 102t92.5 82.5t52 75t16.5 78.5q0 69 -49 101
t-133 32z" />
    <glyph glyph-name="asterisk" unicode="*" horiz-adv-x="912" 
d="M245 1328q-12 8 -4 19l44 59q8 11 20 3l216 -143l50 284q3 14 17 14h68q14 0 11 -14l-55 -281l271 144q12 5 17 -7l26 -59q5 -13 -7 -19l-276 -140l219 -136q12 -8 4 -19l-45 -60q-8 -11 -20 -3l-219 144l-48 -286q-3 -14 -17 -14h-68q-14 0 -11 14l56 282l-272 -144
q-12 -5 -17 7l-24 59q-5 13 7 19l274 140z" />
    <glyph glyph-name="asterisk.alt" horiz-adv-x="1051" 
d="M313 1261q0 -54 13 -94.5t45 -67.5t84.5 -40.5t132.5 -13.5q108 0 184.5 23t125 78t71.5 147.5t23 231.5q0 55 -13.5 95.5t-45 67.5t-85 40.5t-132.5 13.5q-108 0 -184 -23t-125 -78.5t-71.5 -148t-22.5 -231.5zM1088 1545q0 -173 -32 -287t-96 -182t-161 -95.5
t-227 -27.5q-99 0 -166.5 17t-109.5 52t-60 89.5t-18 128.5q0 173 31.5 287.5t95 182.5t160 95.5t227.5 27.5q100 0 168 -17.5t110 -53t60 -89.5t18 -128zM816 1489q9 10 24 10h102q6 0 7.5 -2.5t-3.5 -6.5l-249 -223q-9 -9 -24 -9h-87q-14 0 -22 11l-164 219q-8 11 6 11h87
q14 0 22 -11l115 -160h12z" />
    <glyph glyph-name="dagger" unicode="&#x2020;" horiz-adv-x="910" 
d="M169 1026q-13 0 -9 13l30 74q5 13 19 13h278l62 335q3 14 17 14h85q14 0 11 -14l-62 -335h299q13 0 9 -13l-29 -74q-5 -13 -19 -13h-279l-187 -1012q-3 -14 -17 -14h-86q-14 0 -11 14l188 1012h-299z" />
    <glyph glyph-name="daggerdbl" unicode="&#x2021;" horiz-adv-x="963" 
d="M804 449q13 0 9 -13l-29 -74q-5 -13 -19 -13h-277l-62 -335q-3 -14 -17 -14h-87q-14 0 -11 14l62 335h-298q-13 0 -9 13l29 74q5 13 19 13h277l108 577h-299q-13 0 -9 13l30 74q5 13 19 13h277l63 335q3 14 17 14h86q14 0 11 -14l-62 -335h297q13 0 9 -13l-28 -74
q-5 -13 -19 -13h-278l-107 -577h298z" />
    <glyph glyph-name="section" unicode="&#xa7;" horiz-adv-x="1087" 
d="M266 -450q-40 0 -82 2t-83 6t-78.5 10t-67.5 13q-14 3 -8 16l35 79q4 8 8 10t12 1q81 -14 149 -19.5t127 -5.5q122 0 207 20t138.5 59.5t77.5 99t24 137.5q0 41 -14 71.5t-44 57t-77.5 51t-114.5 54.5l-116 53q-52 24 -98 51t-80 63.5t-54 84t-20 112.5q0 112 41.5 189
t124.5 131q-33 38 -52 86t-19 111q0 112 33 189t102.5 125t177.5 69t258 21q38 0 76.5 -1.5t75 -5t69.5 -8.5t60 -11q14 -4 9 -17l-30 -77q-5 -13 -19 -10q-26 5 -58.5 8.5t-66.5 6t-68.5 3.5t-65.5 1q-106 0 -185.5 -14.5t-133 -47.5t-80 -86.5t-26.5 -131.5q0 -47 17 -82
t48.5 -63t76 -51.5t98.5 -46.5l130 -58q131 -56 189.5 -128.5t58.5 -172.5q0 -119 -43 -195t-121 -128q37 -38 54 -84t17 -100q0 -119 -35 -204t-107.5 -139t-183.5 -79t-263 -25zM454 778q-53 21 -101 50q-35 -22 -58 -51.5t-37 -61t-20 -62t-6 -54.5q0 -49 17.5 -85.5
t49 -65.5t76 -52.5t99.5 -46.5l131 -56q27 -11 51 -22.5t45 -24.5q35 22 58 52t37 62t19.5 63t5.5 56q0 40 -13 73t-42.5 62.5t-77.5 57t-118 56.5z" />
    <glyph glyph-name="paragraph" unicode="&#xb6;" horiz-adv-x="1073" 
d="M353 -451q-14 0 -11 14l196 1059q-6 0 -24.5 -0.5t-42 -1.5t-48 -1.5t-41.5 -0.5q-88 0 -143.5 15.5t-82.5 60.5t-26.5 126t24.5 212l7 40q24 131 55.5 210.5t78.5 122t114.5 56.5t165.5 14h220q14 0 11 -14l-351 -1898q-3 -14 -17 -14h-85zM565 -451q-14 0 -11 14
l351 1898q3 14 17 14h84q14 0 11 -14l-352 -1898q-3 -14 -17 -14h-83z" />
    <glyph glyph-name="bullet" unicode="&#x2022;" horiz-adv-x="706" 
d="M311 354q-10 -9 -20 2l-171 211q-9 10 2 20l256 216q10 9 20 -2l170 -212q9 -10 -2 -20z" />
    <glyph glyph-name="periodcentered" unicode="&#xb7;" horiz-adv-x="462" 
d="M148 435q-14 0 -11 14l37 201q3 14 17 17l96 18q14 3 11 -11l-40 -225q-3 -14 -17 -14h-93z" />
    <glyph glyph-name="at" unicode="@" horiz-adv-x="1769" 
d="M233 557q-32 -105 -49 -201.5t-14 -181t30 -154t83 -119t144.5 -78t215.5 -29.5q14 0 10 -14l-20 -78q-4 -13 -18 -13q-144 1 -246 34t-168.5 90.5t-100 137t-40.5 175.5t9.5 205t51.5 225l39 129q60 200 156 339.5t222.5 227t281 127t331.5 39.5q151 0 253 -35.5
t163.5 -96t87.5 -142t26 -172.5q0 -187 -37 -327t-101 -240t-151 -165.5t-188 -103.5t-210.5 -53.5t-218.5 -15.5q-123 0 -198 24t-108 77.5t-27.5 138t42.5 206.5l31 104q38 131 83 217t106.5 137t144.5 71.5t199 20.5q59 0 123 -6.5t128 -21.5q14 -3 11 -16l-207 -818
q97 26 182 77t148.5 138.5t100 217.5t36.5 314q0 81 -23.5 149t-76 116.5t-137 75.5t-207.5 27q-155 0 -289.5 -36.5t-244.5 -115.5t-193 -203.5t-135 -299.5zM1018 964q-91 0 -154 -17.5t-109 -59.5t-78.5 -112.5t-61.5 -176.5l-18 -67q-30 -110 -38 -180.5t13.5 -111
t76 -55.5t149.5 -15q61 0 105.5 3.5t89.5 13.5l190 761q-39 5 -80.5 11t-84.5 6z" />
    <glyph glyph-name="copyright" unicode="&#xa9;" horiz-adv-x="1574" 
d="M772 340q-97 0 -160.5 19.5t-97 65t-38.5 119.5t16 184l15 77q20 109 52 182t82 117.5t120.5 63t166.5 18.5q46 0 88.5 -3.5t75.5 -10.5q15 -3 9 -16l-26 -71q-3 -8 -7 -10t-12 -1q-32 5 -69.5 7t-72.5 2q-74 0 -125 -14.5t-85.5 -48.5t-56 -90t-37.5 -139l-9 -55
q-15 -83 -14.5 -139.5t22.5 -90.5t67.5 -48.5t119.5 -14.5q38 0 75.5 2t70.5 8q14 3 14 -11l-1 -71q0 -14 -14 -17q-35 -7 -81 -10.5t-88 -3.5zM259 584q0 -89 21.5 -161.5t73.5 -123.5t137 -79t213 -28q166 0 289.5 43.5t205 135t121.5 234t40 339.5q0 88 -21.5 160
t-72.5 123t-136.5 79t-212.5 28q-167 0 -290.5 -43t-205 -134.5t-122 -233.5t-40.5 -339zM1465 948q0 -222 -47.5 -383.5t-144.5 -266.5t-243 -155.5t-343 -50.5q-148 0 -249 34.5t-163 97.5t-89 152t-27 197q0 223 47 385t143 268t242 157t344 51q148 0 249 -34.5
t163.5 -98.5t90 -153.5t27.5 -199.5z" />
    <glyph glyph-name="registered" unicode="&#xae;" horiz-adv-x="1276" 
d="M1220 1145q0 -186 -40 -315.5t-118 -210.5t-193.5 -117t-266.5 -36q-116 0 -195.5 28.5t-129 79.5t-71.5 122t-22 156q0 187 40.5 316.5t119 210.5t193 117t262.5 36q119 0 200 -28.5t130 -80t70 -122.5t21 -156zM276 859q0 -70 16.5 -126t55.5 -95.5t105 -61t165 -21.5
q137 0 233.5 36.5t158 109.5t89.5 183t28 257q0 69 -16.5 125t-56 95.5t-105.5 60.5t-165 21q-137 0 -233.5 -36t-157.5 -108.5t-89 -182.5t-28 -257zM835 666q-14 0 -18 13l-76 229q-38 -3 -82 -3q-22 0 -46.5 0.5t-50.5 4.5l-43 -230q-3 -14 -17 -14h-55q-14 0 -11 14
l115 627q1 14 16 15q45 4 86 4.5t80 0.5q70 0 120.5 -7t80.5 -27.5t39 -57.5t-3 -96l-8 -43q-13 -72 -44 -114t-95 -60l86 -233q3 -10 -4 -15l-2 -2q-8 -6 -17 -6h-51zM724 1245h-26.5t-28.5 -0.5t-26 -1t-20 -1.5l-48 -254q24 -2 53.5 -2.5t48.5 -0.5q50 0 86 3.5t60 16
t38 36.5t21 65l4 26q8 39 2 62t-26 34t-54.5 14t-83.5 3z" />
    <glyph glyph-name="trademark" unicode="&#x2122;" horiz-adv-x="1684" 
d="M796 684q-14 0 -11 14l146 785q3 14 17 14h84q14 0 18 -13l126 -431l20 -87q0 1 5 9.5t13 21t18 28t20 30.5l284 430q8 12 22 12h90q14 0 11 -14l-145 -785q-3 -14 -17 -14h-68q-14 0 -11 14l105 570l9 55q-2 -1 -14.5 -18.5t-26.5 -38.5l-263 -397q-8 -12 -22 -12h-53
q-14 0 -18 13l-117 391q-7 26 -12 43.5t-7 17.5l-16 -65l-102 -559q-3 -14 -17 -14h-68zM360 684q-14 0 -11 14l129 698h-247q-14 0 -11 14l13 73q3 14 17 14h592q14 0 11 -14l-14 -73q-3 -14 -17 -14h-247l-128 -698q-3 -14 -17 -14h-70z" />
    <glyph glyph-name="asciicircum" unicode="^" horiz-adv-x="1212" 
d="M494 1162q-6 0 -7.5 2.5t3.5 6.5l324 293q9 9 24 9h82q14 0 22 -11l209 -289q8 -11 -6 -11h-95q-14 0 -22 12l-154 222l-250 -225q-9 -9 -24 -9h-106z" />
    <glyph glyph-name="asciitilde" unicode="~" horiz-adv-x="1017" 
d="M160 638q-13 0 -12 14l6 32q15 87 41.5 136t57.5 73t63.5 29t60.5 5q51 0 87 -20t67 -52l54 -56q32 -33 59.5 -52t62.5 -19q22 0 40 5.5t33.5 24.5t28.5 54.5t25 95.5q3 14 17 14h64q13 0 12 -14l-6 -32q-15 -85 -41 -133.5t-57 -72.5t-64.5 -30t-61.5 -6q-50 0 -87 19
t-67 51l-53 57q-33 35 -60 53.5t-62 18.5q-22 0 -40 -6t-33.5 -24.5t-28.5 -54.5t-25 -96q-3 -14 -17 -14h-64z" />
    <glyph glyph-name="bar" unicode="|" horiz-adv-x="597" 
d="M234 -389q-14 0 -14 14v1836q0 14 14 14h87q14 0 14 -14v-1836q0 -14 -14 -14h-87z" />
    <glyph glyph-name="brokenbar" unicode="&#xa6;" horiz-adv-x="589" 
d="M233 707q-14 0 -14 14l-8 740q0 14 14 14h86q14 0 14 -14l-8 -740q0 -14 -14 -14h-70zM225 -389q-14 0 -14 14l8 740q0 14 14 14h70q14 0 14 -14l8 -740q0 -14 -14 -14h-86z" />
    <glyph glyph-name="slash" unicode="/" horiz-adv-x="802" 
d="M-4 0q-14 0 -8 13l767 1530q5 13 20 13h96q14 0 8 -13l-766 -1530q-5 -13 -20 -13h-97z" />
    <glyph glyph-name="backslash" unicode="\" horiz-adv-x="1017" 
d="M729 0q-14 0 -18 13l-492 1529q-5 14 10 14h95q14 0 18 -13l494 -1530q4 -13 -10 -13h-97z" />
    <glyph glyph-name="quotesingle" unicode="'" horiz-adv-x="396" 
d="M216 1016q-14 0 -11 14l79 431q3 15 17 16l100 18q14 1 11 -12l-88 -453q-3 -14 -17 -14h-91z" />
    <glyph glyph-name="quotedbl" unicode="&#x22;" horiz-adv-x="674" 
d="M216 1016q-14 0 -11 14l79 431q3 15 17 16l100 18q14 1 11 -12l-88 -453q-3 -14 -17 -14h-91zM493 1016q-14 0 -11 14l79 431q3 15 17 16l101 18q14 1 11 -12l-88 -453q-3 -14 -17 -14h-92z" />
    <glyph glyph-name="ordfeminine" unicode="&#xaa;" horiz-adv-x="948" 
d="M526 789q45 0 87 2t84 10l54 293h-105q-92 0 -153.5 -6.5t-98.5 -26.5t-53 -57.5t-16 -99.5q0 -39 14.5 -61.5t40.5 -34.5t63.5 -15.5t82.5 -3.5zM619 1409q-59 0 -112.5 -5t-107.5 -13q-14 -1 -11 12l10 55q1 14 16 17q28 6 59.5 10t62 7t58 4t49.5 1q95 0 148 -16
t75.5 -51t20.5 -91t-17 -136l-85 -463q-3 -15 -17 -16q-32 -5 -67.5 -8.5t-70 -6.5t-65 -4.5t-53.5 -1.5q-72 0 -126.5 8.5t-91 29t-55 55t-18.5 87.5q0 89 25 145.5t79 89t139 44.5t205 12h97l10 57q10 53 8.5 87.5t-18.5 54.5t-53 28t-94 8zM141 506q-13 0 -12 14l13 67
q1 14 16 14h630q13 0 12 -14l-13 -67q-1 -14 -16 -14h-630z" />
    <glyph glyph-name="ordmasculine" unicode="&#xba;" horiz-adv-x="967" 
d="M629 1404q-65 0 -112 -16t-80 -50t-54.5 -87t-35.5 -126l-9 -50q-14 -74 -13 -126.5t20.5 -86.5t59.5 -50t105 -16t112 16t80 49.5t54.5 87t35.5 128.5l8 48q14 73 13.5 125.5t-20 86.5t-59.5 50.5t-105 16.5zM496 703q-89 0 -147 21.5t-88.5 66.5t-35 113.5t12.5 162.5
l11 64q18 97 48.5 166.5t78 113.5t114 65t155.5 21q87 0 144.5 -22t88 -67t36 -114t-12.5 -163l-11 -64q-18 -98 -49 -167t-78.5 -112.5t-113.5 -64t-153 -20.5zM145 506q-13 0 -12 14l13 67q1 14 16 14h630q14 0 11 -14l-12 -67q-3 -14 -17 -14h-629z" />
    <glyph glyph-name="afii61352" unicode="&#x2116;" horiz-adv-x="2313" 
d="M1896 1352q-83 0 -143.5 -23t-104 -70t-71.5 -120.5t-46 -173.5l-11 -65q-18 -101 -18 -174t24 -120t75.5 -69.5t136.5 -22.5q84 0 145.5 22t105.5 69t72.5 120.5t48.5 176.5l11 63q19 100 18.5 173t-25.5 120.5t-78 70.5t-140 23zM1720 413q-107 0 -176.5 28
t-105.5 86.5t-41.5 148.5t17.5 213l16 84q23 126 62 216.5t97 148t138 85t186 27.5t176.5 -28.5t108 -87.5t43.5 -148.5t-17 -212.5l-16 -84q-24 -126 -63 -216.5t-98 -148t-139.5 -84.5t-187.5 -27zM1299 202q-13 0 -12 14l14 77q1 14 16 14h774q13 0 12 -14l-15 -77
q-1 -14 -16 -14h-773zM114 0q-14 0 -11 14l267 1447q3 14 17 14h105q14 0 19 -13l428 -1151q20 -55 32 -86.5t13 -31.5l235 1268q3 14 17 14h85q14 0 11 -14l-267 -1447q-3 -14 -17 -14h-105q-14 0 -19 13l-426 1143q-20 54 -32.5 89.5t-13.5 35.5l-236 -1267
q-3 -14 -17 -14h-85z" />
    <glyph glyph-name="dollar" unicode="$" horiz-adv-x="1049" 
d="M330 -257q-14 0 -11 14l42 228q-7 0 -13.5 -0.5t-13.5 -0.5q-80 0 -163 7.5t-145 21.5q-14 3 -8 16l34 72q4 8 8 10t12 0q78 -14 150.5 -18.5t141.5 -4.5h18l122 624l-70 28q-58 24 -104 51t-77.5 62.5t-48.5 82t-17 108.5q0 100 20.5 179t73 135t142 88.5t226.5 41.5
l42 230q3 14 17 14h70q13 0 12 -14l-40 -227q81 0 156.5 -6.5t130.5 -17.5q15 -3 9 -16l-28 -72q-3 -8 -7 -10t-12 -1q-57 10 -129.5 14.5t-143.5 4.5l-115 -600l61 -23q66 -28 113 -58t76 -65.5t42.5 -78t13.5 -94.5q0 -110 -24.5 -194.5t-79 -144t-141.5 -94.5t-213 -46
l-43 -232q-3 -14 -17 -14h-69zM632 1384q-106 -6 -172 -27.5t-103 -60.5t-50 -96.5t-13 -136.5q0 -50 14.5 -84.5t43 -61.5t71.5 -49t100 -46zM476 93q97 9 161.5 34.5t102.5 69t54 105t16 142.5q0 41 -12 72.5t-38 58.5t-68 51.5t-103 51.5z" />
    <glyph glyph-name="dollar.tnum" horiz-adv-x="1100" 
d="M349 -257q-14 0 -11 14l43 228q-8 0 -16 -0.5t-16 -0.5q-42 0 -85.5 2t-85.5 5.5t-80.5 9t-70.5 12.5q-14 3 -8 16l34 72q4 8 8 10t12 1q83 -14 158.5 -19t147.5 -5h24l125 625l-72 27q-61 24 -109 51t-81.5 62.5t-51 82t-17.5 108.5q0 100 21.5 179t76 135t147.5 88.5
t237 41.5l43 230q3 14 17 14h70q13 0 12 -14l-38 -227q87 0 166 -6.5t137 -17.5q15 -3 9 -16l-30 -72q-3 -8 -7 -10t-12 -1q-58 10 -135 14.5t-153 4.5l-121 -599l64 -24q69 -28 118 -58t80 -65.5t45 -78t14 -94.5q0 -110 -25.5 -194.5t-82.5 -144t-148 -94.5t-222 -46
l-44 -232q-3 -14 -17 -14h-70zM661 1384q-112 -6 -181.5 -27.5t-108.5 -60.5t-52.5 -97t-13.5 -136q0 -50 15.5 -85t46 -62t76 -49t105.5 -46zM498 93q102 9 170 34.5t108.5 69t57.5 105t17 142.5q0 41 -12.5 72.5t-40.5 58.5t-73 52t-110 52z" />
    <glyph glyph-name="sterling" unicode="&#xa3;" horiz-adv-x="1072" 
d="M159 735q-13 0 -12 14l15 81q1 14 16 14h111l36 193q15 79 34 142.5t47 112.5t68.5 83.5t98.5 56.5t135.5 32.5t181.5 10.5h171q14 0 11 -14l-14 -82q-3 -14 -17 -14h-169q-119 0 -195 -16t-123 -54t-72 -100.5t-42 -155.5l-36 -195h481q13 0 9 -13l-31 -83
q-5 -13 -19 -13h-461l-65 -354q-10 -53 -21 -94t-25.5 -73.5t-33.5 -58t-45 -46.5h678q14 0 11 -14l-15 -81q-3 -14 -17 -14h-827q-13 0 -12 14l16 89q1 13 14 20q40 21 66.5 41t44 48t29.5 68.5t23 100.5l65 354h-110z" />
    <glyph glyph-name="sterling.tnum" horiz-adv-x="1100" 
d="M155 735q-13 0 -12 14l15 81q1 14 16 14h116l38 193q23 119 57.5 202.5t98 136t166.5 76t264 23.5h175q13 0 12 -14l-15 -82q-1 -14 -16 -14h-174q-125 0 -205 -16t-129.5 -54t-75.5 -100.5t-44 -155.5l-38 -195h503q13 0 9 -13l-31 -83q-5 -13 -19 -13h-483l-69 -354
q-11 -53 -22 -94t-26 -73.5t-34.5 -58t-46.5 -46.5h707q14 0 11 -14l-15 -81q-3 -14 -17 -14h-858q-13 0 -12 14l16 89q1 8 4 12t11 8q41 21 68 41t45.5 48t30.5 68.5t24 100.5l69 354h-114z" />
    <glyph glyph-name="Euro" unicode="&#x20ac;" horiz-adv-x="1264" 
d="M390 843l-5 -28l-27 -155l-6 -29h522q14 0 8 -13l-35 -82q-4 -8 -8 -10.5t-12 -2.5h-488q-11 -125 11.5 -208t73.5 -133.5t129.5 -71.5t180.5 -21q93 0 169.5 7.5t139.5 18.5q14 1 14 -12l-1 -77q0 -14 -14 -17q-63 -14 -150 -22.5t-182 -8.5q-127 0 -224 28t-160 92.5
t-89.5 168.5t-13.5 256h-150q-13 0 -9 13l36 82q5 13 19 13h117l7 39l23 135q2 10 3.5 19t3.5 19h-138q-13 0 -9 13l36 82q5 13 19 13h118q43 157 109 262t153 168t194.5 89.5t235.5 26.5q91 0 173.5 -8.5t138.5 -22.5q14 -4 9 -17l-29 -77q-5 -13 -19 -10
q-64 13 -140.5 18.5t-149.5 5.5q-102 0 -188 -21.5t-156 -71.5t-123.5 -134t-89.5 -208h584q14 0 8 -13l-35 -82q-4 -8 -8 -10.5t-12 -2.5h-564z" />
    <glyph glyph-name="Euro.tnum" horiz-adv-x="1100" 
d="M95 843q-13 0 -9 13l34 80q5 13 19 13h107q39 158 99 263.5t140 168.5t179 89.5t216 26.5q84 0 159.5 -8.5t126.5 -22.5q13 -4 8 -17l-28 -77q-5 -13 -19 -10q-59 13 -128.5 18.5t-135.5 5.5q-92 0 -169.5 -21.5t-140.5 -72t-110.5 -134.5t-80.5 -209h527q13 0 9 -13
l-35 -80q-5 -13 -19 -13h-506l-4 -28l-25 -155l-5 -29h473q13 0 9 -13l-34 -80q-5 -13 -19 -13h-441q-9 -125 11 -209t65.5 -134.5t116 -71.5t162.5 -21q84 0 153.5 7t128.5 18q14 3 14 -11l-2 -77q0 -14 -14 -18q-57 -14 -137 -22t-167 -8q-117 0 -206 29t-146.5 94
t-82.5 169t-13 255h-132q-13 0 -9 13l34 80q5 13 19 13h101l6 39l22 135l6 38h-127z" />
    <glyph glyph-name="yen" unicode="&#xa5;" horiz-adv-x="1238" 
d="M203 528q-13 0 -9 13l31 78q5 13 19 13h258l-285 830q-6 13 9 13h94q14 0 19 -13l273 -788l566 790q8 11 22 11h102q14 0 6 -11l-593 -832h315q13 0 9 -13l-31 -78q-5 -13 -19 -13h-342l-27 -150h357q13 0 9 -13l-30 -79q-5 -13 -19 -13h-337l-47 -259q-3 -14 -17 -14
h-85q-14 0 -11 14l47 259h-338q-13 0 -9 13l31 79q5 13 19 13h316l27 150h-330z" />
    <glyph glyph-name="cent" unicode="&#xa2;" horiz-adv-x="924" 
d="M319 -262q-14 0 -11 14l42 232q-96 10 -158.5 42t-93 93.5t-32 156t24.5 230.5l21 114q24 132 59 226t87.5 156.5t127.5 96t179 44.5l43 232q3 14 17 14h77q14 0 11 -14l-42 -226h16q63 0 119.5 -6t101.5 -16q13 -3 9 -16l-31 -72q-6 -13 -20 -10q-44 8 -96.5 11
t-100.5 3h-18l-179 -964h17q54 0 108.5 3.5t99.5 12.5q14 3 14 -11l2 -70q0 -14 -14 -17q-23 -5 -51.5 -8.5t-59 -5.5t-61 -3.5t-57.5 -1.5h-17l-41 -226q-3 -14 -17 -14h-76zM203 518q-20 -109 -23.5 -186t15 -128t61 -79.5t113.5 -38.5l176 949q-75 -11 -128 -40.5
t-91 -81t-63.5 -128t-45.5 -181.5z" />
    <glyph glyph-name="currency" unicode="&#xa4;" horiz-adv-x="1259" 
d="M268 1122q-9 10 2 20l68 59q10 9 20 -2l77 -94q58 35 130 52t160 17t150 -22t104 -61l119 99q10 9 20 -2l51 -61q9 -10 -2 -20l-127 -106q14 -33 20 -70t6 -78q0 -131 -28 -226.5t-82 -160.5l78 -96q9 -10 -2 -20l-69 -59q-10 -9 -20 2l-78 95q-58 -35 -130 -51t-160 -16
q-86 0 -147.5 22t-102.5 60l-121 -101q-10 -9 -20 2l-51 62q-9 10 2 20l129 107q-27 66 -27 150q0 131 27 225.5t81 158.5zM340 654q0 -56 14 -99t44 -72t77.5 -44.5t114.5 -15.5q92 0 162 23.5t117 74t70.5 130t23.5 192.5q0 111 -59 170.5t-194 59.5q-91 0 -160.5 -23
t-116 -73t-70 -129.5t-23.5 -193.5z" />
    <glyph glyph-name="florin" unicode="&#x192;" horiz-adv-x="679" 
d="M112 954q-14 1 -11 15l15 59q3 14 17 14h180l16 99q16 100 40.5 168t65 110t99.5 60t145 18q35 0 72 -3t66 -8q14 -3 10 -16l-20 -73q-4 -13 -18 -12q-26 4 -58.5 5.5t-58.5 1.5q-60 0 -99.5 -13.5t-65.5 -43.5t-41 -78t-26 -117l-16 -98h270q14 0 11 -14l-19 -74
q-3 -14 -17 -14h-261l-165 -1057q-17 -106 -43 -171.5t-65.5 -101.5t-96 -48.5t-132.5 -12.5q-30 0 -68 4.5t-68 12.5q-13 4 -9 17l21 69q4 14 18 11q26 -5 56 -8.5t59 -3.5q53 0 89.5 10t61 35.5t40 70.5t26.5 116l165 1057z" />
    <glyph glyph-name="numbersign" unicode="#" horiz-adv-x="1452" 
d="M704 0q-15 0 -9 13l133 374h-414l-133 -374q-5 -13 -19 -13h-87q-15 0 -9 13l133 374h-255q-14 0 -10 13l27 84q4 13 18 13h260l172 480h-254q-14 0 -10 13l25 84q4 13 18 13h260l134 375q5 13 19 13h85q15 0 9 -13l-134 -375h414l134 375q5 13 19 13h87q15 0 9 -13
l-134 -375h256q14 0 10 -13l-27 -84q-4 -13 -18 -13h-261l-171 -480h255q14 0 10 -13l-27 -84q-4 -13 -18 -13h-260l-133 -374q-5 -13 -19 -13h-85zM624 977l-171 -480h414l171 480h-414z" />
    <glyph glyph-name="zero" unicode="0" horiz-adv-x="1317" 
d="M536 -22q-77 0 -141.5 9t-113.5 34t-82 68.5t-48 112t-11.5 165.5t27.5 229l53 282q25 136 57 234.5t72 167.5t88 111.5t106 66t126 31.5t148 8q79 0 144.5 -9.5t114.5 -34.5t81.5 -68.5t47 -112.5t10.5 -166t-28 -228l-52 -282q-25 -136 -56.5 -235t-70.5 -167.5
t-87 -111t-106.5 -65.5t-127.5 -31t-151 -8zM795 1386q-60 0 -112 -6.5t-96.5 -25.5t-81.5 -53.5t-68.5 -91t-57 -138t-46.5 -193.5l-52 -282q-21 -112 -25.5 -193.5t6 -137.5t35 -90.5t62 -53.5t87 -25.5t110.5 -6.5q62 0 114.5 6.5t97 25.5t82 53.5t68.5 91t56.5 138
t46.5 194.5l52 280q21 112 26 193.5t-5.5 138t-35 91t-62.5 53.5t-88.5 25.5t-112.5 6.5z" />
    <glyph glyph-name="one" unicode="1" horiz-adv-x="723" 
d="M171 1308q-14 -1 -14 12l2 83q0 15 14 16l362 54q6 1 14 1.5t14 0.5h87q14 0 11 -14l-268 -1447q-3 -14 -17 -14h-85q-14 0 -11 14l248 1349z" />
    <glyph glyph-name="two" unicode="2" horiz-adv-x="1063" 
d="M-3 0q-14 0 -11 14l13 69q19 102 48.5 178.5t77 142t117.5 126t169 129.5l258 179q58 40 106.5 76t82.5 76.5t53 91t19 120.5q0 51 -17 86t-55.5 56.5t-100.5 31t-152 9.5q-63 0 -143.5 -5.5t-161.5 -19.5q-14 -3 -14 11v77q0 14 14 17q38 9 81.5 15t87.5 9.5t85.5 5.5
t75.5 2q114 0 194.5 -15.5t131 -48t74 -83t23.5 -120.5q0 -87 -19 -149.5t-58.5 -114.5t-100 -100.5t-143.5 -106.5l-225 -156q-99 -69 -165 -124.5t-108 -110.5t-65.5 -116.5t-38.5 -142.5h697q14 0 11 -14l-14 -81q-3 -14 -17 -14h-810z" />
    <glyph glyph-name="three" unicode="3" horiz-adv-x="1128" 
d="M334 -22q-85 0 -162 8.5t-137 19.5q-14 3 -11 17l20 82q3 14 17 11q66 -11 142.5 -18.5t145.5 -7.5q104 0 183 16t135.5 53t92 97t51.5 148l7 39q6 33 7 68t-6.5 69t-24.5 63.5t-46 52.5t-72 36t-102 13h-341q-14 0 -11 14l14 81q3 14 17 14h340q91 0 154 25t103.5 62
t61.5 80.5t27 79.5l5 23q15 78 -3.5 128.5t-65 80t-119.5 41.5t-168 12q-72 0 -147.5 -8.5t-147.5 -17.5q-15 -1 -12 12l9 81q2 8 5 11.5t11 4.5q63 11 142.5 19.5t161.5 8.5q122 0 215 -19t152 -61.5t81 -112t3 -170.5l-4 -26q-11 -54 -34 -103t-61 -89.5t-91 -70.5
t-123 -46q68 -20 109 -61t60.5 -92.5t22 -107t-6.5 -103.5l-8 -40q-24 -124 -74 -204.5t-124.5 -128t-173 -66t-219.5 -18.5z" />
    <glyph glyph-name="four" unicode="4" horiz-adv-x="1167" 
d="M31 387q-14 0 -11 14l20 113q3 13 12 24l851 927q5 5 10 7.5t13 2.5h124q14 0 11 -14l-179 -972h176q14 0 11 -14l-14 -74q-3 -14 -17 -14h-175l-70 -373q-3 -14 -17 -14h-86q-14 0 -11 14l69 373h-717zM151 489h618l154 832h-16l-756 -821v-11z" />
    <glyph glyph-name="five" unicode="5" horiz-adv-x="1110" 
d="M317 -22q-94 0 -169.5 8.5t-138.5 23.5q-14 3 -8 16l35 79q4 8 8 10t12 0q70 -13 142 -19.5t138 -6.5q215 0 339.5 85.5t156.5 256.5l9 43q15 83 1 145.5t-60.5 104t-127.5 62.5t-201 21q-32 0 -69 -3t-72.5 -7.5t-64.5 -8.5t-44 -7q-14 -1 -11 12l12 69l7 27l164 573
q4 13 18 13h729q13 0 9 -13l-32 -84q-5 -13 -19 -13h-623l-137 -472l18.5 2.5t44 5t53 5t47.5 2.5q142 0 241 -27.5t157 -82t76 -135.5t-2 -189l-9 -43q-23 -120 -76 -206t-133 -140.5t-186 -80.5t-234 -26z" />
    <glyph glyph-name="six" unicode="6" horiz-adv-x="1220" 
d="M518 -22q-113 0 -195.5 31t-129.5 106t-55.5 202t26.5 319l41 219q34 183 91 306t142 198t199.5 106.5t263.5 31.5q72 0 139.5 -7.5t125.5 -21.5q15 -3 9 -16l-31 -77q-5 -13 -19 -10q-51 8 -114.5 14.5t-128.5 6.5q-125 0 -218 -25t-160 -85t-111 -159t-71 -246
q35 6 79.5 12.5t94 12.5t101 9.5t100.5 3.5q109 0 192 -24t134 -77.5t67.5 -137.5t-5.5 -204l-3 -13q-20 -106 -65.5 -193.5t-117 -150t-167 -97t-214.5 -34.5zM969 464q18 96 7 161t-49 105t-103 57t-155 17q-46 0 -96 -3.5t-98.5 -8.5t-93 -11.5t-78.5 -12.5l-25 -132
q-31 -168 -27 -274t39.5 -167t99 -83.5t151.5 -22.5q92 0 164.5 25.5t125.5 72.5t87 114t49 150z" />
    <glyph glyph-name="seven" unicode="7" horiz-adv-x="995" 
d="M34 0q-14 0 -6 12l936 1353h-760q-14 0 -14 14l3 82q0 14 14 14h888q13 0 12 -14l-16 -84q-1 -8 -3.5 -14t-6.5 -12l-918 -1339q-8 -12 -22 -12h-107z" />
    <glyph glyph-name="eight" unicode="8" horiz-adv-x="1273" 
d="M516 -22q-111 0 -198 23t-142 73t-76 130t0 193l10 46q8 43 29.5 94.5t58 99.5t90.5 86.5t127 57.5q-54 17 -86 53t-47 82t-15 97.5t10 98.5l5 19q22 99 65.5 168.5t108.5 113.5t150.5 64t191.5 20q105 0 184.5 -23.5t129 -70.5t67 -116.5t-0.5 -161.5l-4 -19
q-11 -55 -30.5 -106.5t-50 -94.5t-74 -75.5t-103.5 -48.5q65 -21 103.5 -62t57.5 -89.5t21.5 -98.5t-4.5 -90l-9 -47q-23 -120 -72.5 -200t-123 -128t-168 -68t-205.5 -20zM383 1102q-8 -40 -6 -86.5t24.5 -86.5t70 -66.5t131.5 -26.5h145q84 0 140.5 26.5t93 66.5
t55.5 86.5t27 86.5l4 16q30 141 -43.5 206.5t-247.5 65.5t-267.5 -66t-122.5 -206zM581 728q-64 0 -114.5 -15t-89 -39.5t-66 -55.5t-46 -62.5t-28.5 -60.5t-14 -50l-9 -45q-16 -85 -3.5 -145t53 -97.5t108.5 -55t163 -17.5q96 0 170.5 17.5t128.5 55t89 97.5t51 145l9 45
q3 21 3.5 50t-6.5 60.5t-23 62.5t-45.5 55.5t-75 39.5t-109.5 15h-146z" />
    <glyph glyph-name="nine" unicode="9" horiz-adv-x="1218" 
d="M360 -22q-73 0 -141.5 8t-127.5 20q-15 3 -9 16l31 79q5 13 19 10q51 -10 116 -16t131 -6q117 0 206.5 25t156 84t113.5 157t80 245q-35 -6 -79 -13t-92.5 -12t-99.5 -8.5t-99 -3.5q-111 0 -193.5 25.5t-132 80.5t-65 142.5t8.5 210.5l2 12q41 223 178.5 343t370.5 120
q110 0 194 -29.5t134 -102t61.5 -195t-23.5 -308.5l-28 -156q-26 -140 -61.5 -248.5t-81.5 -189.5t-103.5 -136.5t-128 -89.5t-154.5 -49t-183 -15zM297 1023q-18 -99 -9 -166.5t46 -109.5t101.5 -60t156.5 -18q46 0 95 2.5t97 7t92 10.5t79 12l31 162q31 164 23.5 266
t-45.5 159t-103 77.5t-150 20.5q-93 0 -163 -23t-120 -67.5t-81.5 -109.5t-47.5 -150z" />
    <glyph glyph-name="zero.tnum" horiz-adv-x="1100" 
d="M442 -22q-71 0 -129.5 9.5t-103 34.5t-74 69t-43 112.5t-10 165t25.5 227.5l47 282q23 138 52.5 237.5t66 168.5t80.5 110.5t96.5 64.5t113.5 30.5t132 7.5q109 0 187.5 -23.5t122 -90.5t51 -188.5t-25.5 -316.5l-46 -282q-23 -137 -51.5 -236.5t-64.5 -168t-80 -110.5
t-96.5 -65t-115 -30.5t-135.5 -7.5zM674 1386q-53 0 -99 -6.5t-84.5 -25.5t-71.5 -53.5t-60 -91t-49.5 -138t-40.5 -193.5l-47 -282q-18 -112 -22 -193.5t5 -137.5t30.5 -90.5t54 -53.5t76 -25.5t96.5 -6.5q54 0 100.5 6.5t85.5 25.5t72 53.5t60.5 91t49.5 138t41 194.5
l46 280q19 112 23 193.5t-5 138t-30.5 91t-54.5 53.5t-77.5 25.5t-98.5 6.5z" />
    <glyph glyph-name="one.tnum" horiz-adv-x="1100" 
d="M305 1311q-14 -3 -14 12l2 80q0 13 14 16l506 54q6 1 14 1.5t14 0.5h85q14 0 11 -14l-371 -1447q-3 -14 -17 -14h-83q-14 0 -11 14l344 1352z" />
    <glyph glyph-name="two.tnum" horiz-adv-x="1100" 
d="M7 0q-14 0 -11 14l13 69q18 100 48 176.5t78.5 142.5t119.5 127t172 130l262 179q60 40 109 76t84 76.5t54 91t19 120.5q0 51 -17.5 86t-56.5 56.5t-102 31t-154 9.5q-63 0 -145.5 -5.5t-164.5 -20.5q-14 -1 -14 12v77q0 14 14 17q38 9 82.5 15t89 9.5t86.5 5.5t76 2
q116 0 197.5 -15.5t133 -48t75 -83t23.5 -120.5q0 -87 -19 -149.5t-59 -114.5t-101.5 -100t-145.5 -106l-230 -156q-101 -69 -168 -124.5t-109.5 -111t-66.5 -117t-39 -142.5h709q14 0 11 -14l-15 -81q-3 -14 -17 -14h-821z" />
    <glyph glyph-name="three.tnum" horiz-adv-x="1100" 
d="M323 -22q-83 0 -158.5 8t-135.5 20q-14 3 -11 17l20 82q3 14 17 11q65 -11 139.5 -18.5t142.5 -7.5q102 0 179.5 16t133 53t90 97t50.5 148l7 39q9 49 5.5 102.5t-29 98t-77 73t-138.5 28.5h-334q-14 0 -11 14l14 81q3 14 17 14h333q89 0 151 25t101.5 62t60 80.5
t26.5 79.5l4 23q15 78 -3 128.5t-63.5 80t-117 41.5t-164.5 12q-70 0 -144.5 -8.5t-145.5 -17.5q-15 -1 -12 12l9 81q2 8 5 11.5t11 4.5q63 11 141.5 19.5t159.5 8.5q120 0 210.5 -18t147.5 -60t79 -111.5t5 -171.5l-4 -26q-9 -53 -32 -102t-60.5 -90t-90 -72t-121.5 -47
q67 -19 107 -59.5t59.5 -91t21.5 -106.5t-7 -105l-7 -40q-23 -123 -71.5 -204t-122 -129t-171 -67t-216.5 -19z" />
    <glyph glyph-name="four.tnum" horiz-adv-x="1100" 
d="M17 387q-14 0 -11 14l20 113q2 8 4.5 13.5t7.5 11.5l812 925q5 6 10 8.5t13 2.5h122q13 0 12 -14l-171 -972h166q14 0 11 -14l-14 -74q-3 -14 -17 -14h-166l-67 -373q-1 -14 -16 -14h-86q-13 0 -12 14l67 373h-685zM140 489h582l146 829h-15l-712 -818z" />
    <glyph glyph-name="five.tnum" horiz-adv-x="1100" 
d="M314 -22q-93 0 -167.5 8.5t-136.5 23.5q-14 3 -8 16l35 79q4 8 8 10t12 0q69 -13 139.5 -19.5t136.5 -6.5q212 0 334 85.5t154 256.5l8 43q15 83 1.5 145.5t-59 104t-125.5 62.5t-198 21q-33 0 -70 -3t-71 -6.5t-61.5 -7.5t-42.5 -6q-13 -1 -12 12l13 66q1 6 2.5 14
t3.5 13l161 573q4 13 18 13h719q13 0 9 -13l-33 -84q-5 -13 -19 -13h-613l-133 -472l18 2.5t43 5t52.5 5t46.5 2.5q279 0 390.5 -109t73.5 -325l-8 -43q-21 -120 -73 -206t-131.5 -140.5t-184.5 -80.5t-232 -26z" />
    <glyph glyph-name="six.tnum" horiz-adv-x="1100" 
d="M466 -22q-106 0 -183.5 31t-122 106t-52.5 202t25 319l39 219q31 183 85 306t134 198t187.5 106.5t246.5 31.5q68 0 131 -7.5t118 -21.5q15 -3 9 -16l-30 -77q-5 -13 -19 -10q-48 8 -108 14.5t-120 6.5q-116 0 -201.5 -25t-147.5 -85t-103 -159t-66 -247q33 6 74 13
t86.5 13t93.5 9.5t93 3.5q102 0 180 -24t126 -77.5t63.5 -137.5t-5.5 -204l-3 -13q-19 -106 -62 -193.5t-110 -150t-156.5 -97t-201.5 -34.5zM884 464q16 96 6 161t-45.5 105t-95.5 57t-142 17q-42 0 -88 -3.5t-90.5 -8.5t-85 -11.5t-73.5 -12.5l-23 -132
q-29 -168 -24.5 -274t37 -167t91 -83.5t138.5 -22.5q85 0 151.5 25.5t115.5 72.5t80 114t45 150z" />
    <glyph glyph-name="seven.tnum" horiz-adv-x="1100" 
d="M56 0q-14 0 -6 11l990 1354h-806q-14 0 -14 14l1 82q0 14 14 14h936q13 0 12 -14l-15 -84q-1 -8 -3.5 -13.5t-6.5 -11.5l-971 -1341q-8 -11 -22 -11h-109z" />
    <glyph glyph-name="eight.tnum" horiz-adv-x="1100" 
d="M442 -22q-102 0 -181.5 23.5t-130.5 74t-70 129t0 189.5l9 49q7 45 26.5 95.5t53 97.5t82.5 85.5t116 59.5q-49 17 -78 51.5t-42.5 79.5t-14 95.5t7.5 98.5l3 19q17 100 57 170.5t101 115.5t141 65.5t177 20.5t169.5 -23.5t117.5 -70.5t61.5 -116.5t0.5 -161.5l-4 -19
q-9 -57 -26.5 -108.5t-46 -94t-68.5 -74t-94 -48.5q59 -21 94.5 -62.5t53 -90.5t20 -98.5t-4.5 -86.5l-8 -49q-20 -119 -65.5 -199t-113 -128t-154.5 -68.5t-189 -20.5zM502 728q-57 0 -102.5 -15t-80 -39.5t-59 -55.5t-41 -62.5t-26 -60.5t-12.5 -50l-8 -45
q-14 -85 -2.5 -145t47.5 -97.5t96.5 -55t146.5 -17.5t152.5 17.5t115 55t79.5 97.5t45 145l8 45q3 21 3 50t-6 60.5t-20.5 62.5t-41 55.5t-67 39.5t-98.5 15h-129zM322 1015q2 -46 22 -86t62.5 -66.5t117.5 -26.5h128q72 0 121.5 24.5t82 62t50.5 81.5t26 84q1 8 3 18
q2 9 3 16q23 139 -40 203q-64 65 -220 65q-152 0 -235.5 -62t-109.5 -196l-8 -34q-5 -37 -3 -83z" />
    <glyph glyph-name="nine.tnum" horiz-adv-x="1100" 
d="M317 -22q-68 0 -132.5 8t-120.5 20q-15 3 -9 16l30 79q5 13 19 10q49 -10 110.5 -16t121.5 -6q108 0 190.5 25t144 84t105.5 158t74 246q-33 -7 -73.5 -14t-85 -12.5t-91.5 -9t-92 -3.5q-104 0 -182 25t-126 79t-63 140.5t8 209.5l3 13q20 110 61 196.5t105.5 146.5
t152.5 92t201 32q103 0 181.5 -29t125 -101.5t57.5 -195t-21 -309.5l-27 -168q-36 -206 -92.5 -343.5t-137.5 -220t-189.5 -117.5t-247.5 -35zM260 1019q-17 -99 -7.5 -166t44.5 -108t95 -58.5t144 -17.5q41 0 86 2.5t89 7t84.5 10t72.5 11.5l29 163q28 164 21.5 266
t-41.5 159t-94.5 77.5t-137.5 20.5q-86 0 -151 -23.5t-112 -68.5t-76.5 -111t-43.5 -151z" />
    <glyph glyph-name="onesuperior" unicode="&#xb9;" horiz-adv-x="503" 
d="M197 1371q-14 -1 -14 12l1 62q0 13 14 16l197 28q6 1 14 1.5t14 0.5h67q14 0 11 -14l-159 -865q-3 -14 -17 -14h-73q-14 0 -11 14l145 787z" />
    <glyph glyph-name="twosuperior" unicode="&#xb2;" horiz-adv-x="828" 
d="M133 598q-14 0 -11 14l8 46q11 61 29.5 107.5t49 85.5t75 75t109.5 78l163 106q34 22 62 40.5t48 39.5t31.5 47.5t11.5 63.5q0 28 -11 47.5t-36 31.5t-64.5 17t-97.5 5q-38 0 -86 -3t-98 -12q-14 -3 -14 11l1 64q0 14 14 17q50 10 107 14t100 4q81 0 137 -11t91 -32.5
t50.5 -54t15.5 -74.5q0 -53 -11 -91t-35 -70t-62 -61t-93 -63l-140 -87q-60 -37 -100 -67t-66 -59.5t-40.5 -62.5t-23.5 -75h436q14 0 11 -14l-11 -63q-3 -14 -17 -14h-533z" />
    <glyph glyph-name="threesuperior" unicode="&#xb3;" horiz-adv-x="828" 
d="M353 585q-56 0 -108.5 4.5t-93.5 11.5q-14 1 -11 15l16 67q3 13 17 12q47 -7 96.5 -10.5t94.5 -3.5q63 0 110 8t80.5 27.5t54 51.5t29.5 80l4 21q5 27 3 56t-18 53t-49 39t-89 15h-204q-14 0 -11 14l10 59q3 14 17 14h202q55 0 93.5 12t63 31t36.5 42t16 45l2 11
q8 42 -3.5 69.5t-40 43.5t-72.5 22.5t-101 6.5q-48 0 -98 -4t-96 -9q-15 -1 -12 12l7 65q2 14 16 16q43 5 95.5 10t108.5 5q80 0 140.5 -11t99.5 -36.5t54.5 -67t5.5 -103.5l-2 -15q-11 -72 -59.5 -120.5t-138.5 -68.5q43 -12 69.5 -35.5t40.5 -53.5t16 -63.5t-4 -65.5
l-4 -22q-14 -75 -46 -123.5t-80 -76.5t-112.5 -39t-144.5 -11z" />
    <glyph glyph-name="onequarter" unicode="&#xbc;" horiz-adv-x="1570" 
d="M754 233q-13 0 -12 14l21 111q1 13 11 24l456 506q5 5 10 7.5t13 2.5h160q14 0 11 -14l-103 -558h96q14 0 11 -14l-12 -65q-3 -14 -17 -14h-95l-41 -219q-3 -14 -17 -14h-73q-14 0 -11 14l40 219h-448zM90 0q-14 0 -5 11l1145 1453q5 6 10 8.5t13 2.5h107q14 0 5 -11
l-1147 -1453q-5 -6 -10 -8.5t-13 -2.5h-105zM227 1371q-14 -1 -14 12v62q0 13 14 16l197 28q6 1 14 1.5t14 0.5h67q14 0 11 -14l-159 -865q-3 -14 -17 -14h-73q-14 0 -11 14l145 787zM864 326h356l87 472h-37l-400 -441z" />
    <glyph glyph-name="onehalf" unicode="&#xbd;" horiz-adv-x="1641" 
d="M90 0q-14 0 -5 11l1145 1453q5 6 10 8.5t13 2.5h107q14 0 5 -11l-1147 -1453q-5 -6 -10 -8.5t-13 -2.5h-105zM866 0q-14 0 -11 14l9 45q11 61 29.5 107.5t48.5 85.5t75 75t110 78l162 106q34 22 62 40.5t48.5 40t31.5 47.5t11 63q0 28 -11 47.5t-36 31.5t-64.5 17
t-97.5 5q-37 0 -85.5 -3t-98.5 -12q-14 -3 -14 11l1 64q0 14 14 17q25 5 52.5 8.5t55 5.5t53 3t46.5 1q81 0 137 -11t91.5 -32.5t51 -53.5t15.5 -74q0 -53 -11 -91t-35 -70t-62.5 -61.5t-93.5 -63.5l-139 -87q-60 -37 -100 -67t-66 -59.5t-41 -62.5t-24 -75h436q14 0 11 -14
l-11 -62q-3 -14 -17 -14h-533zM227 1371q-14 -1 -14 12v62q0 13 14 16l197 28q6 1 14 1.5t14 0.5h67q14 0 11 -14l-159 -865q-3 -14 -17 -14h-73q-14 0 -11 14l145 787z" />
    <glyph glyph-name="threequarters" unicode="&#xbe;" horiz-adv-x="1792" 
d="M986 233q-14 0 -11 14l20 111q3 13 12 24l456 506q5 5 10 7.5t13 2.5h159q14 0 11 -14l-103 -558h95q14 0 11 -14l-11 -65q-3 -14 -17 -14h-95l-40 -219q-3 -14 -17 -14h-74q-14 0 -11 14l40 219h-448zM1096 326h356l87 472h-37l-401 -441zM312 0q-14 0 -5 11l1146 1453
q5 6 10 8.5t13 2.5h107q14 0 5 -11l-1146 -1453q-5 -6 -10 -8.5t-13 -2.5h-107zM321 585q-56 0 -109 4.5t-93 11.5q-14 1 -11 16l16 66q3 13 17 12q46 -7 96 -10.5t95 -3.5q62 0 109 8t80.5 27.5t54 51.5t29.5 80l4 21q5 27 3 56t-18 53t-49 39t-88 15h-204q-13 0 -12 14
l11 59q1 14 16 14h203q55 0 93 12t62.5 31t36.5 42t16 45l2 11q8 42 -3.5 69.5t-39.5 43.5t-72 22.5t-101 6.5q-48 0 -98 -4t-96 -9q-15 -1 -12 12l7 65q2 14 16 16q43 5 95.5 10t108.5 5q80 0 140.5 -11t99 -36.5t54 -67t5.5 -103.5l-2 -15q-11 -72 -59.5 -120.5
t-137.5 -68.5q42 -12 69 -35.5t40.5 -53.5t15.5 -63.5t-4 -65.5l-4 -22q-14 -75 -45.5 -123.5t-79.5 -76.5t-112.5 -39t-144.5 -11z" />
    <glyph glyph-name="percent" unicode="%" horiz-adv-x="1794" 
d="M417 588q-74 0 -130 19.5t-90 64.5t-42.5 118.5t11.5 181.5l25 140q21 115 58 189.5t87 118t113.5 60.5t137.5 17q75 0 131 -19.5t89.5 -64.5t42 -118.5t-11.5 -182.5l-25 -140q-21 -114 -57 -188.5t-86 -118t-113.5 -60.5t-139.5 -17zM568 1402q-52 0 -95.5 -13.5
t-78.5 -46.5t-61 -88.5t-41 -139.5l-27 -144q-16 -83 -10.5 -138.5t28.5 -88.5t62 -46.5t91 -13.5t95.5 13.5t78.5 46.5t61 88.5t41 139.5l26 143q16 84 10.5 139.5t-28.5 88.5t-62 46.5t-90 13.5zM1247 -22q-74 0 -130 19.5t-89.5 64.5t-42.5 118t11 181l25 141
q21 115 57.5 189.5t86.5 118t113 60.5t138 17t131.5 -19.5t90 -64.5t42.5 -119t-11 -182l-26 -141q-21 -114 -57 -188.5t-86 -117.5t-113.5 -60t-139.5 -17zM1399 792q-52 0 -95.5 -13.5t-79 -46.5t-61 -88.5t-41.5 -139.5l-26 -146q-15 -83 -10 -138t28 -88t62 -46.5
t90 -13.5q52 0 96 13.5t79 46.5t61 88.5t41 139.5l26 144q15 84 9.5 139.5t-28.5 88.5t-61.5 46.5t-89.5 13.5zM278 0q-14 0 -5 11l1145 1453q5 6 10 8.5t13 2.5h106q14 0 5 -11l-1145 -1453q-5 -6 -10 -8.5t-13 -2.5h-106z" />
    <glyph glyph-name="perthousand" unicode="&#x2030;" horiz-adv-x="2519" 
d="M417 588q-74 0 -130 19.5t-89.5 64.5t-42.5 118.5t11 181.5l25 140q21 115 57.5 189.5t87 118t114 60.5t137.5 17q75 0 131 -19.5t89.5 -64.5t42 -118.5t-11.5 -182.5l-25 -140q-21 -114 -57 -188.5t-86 -118t-113.5 -60.5t-139.5 -17zM568 1402q-52 0 -95.5 -13.5
t-78.5 -46.5t-60.5 -88.5t-41.5 -139.5l-27 -144q-15 -83 -10 -138.5t28 -88.5t62 -46.5t91 -13.5t95.5 13.5t78.5 46.5t61 88.5t41 139.5l27 143q15 84 9.5 139.5t-28.5 88.5t-62 46.5t-90 13.5zM1244 -22q-74 0 -130 19.5t-89.5 64t-42.5 118t11 181.5l25 141
q21 115 57 189.5t86.5 118t113.5 60.5t137 17q75 0 131.5 -19.5t90 -64.5t42.5 -118.5t-11 -182.5l-25 -141q-21 -114 -57 -188.5t-86 -117.5t-113.5 -60t-139.5 -17zM1395 792q-52 0 -95.5 -13.5t-78.5 -46.5t-61 -88.5t-41 -139.5l-27 -146q-15 -83 -10 -138t28 -88
t62 -46.5t91 -13.5t96 13.5t79 46.5t60.5 88.5t40.5 139.5l26 144q16 84 10.5 139.5t-28.5 88.5t-62 46.5t-90 13.5zM1979 -22q-74 0 -130 19.5t-90 64t-42.5 118t11.5 181.5l25 141q21 115 57.5 189.5t86.5 118t113 60.5t137 17q75 0 131.5 -19.5t90 -64.5t42.5 -119
t-11 -182l-25 -141q-21 -114 -57.5 -188.5t-86.5 -117.5t-113.5 -60t-138.5 -17zM2130 792q-52 0 -95.5 -13.5t-79 -46.5t-61 -88.5t-41.5 -139.5l-25 -146q-16 -83 -10.5 -138t28 -88t61.5 -46.5t91 -13.5t96 13.5t78.5 46.5t60 88.5t41.5 139.5l26 144q16 84 10.5 139.5
t-28.5 88.5t-62 46.5t-90 13.5zM278 0q-14 0 -5 11l1145 1453q5 6 10 8.5t13 2.5h106q14 0 5 -11l-1144 -1453q-5 -6 -10 -8.5t-13 -2.5h-107z" />
    <glyph glyph-name="plus" unicode="+" horiz-adv-x="1000" 
d="M127 745q-14 0 -11 14l15 81q3 14 17 14h339l62 340q3 14 17 14h80q14 0 11 -14l-63 -340h340q14 0 11 -14l-15 -81q-3 -14 -17 -14h-339l-62 -340q-3 -14 -17 -14h-79q-14 0 -11 14l62 340h-340z" />
    <glyph glyph-name="minus" unicode="&#x2212;" horiz-adv-x="1185" 
d="M218 744q-14 0 -11 14l14 81q3 14 17 14h782q14 0 11 -14l-14 -81q-3 -14 -17 -14h-782z" />
    <glyph glyph-name="plusminus" unicode="&#xb1;" horiz-adv-x="1122" 
d="M205 783q-14 0 -11 14l14 81q3 14 17 14h340l63 340q3 14 17 14h81q14 0 11 -14l-63 -340h340q14 0 11 -14l-14 -81q-3 -14 -17 -14h-340l-63 -339q-3 -14 -17 -14h-81q-14 0 -11 14l63 339h-340zM64 0q-14 0 -11 14l14 80q3 14 17 14h781q14 0 11 -14l-14 -80
q-3 -14 -17 -14h-781z" />
    <glyph glyph-name="multiply" unicode="&#xd7;" horiz-adv-x="948" 
d="M233 1040q-9 10 2 20l69 58q10 9 20 -2l195 -238l285 241q10 9 20 -2l46 -54q9 -10 -2 -20l-287 -242l196 -239q9 -10 -2 -20l-70 -59q-10 -9 -20 2l-195 239l-285 -240q-10 -9 -20 2l-44 54q-9 10 2 20l285 241z" />
    <glyph glyph-name="divide" unicode="&#xf7;" horiz-adv-x="1114" 
d="M167 744q-14 0 -11 14l14 81q3 14 17 14h823q14 0 11 -14l-14 -81q-3 -14 -17 -14h-823zM452 321q-14 0 -11 14l37 201q3 14 17 17l97 18q14 3 11 -11l-41 -225q-3 -14 -17 -14h-93zM579 1007q-14 0 -11 14l37 202q3 14 17 17l97 18q14 3 11 -11l-41 -226q-3 -14 -17 -14
h-93z" />
    <glyph glyph-name="equal" unicode="=" horiz-adv-x="1186" 
d="M182 529q-14 0 -11 14l15 80q3 14 17 14h780q14 0 11 -14l-16 -80q-3 -14 -17 -14h-779zM264 963q-13 0 -12 14l14 79q1 14 16 14h779q13 0 12 -14l-15 -79q-1 -14 -16 -14h-778z" />
    <glyph glyph-name="notequal" unicode="&#x2260;" horiz-adv-x="1069" 
d="M207 963q-14 0 -11 14l14 79q3 14 17 14h448l187 300q7 12 21 12h90q13 0 7 -12l-187 -300h215q14 0 11 -14l-14 -79q-3 -14 -17 -14h-261l-202 -326h402q13 0 12 -14l-15 -80q-1 -14 -16 -14h-450l-185 -298q-7 -12 -21 -12h-90q-13 0 -7 12l185 298h-214q-14 0 -11 14
l14 80q3 14 17 14h261l202 326h-402z" />
    <glyph glyph-name="approxequal" unicode="&#x2248;" horiz-adv-x="1180" 
d="M173 477q-14 0 -11 14l5 30q13 70 39.5 112t59 64.5t67.5 29t65 6.5q60 0 100 -15.5t79 -43.5l66 -48q18 -14 34 -24.5t32.5 -17.5t35 -11t42.5 -4q22 0 40.5 5t34 20.5t28.5 44.5t23 76q3 14 17 14h70q14 0 11 -14l-5 -28q-14 -71 -40.5 -113t-59.5 -64.5t-68 -29.5
t-64 -7q-61 0 -102.5 17t-76.5 43l-65 48q-22 16 -40.5 27t-35.5 18t-33.5 9.5t-34.5 2.5q-23 0 -42 -5t-35 -20.5t-29 -44.5t-23 -77q-3 -14 -17 -14h-67zM254 910q-14 0 -11 14l5 29q13 71 39.5 113t59 64.5t66.5 29t63 6.5q58 0 101.5 -17t79.5 -43l66 -48
q17 -12 32.5 -22t32.5 -17.5t36 -11.5t43 -4q22 0 41 5t34.5 20t28 44t22.5 77q3 14 17 14h69q14 0 11 -14l-5 -30q-13 -71 -39.5 -113t-59.5 -64t-68 -29t-64 -7q-60 0 -101 17t-78 43l-65 48q-22 16 -40 27t-35 17.5t-33.5 9t-34.5 2.5q-23 0 -42.5 -5t-35.5 -20.5
t-28.5 -44t-22.5 -76.5q-3 -14 -17 -14h-67z" />
    <glyph glyph-name="less" unicode="&#x3c;" horiz-adv-x="892" 
d="M122 709q-11 9 -8 23l16 82q3 14 15 21l655 409q13 8 14 -7l12 -86q3 -14 -10 -21l-587 -364l451 -353q6 -5 7.5 -9.5t-2.5 -12.5l-36 -83q-6 -13 -17 -4z" />
    <glyph glyph-name="greater" unicode="&#x3e;" horiz-adv-x="890" 
d="M821 836q11 -9 8 -23l-16 -82q-3 -14 -15 -21l-655 -409q-13 -8 -14 7l-12 86q-3 14 10 21l587 364l-451 353q-6 5 -7.5 9.5t2.5 12.5l36 83q6 13 17 4z" />
    <glyph glyph-name="lessequal" unicode="&#x2264;" horiz-adv-x="977" 
d="M187 740q-11 8 -8 22l14 82q3 14 15 21l663 401q13 8 14 -7l12 -90q3 -14 -10 -21l-591 -355l460 -340q11 -8 5 -21l-37 -83q-6 -13 -17 -5zM29 0q-13 0 -12 14l15 80q1 14 16 14h704q13 0 12 -14l-15 -80q-1 -14 -16 -14h-704z" />
    <glyph glyph-name="greaterequal" unicode="&#x2265;" horiz-adv-x="972" 
d="M872 870q10 -8 9 -22l-16 -83q-1 -14 -14 -21l-663 -401q-13 -8 -14 7l-12 88q-3 14 10 21l591 356l-459 340q-11 8 -5 21l36 84q6 13 17 5zM29 0q-13 0 -12 14l15 80q1 14 16 14h704q13 0 12 -14l-15 -80q-1 -14 -16 -14h-704z" />
    <glyph glyph-name="logicalnot" unicode="&#xac;" horiz-adv-x="1130" 
d="M206 944q-13 0 -12 14l15 80q1 14 16 14h785q14 0 11 -14l-17 -94l-73 -395q-3 -14 -17 -14h-79q-14 0 -11 14l72 395h-690z" />
    <glyph glyph-name="degree" unicode="&#xb0;" horiz-adv-x="770" 
d="M523 1406q-42 0 -77.5 -10t-63.5 -31t-47.5 -54t-27.5 -79l-5 -26q-17 -92 23.5 -133t126.5 -41q41 0 77 9.5t64.5 30.5t47.5 54.5t27 81.5l4 24q18 92 -23 133t-126 41zM436 942q-65 0 -114 16.5t-79.5 49t-41 81t1.5 113.5l8 39q13 67 41.5 115.5t71 79.5t97 46
t119.5 15q64 0 113 -16.5t79.5 -49.5t41 -82.5t-1.5 -115.5l-8 -38q-12 -66 -41 -114t-71.5 -79t-97 -45.5t-118.5 -14.5z" />
    <glyph glyph-name="infinity" unicode="&#x221e;" horiz-adv-x="1556" 
d="M728 491q-33 -50 -67.5 -83t-69.5 -52.5t-69 -27.5t-67 -8h-17q-59 0 -103.5 23t-74.5 65t-45 100t-15 128q0 134 26 242t77 184.5t126 117.5t174 41h18q43 0 83 -10t74 -31t60.5 -53.5t41.5 -77.5q33 51 68 84t70 52.5t70 27.5t68 8h13q60 0 104.5 -23t74.5 -65t45 -100
t15 -128q0 -134 -25.5 -242t-76.5 -184.5t-126.5 -117.5t-174.5 -41h-16q-44 0 -84.5 10t-74.5 30.5t-60.5 53t-41.5 77.5zM473 428q30 0 66.5 12.5t75.5 51t78 111t75 192.5q13 42 26.5 78.5t27.5 68.5q-12 48 -33.5 80.5t-50 53t-63 29t-74.5 8.5h-16q-78 0 -131.5 -37
t-86.5 -101t-48 -149.5t-15 -182.5q0 -107 37.5 -161t115.5 -54h16zM1136 1113q-30 0 -66.5 -12.5t-75 -51t-77.5 -111t-76 -192.5q-26 -84 -54 -146q12 -48 33.5 -81t50 -53.5t63.5 -29t74 -8.5h14q79 0 133 37.5t87.5 101.5t48 149t14.5 181q0 107 -37.5 161.5
t-117.5 54.5h-14z" />
    <glyph glyph-name="integral" unicode="&#x222b;" horiz-adv-x="679" 
d="M-57 -412q-32 0 -57 2.5t-45 7.5q-14 3 -9 16l24 67q5 13 19 12q22 -2 39 -2.5t38 -0.5q42 0 73 8.5t54 29t38.5 53.5t24.5 81l249 1358q16 88 44.5 142.5t68 84.5t89 40t108.5 10q31 0 56 -2.5t45 -6.5q14 -3 9 -16l-23 -67q-5 -13 -19 -12q-22 2 -38.5 2.5t-37.5 0.5
q-42 0 -73.5 -9t-54.5 -29t-38 -53t-24 -82l-249 -1358q-15 -85 -41.5 -139t-65 -84.5t-89.5 -42t-115 -11.5z" />
    <glyph glyph-name="lozenge" unicode="&#x25ca;" horiz-adv-x="1022" 
d="M387 132q-15 0 -20 12l-276 530q-6 13 -3 26l10 55q3 13 12 24l474 534q5 5 10 7.5t13 2.5h64q15 0 20 -12l275 -530q5 -12 4 -26l-11 -55q-1 -13 -11 -24l-475 -534q-5 -5 -10 -7.5t-13 -2.5h-63zM432 241l436 501l-240 472l-439 -501z" />
    <glyph glyph-name="grave" unicode="`" 
d="M676 1262q-14 0 -22 11l-173 237q-8 11 6 11h122q14 0 21 -12l142 -235q6 -12 -7 -12h-89z" />
    <glyph glyph-name="acute" unicode="&#xb4;" 
d="M449 1262q-14 0 -4 10l234 239q11 10 24 10h134q6 0 7.5 -2.5t-3.5 -6.5l-268 -241q-9 -9 -24 -9h-100z" />
    <glyph glyph-name="circumflex" unicode="&#x2c6;" 
d="M644 1440l-162 -164q-11 -10 -24 -10h-110q-14 0 -4 10l253 235q11 10 24 10h82q14 0 22 -11l163 -233q8 -11 -6 -11h-92q-14 0 -22 12l-103 162h-21z" />
    <glyph glyph-name="caron" unicode="&#x2c7;" 
d="M389 1510q-8 11 6 11h92q14 0 22 -12l103 -162h21l162 164q11 10 24 10h110q14 0 4 -10l-253 -235q-9 -10 -24 -10h-82q-14 0 -22 11z" />
    <glyph glyph-name="tilde" unicode="&#x2dc;" 
d="M497 1438q-18 0 -33.5 -5t-28 -21t-23.5 -46t-21 -81q-3 -14 -17 -14h-60q-15 0 -12 14q12 79 32.5 127t47.5 73.5t57.5 33.5t61.5 8q22 0 40.5 -4.5t37.5 -14.5t39 -27t44 -42q21 -23 38 -38.5t31.5 -25.5t28.5 -14.5t29 -4.5q18 0 33 5t27.5 21t23.5 46.5t21 81.5
q3 14 17 14h61q15 0 12 -14q-12 -80 -33 -128t-47.5 -73.5t-57.5 -33.5t-62 -8q-22 0 -40.5 4.5t-37 14.5t-38.5 27t-44 42q-21 22 -38 38t-31.5 26t-28.5 14.5t-29 4.5z" />
    <glyph glyph-name="dieresis" unicode="&#xa8;" 
d="M428 1252q-14 0 -11 14l47 258q3 14 17 17l95 18q14 3 11 -11l-52 -282q-3 -14 -17 -14h-90zM721 1252q-14 0 -11 14l47 258q3 14 17 17l96 18q14 3 11 -11l-52 -282q-3 -14 -17 -14h-91z" />
    <glyph glyph-name="macron" unicode="&#xaf;" 
d="M395 1336q-14 0 -11 14l13 68q3 14 17 14h470q14 0 11 -14l-13 -68q-3 -14 -17 -14h-470z" />
    <glyph glyph-name="breve" unicode="&#x2d8;" 
d="M618 1266q-61 0 -103.5 17t-68.5 48.5t-36.5 76t-7.5 99.5q1 14 15 14h68q13 0 13 -14q-3 -44 5 -73t25 -46.5t41.5 -25t54.5 -7.5q31 0 59.5 7.5t54 25t46 47t35.5 73.5q4 13 18 13h70q14 0 11 -14q-13 -54 -35.5 -98t-58 -76t-86 -49.5t-120.5 -17.5z" />
    <glyph glyph-name="ring" unicode="&#x2da;" horiz-adv-x="772" 
d="M662 1501q-75 0 -106.5 -30t-31.5 -96q0 -42 25.5 -59t75.5 -17q77 0 107 31t30 98q0 40 -24 56.5t-76 16.5zM609 1224q-170 0 -170 139q0 102 59 158t177 56q84 0 127 -35.5t43 -105.5q0 -100 -61 -156t-175 -56z" />
    <glyph glyph-name="hungarumlaut" unicode="&#x2dd;" 
d="M624 1260q-14 0 -6 11l179 239q8 11 22 11h109q14 0 5 -11l-206 -239q-5 -6 -10 -8.5t-13 -2.5h-80zM365 1260q-14 0 -6 11l178 239q8 11 22 11h106q14 0 5 -11l-203 -239q-5 -6 -10 -8.5t-13 -2.5h-79z" />
    <glyph glyph-name="dotaccent" unicode="&#x2d9;" 
d="M574 1252q-14 0 -11 14l47 258q3 14 17 17l97 18q14 3 11 -11l-52 -282q-3 -14 -17 -14h-92z" />
    <glyph glyph-name="caronalt" horiz-adv-x="777" 
d="M569 1215q-14 0 -11 14l66 359q3 14 17 17l92 17q14 3 11 -11l-92 -382q-3 -14 -17 -14h-66z" />
    <glyph glyph-name="commaaccent" 
d="M215 -434q-14 0 -8 13l125 274q4 8 8 11t12 4l107 19q15 2 7 -10l-151 -299q-7 -12 -21 -12h-79z" />
    <glyph glyph-name="cedilla" unicode="&#xb8;" 
d="M199 -389q-14 0 -6 11l189 265q8 11 22 11h92q13 0 6 -12l-181 -263q-8 -12 -22 -12h-100z" />
    <glyph glyph-name="ogonek" unicode="&#x2db;" 
d="M353 -329q22 0 49.5 1.5t54.5 4.5q14 1 13 -12l-6 -49q-1 -13 -15 -17q-47 -11 -127 -11q-48 0 -80 7.5t-51.5 22t-27.5 34.5t-8 45q0 42 20.5 89t51.5 91t68.5 80t72.5 56q11 7 24 7h79q12 0 2 -7q-38 -23 -76.5 -59.5t-69.5 -78t-50.5 -82.5t-19.5 -73
q0 -26 19.5 -37.5t76.5 -11.5z" />
    <glyph glyph-name="grave.case" 
d="M758 1606q-9 0 -13.5 2t-9.5 7l-198 183q-5 5 -3.5 8.5t9.5 3.5h131q8 0 12.5 -1.5t9.5 -7.5l164 -183q10 -12 -6 -12h-96z" />
    <glyph glyph-name="acute.case" 
d="M501 1606q-14 0 -3 9l227 186q10 9 25 9h142q6 0 7 -2.5t-4 -5.5l-262 -188q-11 -8 -25 -8h-107z" />
    <glyph glyph-name="circumflex.case" 
d="M962 1616q10 -10 -4 -10h-95q-8 0 -13 2.5t-10 7.5l-110 122h-20l-159 -123q-10 -9 -25 -9h-115q-6 0 -7 2.5t4 5.5l253 188q11 8 25 8h83q8 0 13 -2.5t11 -7.5z" />
    <glyph glyph-name="caron.case" 
d="M453 1800q-10 10 4 10h95q8 0 13 -2.5t10 -7.5l110 -122h20l159 123q10 9 25 9h115q6 0 7 -2.5t-4 -5.5l-253 -188q-11 -8 -25 -8h-83q-8 0 -13 2.5t-11 7.5z" />
    <glyph glyph-name="tilde.case" 
d="M378 1606q-15 0 -12 14q11 73 34 116.5t51 65.5t57.5 28.5t53.5 6.5q27 0 48 -5t39 -14.5t36 -23.5t39 -33q25 -23 42 -37.5t30.5 -22.5t25 -11t26.5 -3q19 0 35.5 5t30 19t24 39t16.5 66q3 14 16 14h65q15 0 12 -14q-12 -74 -35 -117.5t-51.5 -65.5t-58 -28t-54.5 -6
q-27 0 -47 4.5t-38 13.5t-35.5 23t-38.5 34q-24 23 -41 37.5t-30.5 23t-26 11.5t-26.5 3q-19 0 -35.5 -5t-30 -19t-24 -39.5t-16.5 -65.5q-3 -14 -16 -14h-65z" />
    <glyph glyph-name="dieresis.case" horiz-adv-x="774" 
d="M494 1606q-14 0 -11 14l35 194q3 14 17 17l94 18q14 3 11 -11l-40 -218q-3 -14 -17 -14h-89zM786 1606q-13 0 -12 14l36 194q1 14 16 17l94 18q14 3 11 -11l-39 -218q-3 -14 -17 -14h-89z" />
    <glyph glyph-name="macron.case" 
d="M459 1647q-14 0 -11 14l12 66q3 14 17 14h470q13 0 12 -14l-13 -66q-1 -14 -16 -14h-471z" />
    <glyph glyph-name="breve.case" 
d="M685 1586q-118 0 -174.5 56t-48.5 157q0 14 15 14h62q14 0 13 -14q0 -39 12 -64t31.5 -40t45 -21t52.5 -6q30 0 58 6.5t53 21.5t45 40.5t33 63.5q4 13 18 13h69q14 0 10 -13q-17 -54 -40.5 -94t-58 -66.5t-82.5 -40t-113 -13.5z" />
    <glyph glyph-name="ring.case" 
d="M718 1790q-48 0 -78 -24.5t-34 -57.5l-1 -8q-2 -16 1.5 -30.5t13 -26t26.5 -18t41 -6.5q48 0 78 25.5t35 60.5q4 35 -14 60t-68 25zM673 1543q-45 0 -76 12.5t-49.5 34t-24.5 51t-1 64.5l1 7q11 69 64.5 112t144.5 43q44 0 75.5 -12.5t50 -34.5t25 -52.5t0.5 -65.5
q-11 -72 -65 -115.5t-145 -43.5z" />
    <glyph glyph-name="hungarumlaut.case" horiz-adv-x="773" 
d="M370 1606q-14 0 -4 10l187 184q9 10 24 10h136q14 0 3 -9l-227 -186q-10 -9 -25 -9h-94zM679 1606q-14 0 -4 10l187 184q9 10 24 10h135q14 0 3 -9l-227 -186q-10 -9 -25 -9h-93z" />
    <glyph glyph-name="dotaccent.case" horiz-adv-x="774" 
d="M638 1606q-13 0 -12 14l36 194q1 14 16 17l98 18q14 3 11 -11l-39 -218q-3 -14 -17 -14h-93z" />
    <glyph glyph-name="Alpha" unicode="&#x391;" horiz-adv-x="1272" 
d="M-70 0q-15 0 -7 12l791 1451q7 12 21 12h131q15 0 16 -14l258 -1447q1 -14 -12 -14h-94q-15 0 -16 14l-72 407h-675l-221 -409q-7 -12 -21 -12h-99zM780 1362l-450 -831h597z" />
    <glyph glyph-name="Beta" unicode="&#x392;" horiz-adv-x="1320" 
d="M461 -20q-38 0 -81.5 1t-89.5 3t-91.5 4.5t-87.5 6.5q-14 1 -11 15l268 1451q2 14 17 15q33 4 73 6.5t82.5 4.5t87 3t86.5 1q141 0 242.5 -15.5t163.5 -54t84.5 -104.5t5.5 -167l-2 -11q-12 -66 -33 -117t-49 -88t-62.5 -61t-71.5 -37q97 -36 140.5 -129.5t16.5 -244.5
l-10 -52q-19 -101 -49 -172t-72.5 -118.5t-98 -75.5t-125 -42t-152.5 -18t-181 -4zM1033 459q16 86 6.5 142.5t-39.5 90t-78.5 47t-109.5 13.5h-461l-122 -656q62 -5 129.5 -7t133.5 -2q123 0 214 9t155 41.5t103.5 96.5t59.5 174zM708 1385q-73 0 -133 -2.5t-108 -7.5
l-97 -517h407q69 2 122 21t91.5 52.5t63 80.5t35.5 105l4 16q15 84 -3.5 134t-68.5 76t-129 34t-184 8z" />
    <glyph glyph-name="Gamma" unicode="&#x393;" horiz-adv-x="1066" 
d="M112 0q-14 0 -11 14l268 1447q3 14 17 14h787q14 0 11 -14l-14 -82q-3 -14 -17 -14h-688l-250 -1351q-3 -14 -17 -14h-86z" />
    <glyph glyph-name="Delta" unicode="&#x394;" horiz-adv-x="1229" 
d="M-46 0q-14 0 -11 14l13 76q3 16 10 26l726 1347q7 12 21 12h133q15 0 16 -14l227 -1343q2 -16 -1 -28l-13 -76q-3 -14 -17 -14h-1104zM82 106h898l-216 1256z" />
    <glyph glyph-name="Delta" unicode="&#x2206;" horiz-adv-x="1229" 
d="M-46 0q-14 0 -11 14l13 76q3 16 10 26l726 1347q7 12 21 12h133q15 0 16 -14l227 -1343q2 -16 -1 -28l-13 -76q-3 -14 -17 -14h-1104zM82 106h898l-216 1256z" />
    <glyph glyph-name="Epsilon" unicode="&#x395;" horiz-adv-x="1186" 
d="M113 0q-14 0 -11 14l266 1447q3 14 17 14h822q13 0 12 -14l-16 -85q-1 -14 -16 -14h-722l-93 -502h626q14 0 11 -14l-15 -84q-3 -14 -17 -14h-626l-116 -636h721q14 0 11 -14l-16 -84q-3 -14 -17 -14h-821z" />
    <glyph glyph-name="Zeta" unicode="&#x396;" horiz-adv-x="1154" 
d="M-15 0q-14 0 -11 14l15 78q2 8 4.5 13.5t7.5 11.5l1058 1249h-805q-13 0 -12 14l15 81q1 14 16 14h927q13 0 12 -14l-15 -78q-1 -8 -3.5 -13.5t-7.5 -11.5l-1057 -1250h822q14 0 11 -14l-15 -80q-3 -14 -17 -14h-945z" />
    <glyph glyph-name="Eta" unicode="&#x397;" horiz-adv-x="1427" 
d="M113 0q-14 0 -11 14l266 1447q3 14 17 14h86q14 0 11 -14l-110 -601h769l110 601q3 14 17 14h86q14 0 11 -14l-267 -1447q-3 -14 -17 -14h-86q-14 0 -11 14l135 734h-768l-135 -734q-3 -14 -17 -14h-86z" />
    <glyph glyph-name="Theta" unicode="&#x398;" horiz-adv-x="1432" 
d="M467 700q-14 0 -11 14l15 82q3 14 17 14h523q14 0 11 -14l-15 -82q-3 -14 -17 -14h-523zM596 -22q-135 0 -232.5 35t-153.5 116t-69 213.5t20 327.5l23 135q36 205 97.5 338.5t148.5 212t198.5 110t248.5 31.5q136 0 233 -34.5t152.5 -115.5t68 -213.5t-20.5 -328.5
l-23 -135q-35 -203 -95.5 -336t-147.5 -212.5t-199 -111.5t-249 -32zM855 1380q-108 0 -196 -26.5t-156.5 -91.5t-118 -173.5t-80.5 -273.5l-28 -155q-30 -167 -21 -276t53 -173.5t122.5 -90.5t186.5 -26q105 0 193 27.5t157.5 93t119.5 174.5t80 273l28 153
q30 165 21.5 274t-53 173.5t-122.5 91t-186 26.5z" />
    <glyph glyph-name="Iota" unicode="&#x399;" horiz-adv-x="545" 
d="M113 0q-14 0 -11 14l266 1447q3 14 17 14h86q14 0 11 -14l-266 -1447q-3 -14 -17 -14h-86z" />
    <glyph glyph-name="Kappa" unicode="&#x39a;" horiz-adv-x="1163" 
d="M905 0q-14 0 -21 12l-433 744l-120 -102l-117 -640q-3 -14 -17 -14h-86q-14 0 -11 14l267 1447q3 14 17 14h85q14 0 11 -14l-118 -641l755 646q10 9 25 9h143q6 0 7 -2.5t-4 -6.5l-745 -633l485 -821q7 -12 -7 -12h-116z" />
    <glyph glyph-name="Lambda" unicode="&#x39b;" horiz-adv-x="1272" 
d="M-71 0q-15 0 -7 12l791 1451q7 12 21 12h131q15 0 16 -14l258 -1447q1 -14 -12 -14h-94q-15 0 -16 14l-237 1348l-731 -1350q-7 -12 -21 -12h-99z" />
    <glyph glyph-name="Mu" unicode="&#x39c;" horiz-adv-x="1648" 
d="M113 0q-14 0 -11 14l266 1447q3 14 17 14h91q14 0 19 -13l278 -732q7 -19 14.5 -38.5t12.5 -35t8.5 -26l3.5 -10.5l7.5 10.5t19.5 26t26.5 35.5t29.5 40l548 732q8 11 22 11h110q14 0 11 -14l-267 -1447q-3 -14 -17 -14h-86q-14 0 -11 14l220 1192l12 72q-2 -1 -19 -24
t-37 -51l-529 -707q-8 -11 -22 -11h-69q-14 0 -19 13l-260 698q-12 34 -20 58t-10 24l-18 -89l-218 -1175q-3 -14 -17 -14h-86z" />
    <glyph glyph-name="Nu" unicode="&#x39d;" horiz-adv-x="1430" 
d="M113 0q-14 0 -11 14l266 1447q3 14 17 14h97q14 0 19 -13l465 -1151q23 -55 35 -86.5t14 -31.5l235 1268q3 14 17 14h85q14 0 11 -14l-266 -1447q-3 -14 -17 -14h-102q-14 0 -19 13l-457 1143q-23 54 -36.5 89.5t-14.5 35.5l-235 -1267q-3 -14 -17 -14h-86z" />
    <glyph glyph-name="Xi" unicode="&#x39e;" horiz-adv-x="1087" 
d="M261 750q-14 0 -11 14l15 82q3 14 17 14h620q14 0 11 -14l-15 -82q-3 -14 -17 -14h-620zM1107 1379q-3 -14 -17 -14h-824q-14 0 -11 14l14 82q3 14 17 14h824q14 0 11 -14zM16 95q3 14 17 14h824q14 0 11 -14l-14 -81q-3 -14 -17 -14h-824q-14 0 -11 14z" />
    <glyph glyph-name="Omicron" unicode="&#x39f;" horiz-adv-x="1432" 
d="M596 -22q-135 0 -232.5 35t-153.5 116t-69 213.5t20 327.5l23 135q36 205 97.5 338.5t148.5 212t198.5 110t248.5 31.5q136 0 233 -34.5t152.5 -115.5t68 -213.5t-20.5 -328.5l-23 -135q-35 -203 -95.5 -336t-147.5 -212.5t-199 -111.5t-249 -32zM855 1380
q-108 0 -196 -26.5t-156.5 -91.5t-118 -173.5t-80.5 -273.5l-28 -155q-30 -167 -21 -276t53 -173.5t122.5 -90.5t186.5 -26q105 0 193 27.5t157.5 93t119.5 174.5t80 273l28 153q30 165 21.5 274t-53 173.5t-122.5 91t-186 26.5z" />
    <glyph glyph-name="Pi" unicode="&#x3a0;" horiz-adv-x="1427" 
d="M113 0q-14 0 -11 14l267 1447q3 14 17 14h967q14 0 11 -14l-267 -1447q-3 -14 -17 -14h-86q-14 0 -11 14l250 1348h-768l-250 -1348q-3 -14 -17 -14h-85z" />
    <glyph glyph-name="Rho" unicode="&#x3a1;" horiz-adv-x="1271" 
d="M676 1385q-17 0 -45.5 -1t-59.5 -2t-59 -3t-44 -3l-135 -724q15 -2 43 -3t58.5 -2t59.5 -1.5t46 -0.5q148 0 250.5 13.5t170.5 51t106.5 104.5t58.5 174l11 53q19 107 6 174.5t-67 105t-152 51t-248 13.5zM112 0q-14 0 -11 14l269 1449q2 14 17 15q35 3 78 5l86 4t81 3
t64 1q164 0 281 -17t186.5 -65t91.5 -133.5t-3 -223.5l-14 -74q-18 -97 -45.5 -167t-68 -119t-96.5 -79t-129.5 -46.5t-168 -22t-211.5 -5.5q-21 0 -53.5 0.5t-64 1.5t-57 2t-32.5 2l-97 -531q-3 -14 -17 -14h-86z" />
    <glyph glyph-name="Sigma" unicode="&#x3a3;" horiz-adv-x="1123" 
d="M-29 0q-13 0 -12 14l15 78q1 13 12 24l675 640l-443 601q-8 10 -5 25l14 79q3 14 17 14h929q14 0 11 -14l-15 -85q-3 -14 -17 -14h-797l449 -603q8 -10 -2 -21l-658 -626h776q13 0 12 -14l-16 -84q-1 -14 -16 -14h-929z" />
    <glyph glyph-name="Tau" unicode="&#x3a4;" horiz-adv-x="1162" 
d="M414 0q-14 0 -11 14l250 1348h-486q-14 0 -11 14l15 85q3 14 17 14h1087q14 0 11 -14l-16 -85q-3 -14 -17 -14h-486l-249 -1348q-3 -14 -17 -14h-87z" />
    <glyph glyph-name="Upsilon" unicode="&#x3a5;" horiz-adv-x="1131" 
d="M401 0q-14 0 -11 14l91 501l-315 947q-4 13 10 13h92q14 0 18 -13l270 -810l571 812q8 11 22 11h104q14 0 6 -11l-664 -948l-92 -502q-3 -14 -17 -14h-85z" />
    <glyph glyph-name="Phi" unicode="&#x3a6;" horiz-adv-x="1369" 
d="M540 155q-123 6 -213.5 38t-144.5 97.5t-70 168.5t11 251l10 59q28 157 80.5 261t129.5 167t180 90.5t233 32.5l26 141q3 14 17 14h86q14 0 11 -14l-26 -141q124 -5 214.5 -37t144 -97t69 -167.5t-10.5 -249.5l-11 -59q-27 -153 -78.5 -257t-128.5 -169t-180.5 -95
t-234.5 -34l-26 -141q-3 -14 -17 -14h-86q-14 0 -11 14zM735 1208q-102 -5 -181.5 -27.5t-138.5 -72t-99.5 -130t-62.5 -200.5l-14 -77q-23 -120 -12.5 -201.5t52 -132t112.5 -74t169 -27.5zM1171 777q23 120 12 200.5t-52.5 130t-113 72.5t-168.5 28l-175 -942
q102 5 182 30t140 76t99.5 132.5t60.5 198.5z" />
    <glyph glyph-name="Chi" unicode="&#x3a7;" horiz-adv-x="1233" 
d="M951 0q-14 0 -20 13l-302 641l-541 -643q-5 -6 -10 -8.5t-13 -2.5h-121q-14 0 -5 11l625 725l-356 726q-6 13 8 13h106q8 0 12 -2.5t8 -10.5l302 -641l542 643q5 6 10 8.5t13 2.5h121q14 0 5 -11l-625 -726l355 -725q6 -13 -8 -13h-106z" />
    <glyph glyph-name="Psi" unicode="&#x3a8;" horiz-adv-x="1247" 
d="M452 0q-14 0 -11 14l102 555q-107 7 -186.5 40t-127 96t-61 158.5t10.5 226.5l68 371q3 14 17 14h86q14 0 11 -14l-63 -343q-20 -104 -17 -182.5t33 -132.5t91 -84t159 -36l144 778q3 14 17 14h86q14 0 11 -14l-144 -779q103 6 177 36t125.5 84t83.5 132.5t52 183.5
l62 343q3 14 17 14h87q14 0 11 -14l-69 -371q-26 -138 -75 -234.5t-121 -158.5t-165 -92t-206 -36l-102 -555q-3 -14 -17 -14h-86z" />
    <glyph glyph-name="Omega" unicode="&#x3a9;" horiz-adv-x="1385" 
d="M61 0q-13 0 -12 14l15 78q1 14 16 14h285l3 17q-65 29 -111.5 84t-72 136t-27.5 187.5t23 240.5l13 71q34 184 95.5 309t146 202t190.5 110.5t229 33.5q120 0 213 -34t150 -111.5t73.5 -202.5t-17.5 -307l-13 -71q-26 -138 -67.5 -245.5t-97 -187t-122.5 -133t-143 -82.5
l-3 -17h286q14 0 11 -14l-14 -78q-3 -14 -17 -14h-387q-14 0 -11 14l26 144q3 14 16 19q70 25 134 74t117.5 122t94 171t63.5 222l13 73q29 159 17 264.5t-57 167.5t-118.5 87.5t-166.5 25.5t-176.5 -27.5t-152 -91.5t-119.5 -168.5t-79 -257.5l-14 -73q-24 -132 -19.5 -233
t31 -173t72.5 -117t104 -66q13 -5 10 -19l-26 -144q-3 -14 -17 -14h-387z" />
    <glyph glyph-name="Omega" unicode="&#x2126;" horiz-adv-x="1385" 
d="M61 0q-13 0 -12 14l15 78q1 14 16 14h285l3 17q-65 29 -111.5 84t-72 136t-27.5 187.5t23 240.5l13 71q34 184 95.5 309t146 202t190.5 110.5t229 33.5q120 0 213 -34t150 -111.5t73.5 -202.5t-17.5 -307l-13 -71q-26 -138 -67.5 -245.5t-97 -187t-122.5 -133t-143 -82.5
l-3 -17h286q14 0 11 -14l-14 -78q-3 -14 -17 -14h-387q-14 0 -11 14l26 144q3 14 16 19q70 25 134 74t117.5 122t94 171t63.5 222l13 73q29 159 17 264.5t-57 167.5t-118.5 87.5t-166.5 25.5t-176.5 -27.5t-152 -91.5t-119.5 -168.5t-79 -257.5l-14 -73q-24 -132 -19.5 -233
t31 -173t72.5 -117t104 -66q13 -5 10 -19l-26 -144q-3 -14 -17 -14h-387z" />
    <glyph glyph-name="Alphatonos" unicode="&#x386;" horiz-adv-x="1272" 
d="M-70 0q-15 0 -7 12l791 1451q7 12 21 12h131q15 0 16 -14l258 -1447q1 -14 -12 -14h-94q-15 0 -16 14l-72 407h-675l-221 -409q-7 -12 -21 -12h-99zM780 1362l-450 -831h597zM296 1126q-14 0 -10 13l89 324q4 13 18 13h97q13 0 9 -13l-123 -324q-5 -13 -19 -13h-61z" />
    <glyph glyph-name="Epsilontonos" unicode="&#x388;" horiz-adv-x="1186" 
d="M69 1126q-14 0 -10 13l89 324q4 13 18 13h97q13 0 9 -13l-123 -324q-5 -13 -19 -13h-61zM113 0q-14 0 -11 14l266 1447q3 14 17 14h822q13 0 12 -14l-16 -85q-1 -14 -16 -14h-722l-93 -502h626q14 0 11 -14l-15 -84q-3 -14 -17 -14h-626l-116 -636h721q14 0 11 -14
l-16 -84q-3 -14 -17 -14h-821z" />
    <glyph glyph-name="Etatonos" unicode="&#x389;" horiz-adv-x="1501" 
d="M152 1126q-14 0 -10 13l89 324q4 13 18 13h97q13 0 9 -13l-123 -324q-5 -13 -19 -13h-61zM187 0q-14 0 -11 14l266 1447q3 14 17 14h86q14 0 11 -14l-110 -601h769l110 601q3 14 17 14h86q14 0 11 -14l-267 -1447q-3 -14 -17 -14h-86q-14 0 -11 14l135 734h-768
l-135 -734q-3 -14 -17 -14h-86z" />
    <glyph glyph-name="Iotatonos" unicode="&#x38a;" horiz-adv-x="617" 
d="M185 0q-14 0 -11 14l266 1447q3 14 17 14h86q14 0 11 -14l-266 -1447q-3 -14 -17 -14h-86zM151 1126q-14 0 -10 13l89 324q4 13 18 13h97q13 0 9 -13l-123 -324q-5 -13 -19 -13h-61z" />
    <glyph glyph-name="Iotadieresis" unicode="&#x3aa;" horiz-adv-x="545" 
d="M113 0q-14 0 -11 14l266 1447q3 14 17 14h86q14 0 11 -14l-266 -1447q-3 -14 -17 -14h-86zM267 1606q-14 0 -11 14l35 194q3 14 17 17l94 18q14 3 11 -11l-40 -218q-3 -14 -17 -14h-89zM559 1606q-13 0 -12 14l36 194q1 14 16 17l94 18q14 3 11 -11l-39 -218
q-3 -14 -17 -14h-89z" />
    <glyph glyph-name="Omicrontonos" unicode="&#x38c;" horiz-adv-x="1528" 
d="M191 1126q-14 0 -10 13l89 324q4 13 18 13h97q13 0 9 -13l-123 -324q-5 -13 -19 -13h-61zM692 -22q-135 0 -232.5 35t-153.5 116t-69 213.5t20 327.5l23 135q36 205 97.5 338.5t148.5 212t198.5 110t248.5 31.5q136 0 233 -34.5t152.5 -115.5t68 -213.5t-20.5 -328.5
l-23 -135q-35 -203 -95.5 -336t-147.5 -212.5t-199 -111.5t-249 -32zM951 1380q-108 0 -196 -26.5t-156.5 -91.5t-118 -173.5t-80.5 -273.5l-28 -155q-30 -167 -21 -276t53 -173.5t122.5 -90.5t186.5 -26q105 0 193 27.5t157.5 93t119.5 174.5t80 273l28 153
q30 165 21.5 274t-53 173.5t-122.5 91t-186 26.5z" />
    <glyph glyph-name="Upsilontonos" unicode="&#x38e;" horiz-adv-x="1397" 
d="M666 0q-14 0 -11 14l91 501l-315 947q-4 13 10 13h92q14 0 18 -13l270 -810l571 812q8 11 22 11h104q14 0 6 -11l-664 -948l-92 -502q-3 -14 -17 -14h-85zM160 1126q-14 0 -10 13l89 324q4 13 18 13h97q13 0 9 -13l-123 -324q-5 -13 -19 -13h-61z" />
    <glyph glyph-name="Upsilondieresis" unicode="&#x3ab;" horiz-adv-x="1132" 
d="M401 0q-14 0 -11 14l91 501l-315 947q-4 13 10 13h92q14 0 18 -13l270 -810l571 812q8 11 22 11h104q14 0 6 -11l-664 -948l-92 -502q-3 -14 -17 -14h-85zM549 1606q-14 0 -11 14l35 194q3 14 17 17l94 18q14 3 11 -11l-40 -218q-3 -14 -17 -14h-89zM841 1606
q-13 0 -12 14l36 194q1 14 16 17l94 18q14 3 11 -11l-39 -218q-3 -14 -17 -14h-89z" />
    <glyph glyph-name="Omegatonos" unicode="&#x38f;" horiz-adv-x="1485" 
d="M193 1126q-14 0 -10 13l89 324q4 13 18 13h97q13 0 9 -13l-123 -324q-5 -13 -19 -13h-61zM161 0q-13 0 -12 14l15 78q1 14 16 14h285l3 17q-65 29 -111.5 84t-72 136t-27.5 187.5t23 240.5l13 71q34 184 95.5 309t146 202t190.5 110.5t229 33.5q120 0 213 -34t150 -111.5
t73.5 -202.5t-17.5 -307l-13 -71q-26 -138 -67.5 -245.5t-97 -187t-122.5 -133t-143 -82.5l-3 -17h286q14 0 11 -14l-14 -78q-3 -14 -17 -14h-387q-14 0 -11 14l26 144q3 14 16 19q70 25 134 74t117.5 122t94 171t63.5 222l13 73q29 159 17 264.5t-57 167.5t-118.5 87.5
t-166.5 25.5t-176.5 -27.5t-152 -91.5t-119.5 -168.5t-79 -257.5l-14 -73q-24 -132 -19.5 -233t31 -173t72.5 -117t104 -66q13 -5 10 -19l-26 -144q-3 -14 -17 -14h-387z" />
    <glyph glyph-name="alpha" unicode="&#x3b1;" horiz-adv-x="1172" 
d="M947 -16q-15 -2 -35 -4t-40 -2q-48 0 -76 15.5t-36 50.5q-41 -18 -82.5 -30.5t-81.5 -20.5t-77.5 -11.5t-69.5 -3.5q-120 0 -196.5 25t-115 83.5t-42 154t22.5 236.5l20 114q26 142 66.5 238t101.5 154.5t144.5 83.5t196.5 25q38 0 77.5 -6t77 -17.5t70.5 -27t59 -33.5
l27 69q5 13 19 13h60q14 0 11 -14l-168 -906q-6 -30 -7 -47.5t2.5 -27.5t12 -13t23.5 -3q10 0 20 0.5t18 1.5q14 1 14 -12l-2 -69q0 -13 -14 -16zM644 988q-95 0 -161 -20t-111.5 -68t-75.5 -128t-52 -200l-14 -74q-24 -123 -26 -204t24 -129t84.5 -67t156.5 -19
q28 0 63 2.5t73.5 9t79 19.5t79.5 34l144 775q-27 16 -60.5 29t-69 22t-70.5 13.5t-64 4.5z" />
    <glyph glyph-name="beta" unicode="&#x3b2;" horiz-adv-x="1156" 
d="M0 -451q-14 0 -11 14l285 1541q31 166 78 268t111 158.5t144 76t177 19.5q88 0 154 -26t107.5 -76t55 -123t-3.5 -167l-4 -19q-11 -62 -30.5 -115.5t-51.5 -97t-78.5 -75t-111.5 -49.5q75 -24 116.5 -69.5t59.5 -101.5t17 -116t-11 -114l-6 -33q-27 -149 -76 -240
t-119.5 -141.5t-162 -67.5t-201.5 -17q-73 0 -139.5 5t-118.5 15l-80 -435q-3 -14 -17 -14h-83zM764 1520q-75 0 -134.5 -17.5t-106 -64t-80.5 -127.5t-58 -207l-187 -1007q30 -4 56.5 -7t55 -5.5t61 -4t74.5 -1.5q90 0 162.5 16.5t126.5 57.5t91 111.5t57 177.5l9 45
q13 69 7 130.5t-34.5 107.5t-81.5 73t-134 27h-59q-14 0 -11 14l15 79q3 14 17 14h59q79 0 134 26t91 66.5t56 90t29 96.5l3 18q15 81 4.5 137t-40.5 90t-77 49t-105 15z" />
    <glyph glyph-name="gamma" unicode="&#x3b3;" horiz-adv-x="999" 
d="M274 -451q-14 0 -11 14l81 437l-150 945q-8 42 -58 42q-7 0 -15 -0.5t-16 -1.5q-14 -1 -14 12l3 72q0 14 14 17q11 2 26 4t34 2q64 0 93 -25t39 -88l125 -838l483 918q7 12 21 12h96q14 0 7 -12l-578 -1059l-80 -437q-3 -14 -17 -14h-83z" />
    <glyph glyph-name="delta" unicode="&#x3b4;" horiz-adv-x="1147" 
d="M453 -23q-119 0 -197 34.5t-119 103t-46.5 170.5t19.5 237l13 67q23 123 70.5 210.5t116 146t156.5 90.5t192 44l-26 18q-54 37 -93 67.5t-64 60t-37 59t-12 64.5q0 57 11.5 99.5t39.5 73t75.5 50.5t119 31.5t169 16.5t227.5 5q14 0 11 -14l-12 -70q-3 -14 -17 -14
q-162 0 -262.5 -7.5t-156 -25t-75 -48t-19.5 -76.5q0 -23 9.5 -43t31.5 -43t58.5 -50.5t90.5 -64.5q93 -64 156 -122t97 -125t39.5 -150.5t-15.5 -197.5l-10 -52q-29 -153 -72.5 -257.5t-108 -168t-153 -91.5t-207.5 -28zM892 559q18 95 16.5 163.5t-20 120t-52.5 91
t-82 77.5q-224 -14 -354.5 -118t-169.5 -315l-9 -46q-22 -119 -22 -205t28 -141t87 -81t156 -26q94 0 163 26t118 81t81.5 141.5t54.5 206.5z" />
    <glyph glyph-name="epsilon" unicode="&#x3b5;" horiz-adv-x="972" 
d="M462 -22q-113 0 -192 14t-126 50.5t-62 99.5t2 162q9 49 26.5 93.5t47 80t73.5 60t106 34.5q-60 12 -95 37t-51.5 58t-17.5 73t7 84q15 84 50.5 136t94.5 81.5t144 40t198 10.5q78 0 150.5 -7t127.5 -15q15 -2 9 -15l-27 -77q-5 -13 -19 -11q-59 8 -123 12.5t-130 4.5
q-90 0 -154 -6.5t-107 -27t-67.5 -58t-36.5 -100.5q-3 -17 -4.5 -36t3 -37.5t18 -35.5t41.5 -30t72.5 -21t111.5 -8h195q14 0 11 -14l-14 -75q-3 -14 -17 -14h-189q-91 0 -149 -16.5t-92.5 -44.5t-50.5 -64.5t-23 -76.5q-14 -74 -3.5 -119.5t45.5 -70.5t95.5 -33.5
t145.5 -8.5q63 0 134 4.5t131 12.5q14 1 14 -12l-2 -75q0 -14 -14 -17q-58 -10 -133.5 -16t-153.5 -6z" />
    <glyph glyph-name="zeta" unicode="&#x3b6;" horiz-adv-x="821" 
d="M273 1500q-14 0 -11 14l13 74q3 14 17 14h647q14 0 11 -14l-13 -74q-3 -14 -14 -22q-129 -93 -234 -194t-186 -203t-140 -200t-97 -184.5t-56 -158.5t-18 -120q0 -39 10.5 -71.5t38.5 -62.5t75.5 -58.5t121.5 -59.5q71 -31 118 -57t75 -51t39.5 -52t11.5 -59
q0 -65 -25 -112t-70 -81.5t-107 -58t-137 -42.5q-14 -3 -13 11l2 78q1 14 15 18q110 31 164.5 71t54.5 97q0 18 -7 33t-26.5 30t-54.5 32t-90 39q-93 38 -153.5 75t-96 76t-49.5 81.5t-14 91.5q0 80 24 172.5t68.5 190.5t107.5 198t141.5 196t170 183t193.5 160h-507z" />
    <glyph glyph-name="eta" unicode="&#x3b7;" horiz-adv-x="1199" 
d="M733 -451q-14 0 -11 14l198 1064q18 105 18.5 174t-23 109.5t-72 56.5t-127.5 16q-88 0 -183.5 -23t-187.5 -68l-162 -878q-3 -14 -17 -14h-83q-14 0 -11 14l196 1062q3 14 17 14h60q14 0 14 -14l2 -85q42 23 92.5 42t103 32t106 20t101.5 7q97 0 159.5 -24t94.5 -77.5
t34.5 -140t-20.5 -211.5l-199 -1076q-3 -14 -17 -14h-83z" />
    <glyph glyph-name="theta" unicode="&#x3b8;" horiz-adv-x="1227" 
d="M494 -23q-117 0 -195 36.5t-118.5 117.5t-43 210.5t31.5 315.5l53 288q35 193 82.5 323.5t115.5 210t160.5 113.5t218.5 34q117 0 195.5 -36.5t119 -117.5t42.5 -210.5t-32 -315.5l-53 -289q-36 -192 -83 -322.5t-115 -210t-160.5 -113.5t-218.5 -34zM281 670
q-30 -164 -35 -276t21.5 -182t86.5 -100.5t159 -30.5q97 0 168.5 30.5t124 100t90 182t67.5 277.5l21 113h-682zM780 1522q-98 0 -169 -30.5t-123.5 -100t-90 -182.5t-67.5 -278l-8 -40h682l8 40q30 165 34.5 278t-22 182.5t-86.5 100t-158 30.5z" />
    <glyph glyph-name="iota" unicode="&#x3b9;" horiz-adv-x="502" 
d="M204 -22q-37 0 -62.5 7.5t-39.5 26.5t-16 51t7 80l169 914q3 14 17 14h83q14 0 11 -14l-164 -887q-6 -30 -7.5 -47.5t2 -27.5t12.5 -13t24 -3q11 0 21.5 0.5t20.5 1.5q14 1 14 -12l-3 -69q0 -13 -14 -16q-15 -2 -35 -4t-40 -2z" />
    <glyph glyph-name="kappa" unicode="&#x3ba;" horiz-adv-x="1011" 
d="M739 0q-14 0 -21 12l-314 517l-149 -125l-71 -390q-3 -14 -17 -14h-83q-14 0 -11 14l192 1043q3 14 17 14h83q14 0 11 -14l-92 -496l583 501q10 9 25 9h138q6 0 7 -2.5t-4 -6.5l-544 -461l373 -589q6 -12 -7 -12h-116z" />
    <glyph glyph-name="lambda" unicode="&#x3bb;" horiz-adv-x="1003" 
d="M-56 0q-15 0 -7 12l604 1085l-1 10q-16 127 -35 208t-45.5 127t-63.5 63.5t-89 17.5q-23 0 -49 -2.5t-49 -7.5q-14 -4 -14 10l-2 66q0 13 13 17q29 9 66.5 14.5t66.5 5.5q69 0 117.5 -20t83 -71t58 -139.5t41.5 -225.5l141 -1060q2 -20 13.5 -25.5t37.5 -5.5
q7 0 14.5 0.5t16.5 1.5q14 3 14 -12l-2 -68q0 -14 -14 -17q-15 -2 -32.5 -4t-39.5 -2q-34 0 -55.5 6t-34.5 18t-19.5 30.5t-9.5 43.5l-107 855q-8 -17 -16.5 -36.5t-18.5 -38.5l-465 -844q-7 -12 -21 -12h-97z" />
    <glyph glyph-name="mu" unicode="&#xb5;" horiz-adv-x="1262" 
d="M27 -389q-14 0 -11 14l265 1432q3 14 17 14h83q14 0 11 -14l-121 -651q-20 -107 -6.5 -171t53.5 -97.5t101.5 -43.5t138.5 -10q36 0 76 2.5t79 6.5t75.5 10t66.5 14l174 940q3 14 17 14h83q14 0 11 -14l-187 -1011q-3 -14 -17 -18q-38 -9 -87 -18t-102 -16t-108.5 -11.5
t-107.5 -4.5q-137 0 -216.5 31.5t-97.5 103.5l-90 -488q-3 -14 -17 -14h-83z" />
    <glyph glyph-name="nu" unicode="&#x3bd;" horiz-adv-x="991" 
d="M309 0q-15 0 -16 14l-185 1043q-1 14 12 14h88q15 0 16 -14l163 -946l515 948q7 12 21 12h95q14 0 7 -12l-572 -1047q-7 -12 -21 -12h-123z" />
    <glyph glyph-name="xi" unicode="&#x3be;" horiz-adv-x="845" 
d="M778 886q-3 -14 -17 -14h-89q-121 0 -203 -17t-135 -53.5t-82 -94t-44 -139.5l-5 -29q-14 -75 -13.5 -126t25 -90.5t76.5 -72t141 -69.5q71 -31 118.5 -56.5t75.5 -51t39.5 -52t11.5 -58.5q0 -66 -25 -113t-70 -81.5t-107.5 -58.5t-137.5 -42q-14 -3 -13 11l2 79
q1 14 15 18q110 30 164.5 70t54.5 96q0 18 -7 33t-26.5 30t-54.5 32t-90 39q-113 45 -179 89t-96.5 96t-31.5 116.5t14 151.5l10 55q14 73 37 131t59 101.5t86.5 73.5t120.5 48q-101 31 -142.5 100t-19.5 186l14 76q15 86 49.5 148t92.5 101.5t142 58t198 18.5
q51 0 103 -5.5t107 -16.5q13 -3 9 -16l-30 -71q-5 -13 -19 -11q-49 7 -91 11t-82 4q-98 0 -164.5 -16.5t-109 -47.5t-65 -74t-32.5 -96l-9 -55q-17 -89 3.5 -140.5t75 -78t142 -34t205.5 -8.5q15 0 12 -14l-9 -48z" />
    <glyph glyph-name="omicron" unicode="&#x3bf;" horiz-adv-x="1181" 
d="M659 990q-99 0 -170 -24t-120.5 -75.5t-81 -131t-52.5 -190.5l-12 -69q-20 -111 -18.5 -190.5t31.5 -130.5t92 -75.5t162 -24.5q99 0 170 24t120.5 75.5t81 131.5t52.5 192l12 67q21 110 19 189.5t-32 131t-92 76t-162 24.5zM471 -22q-122 0 -202.5 30.5t-123.5 93.5
t-50.5 159.5t17.5 228.5l15 87q26 138 69.5 236t110 160t158 90.5t213.5 28.5q123 0 204 -30.5t124 -93.5t49.5 -160.5t-18.5 -230.5l-15 -87q-25 -138 -68.5 -235.5t-109.5 -159t-158 -89.5t-215 -28z" />
    <glyph glyph-name="pi" unicode="&#x3c0;" horiz-adv-x="1283" 
d="M115 971q-14 0 -11 14l13 72q3 14 17 14h1157q13 0 9 -13l-30 -74q-5 -13 -19 -13h-164l-149 -801q-5 -30 -5.5 -47.5t5 -27.5t16.5 -13t30 -3q31 0 54 3q14 0 14 -13l-1 -69q0 -13 -14 -16q-17 -2 -38.5 -4t-41.5 -2q-42 0 -71.5 7.5t-46 26.5t-21 51t4.5 80l154 828
h-555l-177 -957q-3 -14 -17 -14h-83q-14 0 -11 14l177 957h-196z" />
    <glyph glyph-name="rho" unicode="&#x3c1;" horiz-adv-x="1154" 
d="M652 990q-73 0 -131 -11t-102.5 -46t-76 -100t-51.5 -172l-103 -557q24 -6 53 -10.5t60 -7.5t61.5 -4.5t56.5 -1.5q118 0 196.5 20t130 69t82.5 131.5t54 206.5l12 66q22 121 23 201.5t-26 128.5t-85 67.5t-154 19.5zM-12 -451q-14 0 -11 14l206 1108q17 92 42 158.5
t57.5 113.5t73.5 76t89.5 45.5t105 22t121.5 5.5q118 0 195 -26.5t116 -86t43.5 -155t-20.5 -233.5l-18 -100q-27 -150 -67.5 -248.5t-107 -157.5t-166.5 -83t-246 -24q-60 0 -122 7t-109 18l-82 -440q-3 -14 -17 -14h-83z" />
    <glyph glyph-name="sigma" unicode="&#x3c3;" horiz-adv-x="1217" 
d="M471 -21q-122 0 -202.5 31t-123.5 94t-50.5 159.5t16.5 228.5l16 85q26 139 69 236.5t109 159t157.5 89.5t213.5 28h525q13 0 12 -14l-14 -72q-1 -14 -16 -14h-245q26 -20 46.5 -44.5t33.5 -52.5q12 -29 20.5 -60.5t11.5 -70t-0.5 -86.5t-14.5 -109l-14 -75
q-26 -139 -69 -236.5t-109 -159t-157.5 -89.5t-214.5 -28zM658 989q-99 0 -170 -24t-120.5 -75t-81 -131t-52.5 -192l-12 -66q-20 -111 -18.5 -191t32 -131.5t92 -75.5t161.5 -24q99 0 170.5 24t121 75.5t81 131.5t52.5 193l12 66q20 110 18 189.5t-32 130.5t-92 75.5
t-162 24.5z" />
    <glyph glyph-name="sigma1" unicode="&#x3c2;" horiz-adv-x="879" 
d="M679 -34q0 -63 -25 -110.5t-70 -82.5t-107 -60.5t-137 -44.5q-14 -3 -14 11l3 79q0 14 14 18q110 30 165 67t55 99q0 18 -8.5 33.5t-28.5 30.5t-54.5 32t-86.5 39q-108 45 -173 86.5t-97 92t-34.5 116t14.5 157.5l14 77q25 137 65 230t105 150t162 81.5t236 24.5
q63 0 120 -5.5t102 -13.5q15 -3 9 -16l-30 -74q-3 -8 -7 -10t-12 -1q-45 8 -98.5 10.5t-101.5 2.5q-111 0 -186 -19.5t-125 -65.5t-80.5 -122.5t-51.5 -189.5l-8 -46q-14 -75 -12.5 -127t26 -91.5t76 -72.5t137.5 -70q70 -31 117 -56.5t75.5 -49.5t40 -50t11.5 -59z" />
    <glyph glyph-name="tau" unicode="&#x3c4;" horiz-adv-x="823" 
d="M100 971q-14 0 -11 14l13 72q3 14 17 14h759q13 0 9 -13l-30 -74q-5 -13 -19 -13h-332l-149 -801q-5 -30 -5.5 -47.5t4.5 -27.5t16.5 -13t29.5 -3q15 0 29.5 0.5t25.5 1.5q14 1 14 -12l-2 -69q0 -13 -14 -16q-17 -2 -39 -4t-44 -2q-41 0 -70 7.5t-45.5 26.5t-20.5 51
t5 80l154 828h-295z" />
    <glyph glyph-name="upsilon" unicode="&#x3c5;" horiz-adv-x="1202" 
d="M496 -22q-119 0 -197.5 32.5t-120 98.5t-48 167.5t19.5 239.5l101 542q3 14 17 14h82q14 0 11 -14l-98 -532q-22 -118 -21.5 -202.5t29 -139t88 -80t156.5 -25.5q94 0 162.5 24t116.5 76t79 132.5t52 194.5l8 41q21 116 29 192t2.5 124.5t-24.5 75.5t-51 45q-11 8 -6 20
l34 77q4 8 7.5 9.5t11.5 -2.5q54 -24 86.5 -62.5t45.5 -101.5t6 -154.5t-31 -222.5l-9 -50q-26 -147 -68.5 -246t-107 -160t-154 -87t-208.5 -26z" />
    <glyph glyph-name="phi" unicode="&#x3c6;" horiz-adv-x="1418" 
d="M469 -451q-14 0 -11 14l76 415q-152 1 -246 32.5t-142 94.5t-54.5 159t17.5 226l16 87q26 139 68.5 237t114 159.5t176.5 89.5t257 29l92 496q3 14 17 17l86 18q14 3 11 -11l-96 -520q152 0 247 -31.5t143 -95t54.5 -160.5t-18.5 -228l-16 -87q-26 -140 -68.5 -237.5
t-113.5 -158t-176.5 -88.5t-258.5 -28l-76 -415q-3 -14 -17 -14h-82zM1166 569q21 110 20 189.5t-36.5 130.5t-111.5 76t-206 25l-169 -911q129 0 213.5 24.5t139.5 75.5t85.5 131t51.5 192zM221 500q-21 -110 -20 -189.5t36 -131t111 -76t205 -24.5l169 911
q-129 0 -213.5 -24.5t-139 -76t-85 -131t-50.5 -189.5z" />
    <glyph glyph-name="chi" unicode="&#x3c7;" horiz-adv-x="977" 
d="M623 -451q-14 0 -18 14l-181 667l-434 -669q-8 -12 -22 -12h-108q-14 0 -6 12l517 768l-239 729q-4 13 10 13h97q14 0 18 -13l188 -637l427 638q8 12 22 12h112q14 0 6 -11l-518 -735l240 -763q4 -13 -10 -13h-101z" />
    <glyph glyph-name="psi" unicode="&#x3c8;" horiz-adv-x="1405" 
d="M463 -451q-14 0 -11 14l77 416q-129 5 -214.5 37.5t-131 96t-53.5 159.5t17 228l103 557q3 14 17 14h83q14 0 11 -14l-101 -547q-21 -111 -18.5 -190t35.5 -131t99 -78t172 -31l279 1508q3 14 17 17l87 18q14 3 11 -11l-284 -1532q108 5 183 31t127 78t84 131t53 190
l101 547q3 14 17 14h82q14 0 11 -14l-102 -556q-26 -139 -70 -236t-112.5 -159t-165 -92t-227.5 -35l-77 -416q-3 -14 -17 -14h-82z" />
    <glyph glyph-name="omega" unicode="&#x3c9;" horiz-adv-x="1638" 
d="M399 -22q-195 0 -260.5 127t-15.5 382l10 51q20 102 39 178.5t40 133t44.5 95t51.5 66t61.5 45t75.5 32.5q13 6 14 -9l4 -72q1 -13 -11 -20q-40 -21 -69.5 -49t-53 -77t-44 -124.5t-42.5 -192.5l-9 -47q-20 -111 -22 -190t19 -129t67.5 -73.5t121.5 -23.5
q71 0 123.5 25.5t90.5 80t65.5 138.5t49.5 201l29 160q3 14 17 14h77q14 0 11 -14l-29 -160q-22 -117 -25.5 -201t15 -138.5t61 -80t113.5 -25.5q76 0 131 23.5t94.5 73.5t67 129t47.5 190l9 47q21 116 29 191.5t2.5 124t-24 76.5t-49.5 49q-13 9 -6 21l31 74q6 14 18 7
q55 -25 88 -67t45 -107t5 -157t-31 -218l-10 -51q-28 -145 -68 -242.5t-95.5 -157t-130 -84.5t-171.5 -25q-113 0 -180.5 64.5t-70.5 190.5q-26 -70 -61.5 -118.5t-80.5 -79t-97.5 -44t-110.5 -13.5z" />
    <glyph glyph-name="alphatonos" unicode="&#x3ac;" horiz-adv-x="1172" 
d="M645 1252q-14 0 -10 13l89 324q4 13 18 13h97q13 0 9 -13l-123 -324q-5 -13 -19 -13h-61zM947 -16q-15 -2 -35 -4t-40 -2q-48 0 -76 15.5t-36 50.5q-41 -18 -82.5 -30.5t-81.5 -20.5t-77.5 -11.5t-69.5 -3.5q-120 0 -196.5 25t-115 83.5t-42 154t22.5 236.5l20 114
q26 142 66.5 238t101.5 154.5t144.5 83.5t196.5 25q38 0 77.5 -6t77 -17.5t70.5 -27t59 -33.5l27 69q5 13 19 13h60q14 0 11 -14l-168 -906q-6 -30 -7 -47.5t2.5 -27.5t12 -13t23.5 -3q10 0 20 0.5t18 1.5q14 1 14 -12l-2 -69q0 -13 -14 -16zM644 988q-95 0 -161 -20
t-111.5 -68t-75.5 -128t-52 -200l-14 -74q-24 -123 -26 -204t24 -129t84.5 -67t156.5 -19q28 0 63 2.5t73.5 9t79 19.5t79.5 34l144 775q-27 16 -60.5 29t-69 22t-70.5 13.5t-64 4.5z" />
    <glyph glyph-name="epsilontonos" unicode="&#x3ad;" horiz-adv-x="971" 
d="M612 1252q-14 0 -10 13l89 324q4 13 18 13h97q13 0 9 -13l-123 -324q-5 -13 -19 -13h-61zM462 -22q-113 0 -192 14t-126 50.5t-62 99.5t2 162q9 49 26.5 93.5t47 80t73.5 60t106 34.5q-60 12 -95 37t-51.5 58t-17.5 73t7 84q15 84 50.5 136t94.5 81.5t144 40t198 10.5
q78 0 150.5 -7t127.5 -15q15 -2 9 -15l-27 -77q-5 -13 -19 -11q-59 8 -123 12.5t-130 4.5q-90 0 -154 -6.5t-107 -27t-67.5 -58t-36.5 -100.5q-3 -17 -4.5 -36t3 -37.5t18 -35.5t41.5 -30t72.5 -21t111.5 -8h195q14 0 11 -14l-14 -75q-3 -14 -17 -14h-189q-91 0 -149 -16.5
t-92.5 -44.5t-50.5 -64.5t-23 -76.5q-14 -74 -3.5 -119.5t45.5 -70.5t95.5 -33.5t145.5 -8.5q63 0 134 4.5t131 12.5q14 1 14 -12l-2 -75q0 -14 -14 -17q-58 -10 -133.5 -16t-153.5 -6z" />
    <glyph glyph-name="etatonos" unicode="&#x3ae;" horiz-adv-x="1198" 
d="M681 1252q-14 0 -10 13l89 324q4 13 18 13h97q13 0 9 -13l-123 -324q-5 -13 -19 -13h-61zM733 -451q-14 0 -11 14l198 1064q18 105 18.5 174t-23 109.5t-72 56.5t-127.5 16q-88 0 -183.5 -23t-187.5 -68l-162 -878q-3 -14 -17 -14h-83q-14 0 -11 14l196 1062q3 14 17 14
h60q14 0 14 -14l2 -85q42 23 92.5 42t103 32t106 20t101.5 7q97 0 159.5 -24t94.5 -77.5t34.5 -140t-20.5 -211.5l-199 -1076q-3 -14 -17 -14h-83z" />
    <glyph glyph-name="iotatonos" unicode="&#x3af;" horiz-adv-x="502" 
d="M314 1252q-14 0 -10 13l89 324q4 13 18 13h97q13 0 9 -13l-123 -324q-5 -13 -19 -13h-61zM204 -22q-37 0 -62.5 7.5t-39.5 26.5t-16 51t7 80l169 914q3 14 17 14h83q14 0 11 -14l-164 -887q-6 -30 -7.5 -47.5t2 -27.5t12.5 -13t24 -3q11 0 21.5 0.5t20.5 1.5q14 1 14 -12
l-3 -69q0 -13 -14 -16q-15 -2 -35 -4t-40 -2z" />
    <glyph glyph-name="iotadieresis" unicode="&#x3ca;" horiz-adv-x="502" 
d="M161 1252q-14 0 -11 14l47 258q3 14 17 17l95 18q14 3 11 -11l-52 -282q-3 -14 -17 -14h-90zM454 1252q-14 0 -11 14l47 258q3 14 17 17l96 18q14 3 11 -11l-52 -282q-3 -14 -17 -14h-91zM204 -22q-37 0 -62.5 7.5t-39.5 26.5t-16 51t7 80l169 914q3 14 17 14h83
q14 0 11 -14l-164 -887q-6 -30 -7.5 -47.5t2 -27.5t12.5 -13t24 -3q11 0 21.5 0.5t20.5 1.5q14 1 14 -12l-3 -69q0 -13 -14 -16q-15 -2 -35 -4t-40 -2z" />
    <glyph glyph-name="iotadieresistonos" unicode="&#x390;" horiz-adv-x="502" 
d="M171 1252q-14 0 -11 14l35 195q3 14 17 17l94 19q14 3 11 -11l-40 -220q-3 -14 -17 -14h-89zM463 1252q-14 0 -11 14l36 195q3 14 17 17l94 19q14 3 11 -11l-40 -220q-3 -14 -17 -14h-90zM361 1450q-13 0 -9 13l111 273q5 13 19 13h112q14 0 7 -12l-157 -275
q-7 -12 -21 -12h-62zM204 -22q-37 0 -62.5 7.5t-39.5 26.5t-16 51t7 80l169 914q3 14 17 14h83q14 0 11 -14l-164 -887q-6 -30 -7.5 -47.5t2 -27.5t12.5 -13t24 -3q11 0 21.5 0.5t20.5 1.5q14 1 14 -12l-3 -69q0 -13 -14 -16q-15 -2 -35 -4t-40 -2z" />
    <glyph glyph-name="omicrontonos" unicode="&#x3cc;" horiz-adv-x="1181" 
d="M631 1252q-14 0 -10 13l89 324q4 13 18 13h97q13 0 9 -13l-123 -324q-5 -13 -19 -13h-61zM659 990q-99 0 -170 -24t-120.5 -75.5t-81 -131t-52.5 -190.5l-12 -69q-20 -111 -18.5 -190.5t31.5 -130.5t92 -75.5t162 -24.5q99 0 170 24t120.5 75.5t81 131.5t52.5 192l12 67
q21 110 19 189.5t-32 131t-92 76t-162 24.5zM471 -22q-122 0 -202.5 30.5t-123.5 93.5t-50.5 159.5t17.5 228.5l15 87q26 138 69.5 236t110 160t158 90.5t213.5 28.5q123 0 204 -30.5t124 -93.5t49.5 -160.5t-18.5 -230.5l-15 -87q-25 -138 -68.5 -235.5t-109.5 -159
t-158 -89.5t-215 -28z" />
    <glyph glyph-name="upsilontonos" unicode="&#x3cd;" horiz-adv-x="1202" 
d="M641 1252q-14 0 -10 13l89 324q4 13 18 13h97q13 0 9 -13l-123 -324q-5 -13 -19 -13h-61zM496 -22q-119 0 -197.5 32.5t-120 98.5t-48 167.5t19.5 239.5l101 542q3 14 17 14h82q14 0 11 -14l-98 -532q-22 -118 -21.5 -202.5t29 -139t88 -80t156.5 -25.5q94 0 162.5 24
t116.5 76t79 132.5t52 194.5l8 41q21 116 29 192t2.5 124.5t-24.5 75.5t-51 45q-11 8 -6 20l34 77q4 8 7.5 9.5t11.5 -2.5q54 -24 86.5 -62.5t45.5 -101.5t6 -154.5t-31 -222.5l-9 -50q-26 -147 -68.5 -246t-107 -160t-154 -87t-208.5 -26z" />
    <glyph glyph-name="upsilondieresis" unicode="&#x3cb;" horiz-adv-x="1202" 
d="M508 1252q-14 0 -11 14l47 258q3 14 17 17l95 18q14 3 11 -11l-52 -282q-3 -14 -17 -14h-90zM801 1252q-14 0 -11 14l47 258q3 14 17 17l96 18q14 3 11 -11l-52 -282q-3 -14 -17 -14h-91zM496 -22q-119 0 -197.5 32.5t-120 98.5t-48 167.5t19.5 239.5l101 542q3 14 17 14
h82q14 0 11 -14l-98 -532q-22 -118 -21.5 -202.5t29 -139t88 -80t156.5 -25.5q94 0 162.5 24t116.5 76t79 132.5t52 194.5l8 41q21 116 29 192t2.5 124.5t-24.5 75.5t-51 45q-11 8 -6 20l34 77q4 8 7.5 9.5t11.5 -2.5q54 -24 86.5 -62.5t45.5 -101.5t6 -154.5t-31 -222.5
l-9 -50q-26 -147 -68.5 -246t-107 -160t-154 -87t-208.5 -26z" />
    <glyph glyph-name="upsilondieresistonos" unicode="&#x3b0;" horiz-adv-x="1202" 
d="M500 1252q-14 0 -11 14l35 195q3 14 17 17l94 19q14 3 11 -11l-40 -220q-3 -14 -17 -14h-89zM792 1252q-14 0 -11 14l36 195q3 14 17 17l94 19q14 3 11 -11l-40 -220q-3 -14 -17 -14h-90zM690 1450q-13 0 -9 13l111 273q5 13 19 13h112q14 0 7 -12l-157 -275
q-7 -12 -21 -12h-62zM496 -22q-119 0 -197.5 32.5t-120 98.5t-48 167.5t19.5 239.5l101 542q3 14 17 14h82q14 0 11 -14l-98 -532q-22 -118 -21.5 -202.5t29 -139t88 -80t156.5 -25.5q94 0 162.5 24t116.5 76t79 132.5t52 194.5l8 41q21 116 29 192t2.5 124.5t-24.5 75.5
t-51 45q-11 8 -6 20l34 77q4 8 7.5 9.5t11.5 -2.5q54 -24 86.5 -62.5t45.5 -101.5t6 -154.5t-31 -222.5l-9 -50q-26 -147 -68.5 -246t-107 -160t-154 -87t-208.5 -26z" />
    <glyph glyph-name="omegatonos" unicode="&#x3ce;" horiz-adv-x="1638" 
d="M887 1252q-14 0 -10 13l89 324q4 13 18 13h97q13 0 9 -13l-123 -324q-5 -13 -19 -13h-61zM399 -22q-195 0 -260.5 127t-15.5 382l10 51q20 102 39 178.5t40 133t44.5 95t51.5 66t61.5 45t75.5 32.5q13 6 14 -9l4 -72q1 -13 -11 -20q-40 -21 -69.5 -49t-53 -77t-44 -124.5
t-42.5 -192.5l-9 -47q-20 -111 -22 -190t19 -129t67.5 -73.5t121.5 -23.5q71 0 123.5 25.5t90.5 80t65.5 138.5t49.5 201l29 160q3 14 17 14h77q14 0 11 -14l-29 -160q-22 -117 -25.5 -201t15 -138.5t61 -80t113.5 -25.5q76 0 131 23.5t94.5 73.5t67 129t47.5 190l9 47
q21 116 29 191.5t2.5 124t-24 76.5t-49.5 49q-13 9 -6 21l31 74q6 14 18 7q55 -25 88 -67t45 -107t5 -157t-31 -218l-10 -51q-28 -145 -68 -242.5t-95.5 -157t-130 -84.5t-171.5 -25q-113 0 -180.5 64.5t-70.5 190.5q-26 -70 -61.5 -118.5t-80.5 -79t-97.5 -44t-110.5 -13.5
z" />
    <glyph glyph-name="uni037E" unicode="&#x37e;" horiz-adv-x="513" 
d="M-25 -233q-13 0 -9 13l160 436q3 8 7 11t12 4l118 20q14 2 8 -11l-200 -460q-4 -8 -8 -10.5t-12 -2.5h-76zM229 676q-14 0 -11 14l37 201q3 14 17 17l96 18q14 3 11 -11l-40 -225q-3 -14 -17 -14h-93z" />
    <glyph glyph-name="tonos" unicode="&#x384;" horiz-adv-x="778" 
d="M542 1252q-14 0 -10 13l89 324q4 13 18 13h97q13 0 9 -13l-123 -324q-5 -13 -19 -13h-61z" />
    <glyph glyph-name="dieresistonos" unicode="&#x385;" horiz-adv-x="779" 
d="M430 1252q-14 0 -11 14l35 195q3 14 17 17l94 19q14 3 11 -11l-40 -220q-3 -14 -17 -14h-89zM722 1252q-14 0 -11 14l36 195q3 14 17 17l94 19q14 3 11 -11l-40 -220q-3 -14 -17 -14h-90zM620 1450q-13 0 -9 13l111 273q5 13 19 13h112q14 0 7 -12l-157 -275
q-7 -12 -21 -12h-62z" />
    <glyph glyph-name="afii10017" unicode="&#x410;" horiz-adv-x="1272" 
d="M-70 0q-15 0 -7 12l791 1451q7 12 21 12h131q15 0 16 -14l258 -1447q1 -14 -12 -14h-94q-15 0 -16 14l-72 407h-675l-221 -409q-7 -12 -21 -12h-99zM780 1362l-450 -831h597z" />
    <glyph glyph-name="afii10018" unicode="&#x411;" horiz-adv-x="1255" 
d="M442 -20q-35 0 -75.5 1t-84 3.5t-87 5.5t-83.5 7q-14 1 -11 15l268 1449q3 14 17 14h786q14 0 11 -14l-15 -85q-3 -14 -17 -14h-687l-88 -477q20 3 48.5 4.5t60.5 3t65 2t62 0.5q96 0 175 -6.5t140.5 -23.5t105 -47.5t67 -78.5t28 -115.5t-12.5 -159.5l-9 -53
q-18 -101 -48 -172t-72.5 -119t-97 -76t-122 -42t-148.5 -18t-176 -4zM1001 465q21 111 6.5 175.5t-64 97t-134.5 41.5t-205 9q-61 0 -124.5 -3t-123.5 -8l-126 -681q59 -5 120.5 -7t123.5 -2q120 0 208 9t150 41.5t100 97t59 175.5z" />
    <glyph glyph-name="afii10019" unicode="&#x412;" horiz-adv-x="1320" 
d="M461 -20q-38 0 -81.5 1t-89.5 3t-91.5 4.5t-87.5 6.5q-14 1 -11 15l268 1451q2 14 17 15q33 4 73 6.5t82.5 4.5t87 3t86.5 1q141 0 242.5 -15.5t163.5 -54t84.5 -104.5t5.5 -167l-2 -11q-12 -66 -33 -117t-49 -88t-62.5 -61t-71.5 -37q97 -36 140.5 -129.5t16.5 -244.5
l-10 -52q-19 -101 -49 -172t-72.5 -118.5t-98 -75.5t-125 -42t-152.5 -18t-181 -4zM1033 459q16 86 6.5 142.5t-39.5 90t-78.5 47t-109.5 13.5h-461l-122 -656q62 -5 129.5 -7t133.5 -2q123 0 214 9t155 41.5t103.5 96.5t59.5 174zM708 1385q-73 0 -133 -2.5t-108 -7.5
l-97 -517h407q69 2 122 21t91.5 52.5t63 80.5t35.5 105l4 16q15 84 -3.5 134t-68.5 76t-129 34t-184 8z" />
    <glyph glyph-name="afii10020" unicode="&#x413;" horiz-adv-x="1067" 
d="M112 0q-14 0 -11 14l268 1447q3 14 17 14h787q14 0 11 -14l-14 -82q-3 -14 -17 -14h-688l-250 -1351q-3 -14 -17 -14h-86z" />
    <glyph glyph-name="afii10050" unicode="&#x490;" horiz-adv-x="1062" 
d="M112 0q-14 0 -11 14l268 1447q3 14 17 14h686l38 201q3 14 17 14h85q14 0 11 -14l-54 -300q-3 -14 -17 -14h-688l-249 -1348q-3 -14 -17 -14h-86z" />
    <glyph glyph-name="afii10021" unicode="&#x414;" horiz-adv-x="1394" 
d="M-121 -276q-14 0 -11 14l65 358q3 14 17 14h39q39 0 75 26.5t71 86t69.5 155t71 234.5t76 324.5t83.5 423.5l19 101q3 14 17 14h834q14 0 11 -14l-251 -1351h67q14 0 11 -14l-65 -358q-3 -14 -17 -14h-87q-14 0 -11 14l48 262h-981l-48 -262q-3 -14 -17 -14h-86z
M550 1362q-59 -308 -107 -527t-93 -366.5t-92 -232.5t-102 -126h796l231 1252h-633z" />
    <glyph glyph-name="afii10022" unicode="&#x415;" horiz-adv-x="1186" 
d="M113 0q-14 0 -11 14l266 1447q3 14 17 14h822q13 0 12 -14l-16 -85q-1 -14 -16 -14h-722l-93 -502h626q14 0 11 -14l-15 -84q-3 -14 -17 -14h-626l-116 -636h721q14 0 11 -14l-16 -84q-3 -14 -17 -14h-821z" />
    <glyph glyph-name="afii10024" unicode="&#x416;" horiz-adv-x="1696" 
d="M-95 0q-14 0 -4 10l849 784l-561 670q-9 11 5 11h120q8 0 13 -2.5t10 -8.5l501 -604l110 601q3 14 17 14h86q14 0 11 -14l-110 -601l715 606q10 9 25 9h132q6 0 7 -2.5t-4 -6.5l-812 -690l543 -765q8 -11 -6 -11h-109q-14 0 -22 11l-497 701l-129 -698q-3 -14 -17 -14
h-86q-14 0 -11 14l129 698l-762 -703q-9 -9 -24 -9h-119z" />
    <glyph glyph-name="afii10025" unicode="&#x417;" horiz-adv-x="1133" 
d="M334 -22q-85 0 -164.5 6t-141.5 14q-14 1 -11 16l19 82q3 15 17 12q69 -8 146.5 -13t149.5 -5q106 0 186.5 16t137.5 53t92.5 97t51.5 148l8 39q9 49 5.5 102t-30 97t-80.5 72.5t-145 28.5h-361q-13 0 -12 14l15 83q1 14 16 14h360q93 0 157.5 25t106 62t62.5 80.5
t28 79.5l4 23q15 78 -4 128.5t-66.5 80t-121.5 41.5t-170 12q-69 0 -144 -5.5t-144 -13.5q-13 -1 -12 13l10 81q2 14 16 16q63 7 140.5 13.5t158.5 6.5q123 0 215.5 -20.5t151.5 -64t82 -112t6 -164.5l-4 -26q-11 -60 -34.5 -111t-62 -91.5t-92.5 -69t-126 -43.5
q70 -19 112 -58.5t62.5 -89.5t22.5 -105t-8 -105l-7 -40q-24 -130 -74.5 -212t-126 -128t-175 -62.5t-222.5 -16.5z" />
    <glyph glyph-name="afii10026" unicode="&#x418;" horiz-adv-x="1435" 
d="M1224 1274q-12 -17 -27 -36q-13 -17 -30.5 -39.5t-37.5 -49.5l-886 -1134q-7 -9 -13.5 -12t-16.5 -3h-100q-14 0 -11 14l266 1447q3 14 17 14h86q14 0 11 -14l-233 -1261h3q10 14 23 32q24 32 66 86l898 1151q5 6 12 6h112q14 0 11 -14l-268 -1447q-3 -14 -17 -14h-86
q-14 0 -11 14l235 1260h-3z" />
    <glyph glyph-name="afii10027" unicode="&#x419;" horiz-adv-x="1436" 
d="M1224 1274q-12 -17 -27 -36q-13 -17 -30.5 -39.5t-37.5 -49.5l-886 -1134q-7 -9 -13.5 -12t-16.5 -3h-100q-14 0 -11 14l266 1447q3 14 17 14h86q14 0 11 -14l-233 -1261h3q10 14 23 32q24 32 66 86l898 1151q5 6 12 6h112q14 0 11 -14l-268 -1447q-3 -14 -17 -14h-86
q-14 0 -11 14l235 1260h-3zM890 1586q-118 0 -174.5 56t-48.5 157q0 14 15 14h62q14 0 13 -14q0 -39 12 -64t31.5 -40t45 -21t52.5 -6q30 0 58 6.5t53 21.5t45 40.5t33 63.5q4 13 18 13h69q14 0 10 -13q-17 -54 -40.5 -94t-58 -66.5t-82.5 -40t-113 -13.5z" />
    <glyph glyph-name="afii10028" unicode="&#x41a;" horiz-adv-x="1117" 
d="M113 0q-14 0 -11 14l267 1447q3 14 17 14h85q14 0 11 -14l-110 -601l715 606q10 9 25 9h132q6 0 7 -2.5t-4 -6.5l-812 -690l544 -765q8 -11 -6 -11h-110q-14 0 -22 11l-497 701l-129 -698q-3 -14 -17 -14h-85z" />
    <glyph glyph-name="afii10029" unicode="&#x41b;" horiz-adv-x="1359" 
d="M529 1362q-45 -248 -86.5 -441t-83 -339.5t-85 -250t-93 -172t-106.5 -106.5t-125 -53q-14 -3 -14 11l-3 80q0 13 14 17q80 21 141.5 100.5t114.5 230t103.5 377.5t109.5 544l18 101q3 14 17 14h836q14 0 11 -14l-268 -1447q-3 -14 -17 -14h-86q-14 0 -11 14l250 1348
h-637v0z" />
    <glyph glyph-name="afii10030" unicode="&#x41c;" horiz-adv-x="1648" 
d="M113 0q-14 0 -11 14l266 1447q3 14 17 14h91q14 0 19 -13l278 -732q7 -19 14.5 -38.5t12.5 -35t8.5 -26l3.5 -10.5l7.5 10.5t19.5 26t26.5 35.5t29.5 40l548 732q8 11 22 11h110q14 0 11 -14l-267 -1447q-3 -14 -17 -14h-86q-14 0 -11 14l220 1192l12 72q-2 -1 -19 -24
t-37 -51l-529 -707q-8 -11 -22 -11h-69q-14 0 -19 13l-260 698q-12 34 -20 58t-10 24l-18 -89l-218 -1175q-3 -14 -17 -14h-86z" />
    <glyph glyph-name="afii10031" unicode="&#x41d;" horiz-adv-x="1427" 
d="M113 0q-14 0 -11 14l266 1447q3 14 17 14h86q14 0 11 -14l-110 -601h769l110 601q3 14 17 14h86q14 0 11 -14l-267 -1447q-3 -14 -17 -14h-86q-14 0 -11 14l135 734h-768l-135 -734q-3 -14 -17 -14h-86z" />
    <glyph glyph-name="afii10032" unicode="&#x41e;" horiz-adv-x="1432" 
d="M596 -22q-135 0 -232.5 35t-153.5 116t-69 213.5t20 327.5l23 135q36 205 97.5 338.5t148.5 212t198.5 110t248.5 31.5q136 0 233 -34.5t152.5 -115.5t68 -213.5t-20.5 -328.5l-23 -135q-35 -203 -95.5 -336t-147.5 -212.5t-199 -111.5t-249 -32zM855 1380
q-108 0 -196 -26.5t-156.5 -91.5t-118 -173.5t-80.5 -273.5l-28 -155q-30 -167 -21 -276t53 -173.5t122.5 -90.5t186.5 -26q105 0 193 27.5t157.5 93t119.5 174.5t80 273l28 153q30 165 21.5 274t-53 173.5t-122.5 91t-186 26.5z" />
    <glyph glyph-name="afii10033" unicode="&#x41f;" horiz-adv-x="1427" 
d="M113 0q-14 0 -11 14l267 1447q3 14 17 14h967q14 0 11 -14l-267 -1447q-3 -14 -17 -14h-86q-14 0 -11 14l250 1348h-768l-250 -1348q-3 -14 -17 -14h-85z" />
    <glyph glyph-name="afii10034" unicode="&#x420;" horiz-adv-x="1271" 
d="M676 1385q-17 0 -45.5 -1t-59.5 -2t-59 -3t-44 -3l-135 -724q15 -2 43 -3t58.5 -2t59.5 -1.5t46 -0.5q148 0 250.5 13.5t170.5 51t106.5 104.5t58.5 174l11 53q19 107 6 174.5t-67 105t-152 51t-248 13.5zM112 0q-14 0 -11 14l269 1449q2 14 17 15q35 3 78 5l86 4t81 3
t64 1q164 0 281 -17t186.5 -65t91.5 -133.5t-3 -223.5l-14 -74q-18 -97 -45.5 -167t-68 -119t-96.5 -79t-129.5 -46.5t-168 -22t-211.5 -5.5q-21 0 -53.5 0.5t-64 1.5t-57 2t-32.5 2l-97 -531q-3 -14 -17 -14h-86z" />
    <glyph glyph-name="afii10035" unicode="&#x421;" horiz-adv-x="1159" 
d="M623 -22q-141 0 -245 35.5t-165.5 116.5t-77 213.5t20.5 326.5l23 135q37 201 101.5 334t156 212.5t209 112.5t258.5 33q91 0 173.5 -8.5t138.5 -22.5q14 -4 9 -17l-29 -77q-5 -13 -19 -10q-64 13 -140.5 18.5t-149.5 5.5q-114 0 -209 -27t-169 -93t-127 -176t-84 -275
l-27 -155q-31 -166 -19 -276t61.5 -175.5t134 -92.5t199.5 -27q93 0 169.5 7.5t139.5 18.5q14 1 14 -12l-1 -77q0 -14 -14 -17q-63 -14 -150 -22.5t-182 -8.5z" />
    <glyph glyph-name="afii10036" unicode="&#x422;" horiz-adv-x="1162" 
d="M414 0q-14 0 -11 14l250 1348h-486q-14 0 -11 14l15 85q3 14 17 14h1087q14 0 11 -14l-16 -85q-3 -14 -17 -14h-486l-249 -1348q-3 -14 -17 -14h-87z" />
    <glyph glyph-name="afii10037" unicode="&#x423;" horiz-adv-x="1035" 
d="M121 -22q-31 0 -63 4.5t-59 12.5q-14 4 -8 18l26 69q3 7 7 9.5t12 0.5q24 -5 51 -8.5t50 -3.5q54 0 94 10.5t76 39.5t72 82t81 137l-259 1112q-3 14 11 14h93q14 0 17 -14l193 -873q7 -33 10.5 -59.5t5.5 -40.5l491 974q5 13 20 13h98q14 0 8 -12l-579 -1112
q-45 -86 -82.5 -147t-71 -102.5t-65.5 -66t-67 -37t-74.5 -16.5t-87.5 -4z" />
    </font>
</defs>
</svg>
